<svg width="46" height="46" viewBox="0 0 46 46" fill="none" xmlns="http://www.w3.org/2000/svg">
<path d="M32.7864 11.0437H30.7892C30.7892 7.92341 27.2951 5.38497 23.0001 5.38497C18.7052 5.38497 15.2111 7.92349 15.2111 11.0437H13.2139C13.2139 8.94542 14.2685 6.99096 16.1833 5.54028C18.0155 4.15214 20.4365 3.3877 23.0001 3.3877C25.5638 3.3877 27.9847 4.15214 29.817 5.5402C31.7319 6.99088 32.7864 8.94534 32.7864 11.0437Z" fill="url(#paint0_linear_1077_2619)"/>
<path d="M29.8167 5.54055C28.888 4.83705 27.8078 4.29454 26.6348 3.92969V6.04049C29.1032 6.99083 30.7889 8.87691 30.7889 11.0439H32.7861C32.7861 8.94569 31.7316 6.99123 29.8167 5.54055Z" fill="url(#paint1_linear_1077_2619)"/>
<path d="M16.7617 9.83608L16.4854 9.72663C15.4528 9.31768 14.3032 9.31768 13.2706 9.72663L12.9943 9.83608C12.7566 9.93022 12.5527 10.0936 12.409 10.3051C12.2653 10.5165 12.1885 10.7663 12.1885 11.0219V13.7795C12.1885 14.484 12.7595 15.055 13.464 15.055H16.2921C16.9965 15.055 17.5676 14.484 17.5676 13.7795V11.0219C17.5675 10.7663 17.4907 10.5165 17.347 10.3051C17.2033 10.0936 16.9994 9.93023 16.7617 9.83608Z" fill="url(#paint2_linear_1077_2619)"/>
<path d="M33.0059 9.83608L32.7296 9.72663C31.697 9.31768 30.5474 9.31768 29.5148 9.72663L29.2385 9.83608C29.0008 9.93021 28.7969 10.0936 28.6532 10.3051C28.5094 10.5166 28.4326 10.7663 28.4326 11.022V13.7796C28.4326 14.484 29.0037 15.0551 29.7081 15.0551H32.5362C33.2407 15.0551 33.8117 14.484 33.8117 13.7796V11.022C33.8117 10.7663 33.7349 10.5166 33.5912 10.3051C33.4475 10.0936 33.2436 9.93021 33.0059 9.83608Z" fill="url(#paint3_linear_1077_2619)"/>
<path d="M11.7056 43.3718H9.95613C9.4097 43.3718 8.9668 42.9289 8.9668 42.3825V40.8154H12.6949V42.3825C12.6949 42.9289 12.2519 43.3718 11.7056 43.3718Z" fill="url(#paint4_linear_1077_2619)"/>
<path d="M36.0444 43.3718H34.295C33.7486 43.3718 33.3057 42.9289 33.3057 42.3825V40.8154H37.0338V42.3825C37.0337 42.9289 36.5907 43.3718 36.0444 43.3718Z" fill="url(#paint5_linear_1077_2619)"/>
<path d="M38.2895 42.1733H7.71093C5.3119 42.1733 3.36719 40.2285 3.36719 37.8296V17.2773C3.36719 14.8783 5.31198 12.9336 7.71093 12.9336H38.2896C40.6886 12.9336 42.6333 14.8784 42.6333 17.2773V37.8295C42.6333 40.2285 40.6885 42.1733 38.2895 42.1733Z" fill="url(#paint6_linear_1077_2619)"/>
<path d="M42.6334 26.4014C41.5461 27.4887 40.0713 28.0996 38.5335 28.0996H4.19336L18.2673 42.1736H38.2896C40.6887 42.1736 42.6334 40.2288 42.6334 37.8298V26.4014H42.6334Z" fill="url(#paint7_linear_1077_2619)"/>
<path d="M39.7575 28.8958L24.4833 30.2208C23.4965 30.3063 22.5041 30.3063 21.5173 30.2208L6.24312 28.8958C4.19846 28.7185 2.62891 27.0069 2.62891 24.9545V15.791C2.62891 13.392 4.5737 11.4473 6.97265 11.4473H39.0279C41.427 11.4473 43.3717 13.3921 43.3717 15.791V24.9546C43.3718 27.0069 41.8022 28.7185 39.7575 28.8958Z" fill="url(#paint8_linear_1077_2619)"/>
<path d="M2.62891 18.5195V24.9555C2.62891 27.0079 4.19846 28.7195 6.24312 28.8969L21.5173 30.2218C22.5041 30.3074 23.4965 30.3074 24.4833 30.2218L39.7575 28.8969C41.8022 28.7195 43.3718 27.0079 43.3718 24.9556V18.5196L2.62891 18.5195Z" fill="url(#paint9_linear_1077_2619)"/>
<path d="M3.36719 32.1074V37.8299C3.36719 40.2289 5.31198 42.1737 7.71093 42.1737H38.2896C40.6886 42.1737 42.6333 40.2289 42.6333 37.8299V32.1074H3.36719Z" fill="url(#paint10_linear_1077_2619)"/>
<path d="M42.6339 31.624V37.8297C42.6339 38.9848 42.1825 40.0354 41.4468 40.8135L32.4857 31.8524C32.1446 31.6935 31.9081 31.3483 31.9081 30.9465V30.0222C31.7779 29.903 31.674 29.7579 31.6029 29.5963C31.5318 29.4347 31.4951 29.2601 31.4951 29.0835V26.3258C31.4951 25.6212 32.0663 25.0508 32.7709 25.0508H35.599C36.0751 25.0508 36.4897 25.312 36.7086 25.6987L42.6339 31.624Z" fill="url(#paint11_linear_1077_2619)"/>
<path d="M30.9741 42.1732H20.5967L10.2767 31.8524C9.93562 31.6935 9.69915 31.3483 9.69915 30.9465V30.0222C9.56896 29.903 9.465 29.7579 9.3939 29.5963C9.32279 29.4347 9.28609 29.2601 9.28613 29.0835V26.3258C9.28613 25.6212 9.85733 25.0508 10.5619 25.0508H13.39C13.8661 25.0508 14.2807 25.312 14.4996 25.6987L30.9741 42.1732Z" fill="url(#paint12_linear_1077_2619)"/>
<path d="M13.1721 31.8677H10.6197C10.0671 31.8677 9.61914 31.4197 9.61914 30.8672V29.2314H14.1728V30.8672C14.1727 31.4197 13.7247 31.8677 13.1721 31.8677Z" fill="url(#paint13_linear_1077_2619)"/>
<path d="M13.7793 30.1896L13.5031 30.2991C12.4705 30.708 11.3208 30.708 10.2882 30.2991L10.0119 30.1896C9.77419 30.0955 9.57027 29.9321 9.42658 29.7206C9.28289 29.5092 9.20606 29.2594 9.20605 29.0038V26.2462C9.20605 25.5417 9.77709 24.9707 10.4815 24.9707H13.3097C14.0141 24.9707 14.5851 25.5417 14.5851 26.2462V29.0038C14.5852 29.2594 14.5084 29.5092 14.3647 29.7207C14.221 29.9321 14.017 30.0955 13.7793 30.1896Z" fill="url(#paint14_linear_1077_2619)"/>
<path d="M35.3811 31.8677H32.8287C32.2761 31.8677 31.8281 31.4197 31.8281 30.8672V29.2314H36.3817V30.8672C36.3817 31.4197 35.9336 31.8677 35.3811 31.8677Z" fill="url(#paint15_linear_1077_2619)"/>
<path d="M35.9882 30.1896L35.712 30.2991C34.6794 30.708 33.5297 30.708 32.4971 30.2991L32.2209 30.1896C31.9832 30.0955 31.7793 29.9321 31.6356 29.7206C31.4919 29.5092 31.415 29.2594 31.415 29.0038V26.2462C31.415 25.5417 31.9861 24.9707 32.6905 24.9707H35.5186C36.2231 24.9707 36.7941 25.5417 36.7941 26.2462V29.0038C36.7941 29.2594 36.7173 29.5092 36.5736 29.7207C36.4299 29.9321 36.2259 30.0955 35.9882 30.1896Z" fill="url(#paint16_linear_1077_2619)"/>
<path d="M36.4905 29.1802C31.3547 23.9985 27.0977 19.6993 27.0706 19.6586C27.0114 19.5692 26.931 19.4959 26.8365 19.4453C26.7421 19.3946 26.6365 19.3681 26.5294 19.3682H19.6318C19.5465 19.3682 19.4621 19.3849 19.3833 19.4176C19.3045 19.4502 19.2329 19.498 19.1726 19.5583C19.1123 19.6187 19.0645 19.6902 19.0318 19.769C18.9992 19.8478 18.9824 19.9323 18.9824 20.0176V21.1043C18.9824 21.2836 19.0551 21.446 19.1726 21.5635C19.21 21.6009 22.7774 25.141 27.6229 29.9493L36.4905 29.1802Z" fill="url(#paint17_linear_1077_2619)"/>
<path d="M26.4493 21.6307H19.5518C19.4665 21.6307 19.382 21.6139 19.3032 21.5812C19.2244 21.5486 19.1528 21.5008 19.0925 21.4405C19.0322 21.3802 18.9844 21.3086 18.9518 21.2298C18.9191 21.151 18.9023 21.0665 18.9023 20.9812V19.8945C18.9023 19.5358 19.1931 19.2451 19.5518 19.2451H26.4494C26.8081 19.2451 27.0988 19.5359 27.0988 19.8945V20.9812C27.0987 21.1535 27.0303 21.3187 26.9085 21.4404C26.7867 21.5622 26.6215 21.6307 26.4493 21.6307Z" fill="url(#paint18_linear_1077_2619)"/>
<path d="M27.903 7.61157C24.6555 6.20969 21.3419 6.21113 18.0976 7.61157C17.5751 7.83709 16.9668 7.63809 16.6849 7.14374L15.8317 5.64808C15.5039 5.07329 15.7487 4.34479 16.3536 4.07621C20.6987 2.14659 25.3011 2.14635 29.647 4.07621C30.2518 4.34479 30.4967 5.07321 30.1688 5.64808L29.3157 7.14374C29.0337 7.63801 28.4254 7.83709 27.903 7.61157Z" fill="url(#paint19_linear_1077_2619)"/>
<defs>
<linearGradient id="paint0_linear_1077_2619" x1="23.0001" y1="3.3877" x2="23.0001" y2="11.0437" gradientUnits="userSpaceOnUse">
<stop stop-color="#E6EEFF"/>
<stop offset="1" stop-color="#BAC8FA"/>
</linearGradient>
<linearGradient id="paint1_linear_1077_2619" x1="31.6167" y1="9.466" x2="29.7792" y2="7.78836" gradientUnits="userSpaceOnUse">
<stop stop-color="#A7B7F1" stop-opacity="0"/>
<stop offset="1" stop-color="#A7B7F1"/>
</linearGradient>
<linearGradient id="paint2_linear_1077_2619" x1="14.8779" y1="10.2454" x2="14.8779" y2="11.8999" gradientUnits="userSpaceOnUse">
<stop stop-color="#FEE45A"/>
<stop offset="1" stop-color="#FEA613"/>
</linearGradient>
<linearGradient id="paint3_linear_1077_2619" x1="31.1222" y1="10.2454" x2="31.1222" y2="11.8999" gradientUnits="userSpaceOnUse">
<stop stop-color="#FEE45A"/>
<stop offset="1" stop-color="#FEA613"/>
</linearGradient>
<linearGradient id="paint4_linear_1077_2619" x1="10.8309" y1="41.8274" x2="10.8309" y2="43.0535" gradientUnits="userSpaceOnUse">
<stop stop-color="#5A5A5A"/>
<stop offset="1" stop-color="#444444"/>
</linearGradient>
<linearGradient id="paint5_linear_1077_2619" x1="35.1696" y1="41.8274" x2="35.1696" y2="43.0535" gradientUnits="userSpaceOnUse">
<stop stop-color="#5A5A5A"/>
<stop offset="1" stop-color="#444444"/>
</linearGradient>
<linearGradient id="paint6_linear_1077_2619" x1="17.1568" y1="19.9946" x2="34.5724" y2="42.523" gradientUnits="userSpaceOnUse">
<stop stop-color="#C86D36"/>
<stop offset="1" stop-color="#883F2E"/>
</linearGradient>
<linearGradient id="paint7_linear_1077_2619" x1="23.4134" y1="37.979" x2="23.4134" y2="29.5402" gradientUnits="userSpaceOnUse">
<stop stop-color="#883F2E" stop-opacity="0"/>
<stop offset="1" stop-color="#6D3326"/>
</linearGradient>
<linearGradient id="paint8_linear_1077_2619" x1="14.8969" y1="15.3755" x2="35.0287" y2="27.5184" gradientUnits="userSpaceOnUse">
<stop stop-color="#C86D36"/>
<stop offset="1" stop-color="#883F2E"/>
</linearGradient>
<linearGradient id="paint9_linear_1077_2619" x1="23.0003" y1="22.122" x2="23.0003" y2="31.7139" gradientUnits="userSpaceOnUse">
<stop stop-color="#883F2E" stop-opacity="0"/>
<stop offset="1" stop-color="#6D3326"/>
</linearGradient>
<linearGradient id="paint10_linear_1077_2619" x1="23.0003" y1="37.38" x2="23.0003" y2="42.2851" gradientUnits="userSpaceOnUse">
<stop stop-color="#883F2E" stop-opacity="0"/>
<stop offset="1" stop-color="#6D3326"/>
</linearGradient>
<linearGradient id="paint11_linear_1077_2619" x1="44.2164" y1="35.7271" x2="35.0293" y2="31.0936" gradientUnits="userSpaceOnUse">
<stop stop-color="#883F2E" stop-opacity="0"/>
<stop offset="1" stop-color="#6D3326"/>
</linearGradient>
<linearGradient id="paint12_linear_1077_2619" x1="20.5542" y1="35.9217" x2="7.29285" y2="26.8145" gradientUnits="userSpaceOnUse">
<stop stop-color="#883F2E" stop-opacity="0"/>
<stop offset="1" stop-color="#6D3326"/>
</linearGradient>
<linearGradient id="paint13_linear_1077_2619" x1="11.8959" y1="30.483" x2="11.8959" y2="31.7083" gradientUnits="userSpaceOnUse">
<stop stop-color="#FEE45A"/>
<stop offset="1" stop-color="#FEA613"/>
</linearGradient>
<linearGradient id="paint14_linear_1077_2619" x1="11.2557" y1="26.2981" x2="12.7202" y2="29.3339" gradientUnits="userSpaceOnUse">
<stop stop-color="#FEE45A"/>
<stop offset="1" stop-color="#FEA613"/>
</linearGradient>
<linearGradient id="paint15_linear_1077_2619" x1="34.1049" y1="30.483" x2="34.1049" y2="31.7083" gradientUnits="userSpaceOnUse">
<stop stop-color="#FEE45A"/>
<stop offset="1" stop-color="#FEA613"/>
</linearGradient>
<linearGradient id="paint16_linear_1077_2619" x1="33.4646" y1="26.2981" x2="34.9291" y2="29.3339" gradientUnits="userSpaceOnUse">
<stop stop-color="#FEE45A"/>
<stop offset="1" stop-color="#FEA613"/>
</linearGradient>
<linearGradient id="paint17_linear_1077_2619" x1="29.9564" y1="28.8248" x2="23.4854" y2="18.3595" gradientUnits="userSpaceOnUse">
<stop stop-color="#883F2E" stop-opacity="0"/>
<stop offset="1" stop-color="#6D3326"/>
</linearGradient>
<linearGradient id="paint18_linear_1077_2619" x1="23.0005" y1="19.8262" x2="23.0005" y2="21.4879" gradientUnits="userSpaceOnUse">
<stop stop-color="#E6EEFF"/>
<stop offset="1" stop-color="#BAC8FA"/>
</linearGradient>
<linearGradient id="paint19_linear_1077_2619" x1="23.0003" y1="3.37239" x2="23.0003" y2="4.86238" gradientUnits="userSpaceOnUse">
<stop stop-color="#5A5A5A"/>
<stop offset="1" stop-color="#444444"/>
</linearGradient>
</defs>
</svg>
