<svg width="46" height="46" viewBox="0 0 46 46" fill="none" xmlns="http://www.w3.org/2000/svg">
<g clip-path="url(#clip0_1077_3394)">
<path d="M24.3175 44.9933C36.2925 44.9933 46.0001 35.2856 46.0001 23.3106C46.0001 11.3356 36.2925 1.62793 24.3175 1.62793C12.3424 1.62793 2.63477 11.3356 2.63477 23.3106C2.63477 35.2856 12.3424 44.9933 24.3175 44.9933Z" fill="url(#paint0_linear_1077_3394)"/>
<path d="M39.5842 11.9064C38.8402 11.3599 38.0513 10.8586 37.2246 10.4034C36.7693 9.57659 36.268 8.78773 35.7214 8.04371C32.6864 3.9121 28.6361 1.63672 24.3169 1.63672C19.9976 1.63672 15.9473 3.9121 12.9123 8.04371C12.3657 8.78773 11.8645 9.57668 11.4093 10.4034C10.5824 10.8586 9.79359 11.3599 9.04957 11.9064C4.91795 14.9415 2.64258 18.9917 2.64258 23.311C2.64258 27.6303 4.91795 31.6806 9.04957 34.7156C9.79359 35.2622 10.5825 35.7634 11.4093 36.2186C11.8645 37.0454 12.3657 37.8343 12.9123 38.5783C15.9474 42.7099 19.9976 44.9853 24.3169 44.9853C28.6361 44.9853 32.6864 42.7099 35.7214 38.5783C36.268 37.8343 36.7693 37.0454 37.2246 36.2185C38.0513 35.7633 38.8402 35.2621 39.5842 34.7155C43.7158 31.6805 45.9912 27.6302 45.9912 23.3109C45.9912 18.9916 43.7158 14.9415 39.5842 11.9064ZM24.3169 43.965C23.1266 43.965 21.8649 42.1919 20.8674 39.1663C21.9979 39.2993 23.1503 39.3682 24.3169 39.3682C25.4835 39.3682 26.6358 39.2993 27.7663 39.1663C26.7689 42.1919 25.5072 43.965 24.3169 43.965ZM24.3169 38.3479C23.0273 38.3479 21.7652 38.2606 20.5404 38.0951C19.8606 35.6916 19.3671 32.8064 19.0847 29.6564C20.7755 29.7773 22.5297 29.8396 24.3169 29.8396C26.104 29.8396 27.8582 29.7773 29.5491 29.6564C29.2667 32.8064 28.7732 35.6915 28.0935 38.0951C26.8417 38.2638 25.58 38.3483 24.3169 38.3479ZM24.3169 2.65711C25.5072 2.65711 26.7689 4.43027 27.7663 7.45581C26.6358 7.32277 25.4835 7.25386 24.3169 7.25386C23.1503 7.25386 21.9979 7.32277 20.8674 7.45581C21.8649 4.43018 23.1266 2.65711 24.3169 2.65711ZM24.3169 8.27425C25.6066 8.27425 26.8686 8.36156 28.0935 8.52707C28.7732 10.9306 29.2667 13.8157 29.5491 16.9657C27.8582 16.8449 26.104 16.7825 24.3169 16.7825C22.5297 16.7825 20.7756 16.8449 19.0847 16.9657C19.367 13.8157 19.8606 10.9306 20.5404 8.52707C21.7921 8.35834 23.0538 8.27387 24.3169 8.27425ZM18.8086 23.311C18.8086 21.4918 18.8742 19.7089 19.0006 17.9948C20.7148 17.8683 22.4975 17.8027 24.3169 17.8027C26.1361 17.8027 27.9189 17.8683 29.6331 17.9948C29.7596 19.7089 29.8251 21.4917 29.8251 23.311C29.8251 25.1304 29.7596 26.9131 29.6331 28.6272C27.9189 28.7536 26.1361 28.8192 24.3169 28.8192C22.4976 28.8192 20.7148 28.7536 19.0006 28.6272C18.8742 26.9132 18.8086 25.1304 18.8086 23.311ZM17.9715 28.5432C14.8215 28.2609 11.9363 27.7673 9.53284 27.0875C9.36742 25.8627 9.28002 24.6006 9.28002 23.311C9.28002 22.0214 9.36733 20.7594 9.53284 19.5345C11.9363 18.8548 14.8215 18.3612 17.9715 18.0788C17.8506 19.7696 17.7883 21.5239 17.7883 23.311C17.7883 25.0982 17.8505 26.8524 17.9715 28.5432ZM30.6623 18.0789C33.8124 18.3612 36.6975 18.8548 39.101 19.5346C39.2664 20.7595 39.3538 22.0215 39.3538 23.3111C39.3538 24.6007 39.2665 25.8628 39.101 27.0876C36.6975 27.7674 33.8124 28.2609 30.6623 28.5433C30.7832 26.8525 30.8455 25.0983 30.8455 23.3111C30.8455 21.5239 30.7832 19.7697 30.6623 18.0789ZM30.5805 17.0474C30.3118 13.9598 29.8435 11.1127 29.1987 8.6997C31.8595 9.17098 34.3201 10.0183 36.4681 11.1599C37.6097 13.3079 38.457 15.7684 38.9283 18.4292C36.5153 17.7845 33.6681 17.3161 30.5805 17.0474ZM18.0532 17.0474C14.9656 17.3161 12.1185 17.7845 9.70547 18.4292C10.1767 15.7684 11.024 13.3079 12.1657 11.1599C14.3137 10.0183 16.7741 9.17098 19.4349 8.6997C18.7903 11.1127 18.322 13.9598 18.0532 17.0474ZM8.46158 26.7605C5.43604 25.763 3.66288 24.5013 3.66288 23.311C3.66288 22.1207 5.43595 20.859 8.46158 19.8616C8.32863 20.9921 8.25963 22.1444 8.25963 23.311C8.25963 24.4776 8.32863 25.63 8.46158 26.7605ZM18.0532 29.5747C18.3219 32.6623 18.7903 35.5094 19.4349 37.9224C16.7741 37.4511 14.3137 36.6038 12.1657 35.4622C11.024 33.3142 10.1767 30.8538 9.70547 28.193C12.1186 28.8376 14.9657 29.306 18.0532 29.5747ZM30.5805 29.5747C33.6681 29.306 36.5153 28.8376 38.9283 28.193C38.457 30.8538 37.6097 33.3142 36.4681 35.4622C34.3201 36.6039 31.8596 37.4511 29.1987 37.9224C29.8435 35.5094 30.3118 32.6622 30.5805 29.5747ZM40.1722 19.8616C43.1977 20.8591 44.9708 22.1207 44.9708 23.3111C44.9708 24.5014 43.1977 25.7631 40.1722 26.7606C40.3067 25.6157 40.3741 24.4639 40.374 23.3111C40.3742 22.1583 40.3068 21.0065 40.1722 19.8616ZM44.7299 21.0132C43.7315 20.1618 42.1489 19.3965 40.0181 18.7417C39.6471 16.3923 38.9902 14.1539 38.0709 12.1038C41.5595 14.3754 43.9857 17.4948 44.7299 21.0132ZM35.5243 9.55711C33.4741 8.63774 31.2357 7.98093 28.8863 7.60977C28.2315 5.47889 27.4662 3.89631 26.6148 2.89793C30.1332 3.64223 33.2526 6.06841 35.5243 9.55711ZM22.019 2.89802C21.1677 3.8964 20.4024 5.47898 19.7475 7.60986C17.3981 7.98093 15.1597 8.63774 13.1096 9.55711C15.3812 6.06841 18.5006 3.64223 22.019 2.89802ZM10.5629 12.1037C9.6436 14.1539 8.9867 16.3923 8.61563 18.7417C6.48475 19.3965 4.90217 20.1618 3.90379 21.0132C4.648 17.4948 7.07427 14.3754 10.5629 12.1037ZM3.90379 25.6089C4.90217 26.4603 6.48475 27.2256 8.61563 27.8804C8.9867 30.2299 9.6436 32.4683 10.5629 34.5184C7.07427 32.2467 4.648 29.1273 3.90379 25.6089ZM13.1095 37.065C15.1596 37.9844 17.398 38.6412 19.7475 39.0123C20.4023 41.1431 21.1676 42.7257 22.019 43.7241C18.5006 42.9799 15.3812 40.5536 13.1095 37.065ZM26.6147 43.7241C27.4661 42.7257 28.2314 41.1431 28.8862 39.0123C31.2356 38.6412 33.474 37.9843 35.5242 37.065C33.2526 40.5536 30.1332 42.9799 26.6147 43.7241ZM38.0709 34.5184C38.9902 32.4683 39.6471 30.2299 40.0181 27.8805C42.149 27.2257 43.7316 26.4604 44.7299 25.609C43.9857 29.1273 41.5595 32.2467 38.0709 34.5184Z" fill="url(#paint1_linear_1077_3394)"/>
<path d="M16.8597 2.94495C11.431 4.93341 7.01952 9.03075 4.61625 14.2447C4.33141 14.8626 4.19043 15.5371 4.19043 16.2176C4.19045 17.4849 4.69389 18.7003 5.59 19.5965L6.03314 20.0396C7.01646 21.023 8.18383 21.803 9.46861 22.3351C10.7534 22.8673 12.1304 23.1412 13.521 23.1412C13.6215 23.1423 13.7212 23.1235 13.8143 23.0858C13.9074 23.0481 13.9922 22.9923 14.0636 22.9217C14.135 22.851 14.1917 22.7669 14.2304 22.6742C14.2691 22.5815 14.289 22.482 14.289 22.3815C14.289 22.2811 14.2691 22.1816 14.2304 22.0889C14.1917 21.9962 14.135 21.9121 14.0636 21.8414C13.9922 21.7708 13.9074 21.715 13.8143 21.6773C13.7212 21.6396 13.6215 21.6208 13.521 21.6219H11.1858C10.1087 21.6219 9.23555 20.7488 9.23555 19.6716C9.23555 18.5946 10.1086 17.7214 11.1858 17.7214H13.0097C14.0926 17.7214 15.1649 17.5081 16.1654 17.0937C17.1659 16.6793 18.075 16.0719 18.8407 15.3061L21.6569 12.49C22.2702 11.8767 23.1019 11.5322 23.9692 11.5322C24.584 11.5322 25.1864 11.3588 25.7072 11.0321C26.228 10.7053 26.6461 10.2383 26.9135 9.68467C27.5824 8.30016 26.5738 6.6926 25.0362 6.6926H21.4026C20.3344 6.6926 19.4683 5.82663 19.4683 4.75825C19.4682 3.41018 18.1257 2.48125 16.8597 2.94495Z" fill="url(#paint2_linear_1077_3394)"/>
<path d="M45.4955 18.6394C45.1961 17.2759 43.9769 16.3115 42.581 16.3115H37.8906C35.1135 16.3115 32.8623 18.5627 32.8623 21.3398V21.9516C32.8623 24.3907 34.8397 26.3681 37.2788 26.3681C38.519 26.3681 39.5245 27.3735 39.5245 28.6137V34.4777C39.5245 36.0058 41.5086 36.6146 42.3578 35.3442C44.1226 32.7041 45.3231 29.6544 45.787 26.3681C45.9291 25.3554 46.0005 24.334 46.0004 23.3113C46.0003 21.7071 45.8259 20.144 45.4955 18.6394Z" fill="url(#paint3_linear_1077_3394)"/>
<path d="M34.0162 3.91504C35.4786 6.83369 36.3029 10.1276 36.3029 13.6144C36.3029 25.5893 26.5953 35.2971 14.6202 35.2971C11.1334 35.2971 7.83955 34.4728 4.9209 33.0103C8.48094 40.1154 15.8287 44.9937 24.3168 44.9937C36.2918 44.9937 45.9995 35.2861 45.9995 23.311C45.9995 14.8228 41.1213 7.47508 34.0162 3.91504Z" fill="url(#paint4_linear_1077_3394)"/>
<path d="M35.2611 14.3516C34.174 13.2645 31.4716 14.1636 26.3268 18.9688L23.3203 18.5983L22.349 17.5963C21.83 17.0773 20.9884 17.0773 20.4694 17.5963C20.3493 17.7166 20.2536 17.8589 20.1878 18.0156L19.4145 17.2376C18.8954 16.7185 18.0539 16.7185 17.5348 17.2376C17.3677 17.4048 17.2484 17.6138 17.1895 17.8428L16.0267 17.6995C15.7495 17.6653 15.4313 17.7921 15.1908 18.0327L13.2005 20.023C12.9905 20.233 12.9915 20.5356 13.2026 20.6266L19.1922 26.4797C17.446 28.511 15.8505 30.5198 14.6255 32.2509L11.6438 31.8462C11.5241 31.83 11.3857 31.8844 11.2813 31.9888L10.3524 32.9177C10.1731 33.097 10.1571 33.3542 10.3188 33.4581L12.5581 35.631C12.1821 36.4534 12.0785 37.0359 12.3277 37.2851L19.4984 44.4558C21.0797 44.8143 22.6961 44.9949 24.3175 44.9941C35.7162 44.9941 45.06 36.1982 45.9331 25.0236L35.2611 14.3516Z" fill="url(#paint5_linear_1077_3394)"/>
<path d="M18.4746 19.5059C19.2087 19.5059 19.8038 18.9108 19.8038 18.1768C19.8038 17.4427 19.2087 16.8477 18.4746 16.8477C17.7406 16.8477 17.1455 17.4427 17.1455 18.1768C17.1455 18.9108 17.7406 19.5059 18.4746 19.5059Z" fill="url(#paint6_linear_1077_3394)"/>
<path d="M18.4746 19.286C19.0872 19.286 19.5839 18.7894 19.5839 18.1767C19.5839 17.564 19.0872 17.0674 18.4746 17.0674C17.8619 17.0674 17.3652 17.564 17.3652 18.1767C17.3652 18.7894 17.8619 19.286 18.4746 19.286Z" fill="url(#paint7_linear_1077_3394)"/>
<path d="M19.7357 17.7568C19.6705 17.9527 19.5605 18.1306 19.4144 18.2764C18.8953 18.7954 18.0538 18.7954 17.5347 18.2764C17.3886 18.1306 17.2786 17.9527 17.2134 17.7568C17.0598 18.2191 17.1668 18.7491 17.5347 19.117C18.0538 19.6361 18.8953 19.6361 19.4144 19.117C19.7823 18.7491 19.8894 18.2192 19.7357 17.7568Z" fill="url(#paint8_linear_1077_3394)"/>
<path d="M18.4746 19.5059C19.2087 19.5059 19.8038 18.9108 19.8038 18.1768C19.8038 17.4427 19.2087 16.8477 18.4746 16.8477C17.7406 16.8477 17.1455 17.4427 17.1455 18.1768C17.1455 18.9108 17.7406 19.5059 18.4746 19.5059Z" fill="url(#paint9_linear_1077_3394)"/>
<path d="M22.3491 19.476C21.83 19.9951 20.9885 19.9951 20.4694 19.476C19.9503 18.9569 19.9503 18.1154 20.4694 17.5963C20.9885 17.0773 21.83 17.0773 22.3491 17.5963C22.8681 18.1154 22.8681 18.957 22.3491 19.476Z" fill="url(#paint10_linear_1077_3394)"/>
<path d="M21.4091 19.6454C22.0218 19.6454 22.5184 19.1487 22.5184 18.5361C22.5184 17.9234 22.0218 17.4268 21.4091 17.4268C20.7965 17.4268 20.2998 17.9234 20.2998 18.5361C20.2998 19.1487 20.7965 19.6454 21.4091 19.6454Z" fill="url(#paint11_linear_1077_3394)"/>
<path d="M22.6703 18.1152C22.6051 18.3111 22.4951 18.489 22.349 18.6348C21.8299 19.1538 20.9884 19.1538 20.4693 18.6348C20.3232 18.489 20.2131 18.3111 20.148 18.1152C19.9943 18.5775 20.1014 19.1075 20.4693 19.4754C20.9884 19.9945 21.8299 19.9945 22.349 19.4754C22.7169 19.1074 22.824 18.5775 22.6703 18.1152Z" fill="url(#paint12_linear_1077_3394)"/>
<path d="M22.3491 19.476C21.83 19.9951 20.9885 19.9951 20.4694 19.476C19.9503 18.9569 19.9503 18.1154 20.4694 17.5963C20.9885 17.0773 21.83 17.0773 22.3491 17.5963C22.8681 18.1154 22.8681 18.957 22.3491 19.476Z" fill="url(#paint13_linear_1077_3394)"/>
<path d="M31.4356 32.4669C32.1696 32.4669 32.7647 31.8718 32.7647 31.1377C32.7647 30.4037 32.1696 29.8086 31.4356 29.8086C30.7015 29.8086 30.1064 30.4037 30.1064 31.1377C30.1064 31.8718 30.7015 32.4669 31.4356 32.4669Z" fill="url(#paint14_linear_1077_3394)"/>
<path d="M31.4355 32.247C32.0482 32.247 32.5448 31.7503 32.5448 31.1376C32.5448 30.525 32.0482 30.0283 31.4355 30.0283C30.8228 30.0283 30.3262 30.525 30.3262 31.1376C30.3262 31.7503 30.8228 32.247 31.4355 32.247Z" fill="url(#paint15_linear_1077_3394)"/>
<path d="M31.8559 29.8765C31.6601 29.9417 31.4822 30.0517 31.3364 30.1978C30.8173 30.7168 30.8173 31.5584 31.3364 32.0775C31.4821 32.2236 31.6601 32.3336 31.8559 32.3987C31.3937 32.5524 30.8637 32.4454 30.4958 32.0775C29.9767 31.5584 29.9767 30.7168 30.4958 30.1978C30.8637 29.8299 31.3936 29.7229 31.8559 29.8765Z" fill="url(#paint16_linear_1077_3394)"/>
<path d="M31.4356 32.4669C32.1696 32.4669 32.7647 31.8718 32.7647 31.1377C32.7647 30.4037 32.1696 29.8086 31.4356 29.8086C30.7015 29.8086 30.1064 30.4037 30.1064 31.1377C30.1064 31.8718 30.7015 32.4669 31.4356 32.4669Z" fill="url(#paint17_linear_1077_3394)"/>
<path d="M30.1364 27.2633C29.6173 27.7824 29.6173 28.6239 30.1364 29.143C30.6555 29.6621 31.497 29.6621 32.0161 29.143C32.5351 28.6239 32.5351 27.7824 32.0161 27.2633C31.497 26.7443 30.6555 26.7443 30.1364 27.2633Z" fill="url(#paint18_linear_1077_3394)"/>
<path d="M31.0761 29.3124C31.6888 29.3124 32.1854 28.8157 32.1854 28.2031C32.1854 27.5904 31.6888 27.0938 31.0761 27.0938C30.4635 27.0938 29.9668 27.5904 29.9668 28.2031C29.9668 28.8157 30.4635 29.3124 31.0761 29.3124Z" fill="url(#paint19_linear_1077_3394)"/>
<path d="M31.4965 26.9419C31.3007 27.0071 31.1228 27.1171 30.977 27.2632C30.4579 27.7823 30.4579 28.6238 30.977 29.1429C31.1228 29.289 31.3007 29.399 31.4965 29.4642C31.0343 29.6179 30.5043 29.5108 30.1364 29.1429C29.6173 28.6238 29.6173 27.7823 30.1364 27.2632C30.5043 26.8953 31.0342 26.7883 31.4965 26.9419Z" fill="url(#paint20_linear_1077_3394)"/>
<path d="M30.1364 27.2633C29.6173 27.7824 29.6173 28.6239 30.1364 29.143C30.6555 29.6621 31.497 29.6621 32.0161 29.143C32.5351 28.6239 32.5351 27.7824 32.0161 27.2633C31.497 26.7443 30.6555 26.7443 30.1364 27.2633Z" fill="url(#paint21_linear_1077_3394)"/>
<path d="M10.3187 33.4574L13.1677 35.2878L16.0165 32.439L11.6438 31.8456C11.524 31.8294 11.3857 31.8838 11.2812 31.9882L10.3524 32.917C10.1731 33.0964 10.1571 33.3535 10.3187 33.4574Z" fill="url(#paint22_linear_1077_3394)"/>
<path d="M10.6302 32.6396L10.3524 32.9174C10.1731 33.0967 10.1571 33.3539 10.3188 33.4578L13.1677 35.2883L15.3655 33.0905L10.9928 32.497C10.873 32.4807 10.7347 32.5352 10.6302 32.6396Z" fill="url(#paint23_linear_1077_3394)"/>
<path d="M16.1547 39.2935L14.3242 36.4445L17.1731 33.5957L17.7665 37.9684C17.7827 38.0882 17.7283 38.2266 17.624 38.331L16.6951 39.2598C16.5157 39.4391 16.2586 39.4551 16.1547 39.2935Z" fill="url(#paint24_linear_1077_3394)"/>
<path d="M16.9729 38.9824L16.6951 39.2602C16.5158 39.4395 16.2586 39.4555 16.1547 39.2938L14.3242 36.4449L16.522 34.2471L17.1154 38.6198C17.1318 38.7396 17.0773 38.878 16.9729 38.9824Z" fill="url(#paint25_linear_1077_3394)"/>
<path d="M13.2019 20.6258L22.2677 24.5329L27.6672 19.1334L16.026 17.6989C15.7488 17.6647 15.4306 17.7915 15.1901 18.032L13.1998 20.0223C12.9898 20.2322 12.9908 20.5348 13.2019 20.6258Z" fill="url(#paint26_linear_1077_3394)"/>
<path d="M13.9074 19.3152L13.1999 20.0227C12.9898 20.2327 12.9908 20.5354 13.202 20.6263L22.2678 24.5334L26.3845 20.4167L14.7433 18.9821C14.4661 18.9478 14.1479 19.0746 13.9074 19.3152Z" fill="url(#paint27_linear_1077_3394)"/>
<path d="M19.0884 19.5176L14.7433 18.9821C14.4661 18.9479 14.1479 19.0747 13.9074 19.3152L13.1999 20.0227C12.9898 20.2328 12.9908 20.5354 13.202 20.6263L16.5408 22.0652L19.0884 19.5176Z" fill="url(#paint28_linear_1077_3394)"/>
<path d="M13.2019 20.626L22.2677 24.5331L24.1244 22.6764L14.0739 19.1484L13.1999 20.0224C12.9898 20.2324 12.9908 20.535 13.2019 20.626Z" fill="url(#paint29_linear_1077_3394)"/>
<path d="M28.9861 36.4096L25.0791 27.3438L30.4786 21.9443L31.9132 33.5855C31.9474 33.8628 31.8205 34.181 31.58 34.4214L29.5898 36.4116C29.3797 36.6217 29.0771 36.6207 28.9861 36.4096Z" fill="url(#paint30_linear_1077_3394)"/>
<path d="M30.2972 35.7046L29.5897 36.4121C29.3797 36.6222 29.077 36.6212 28.9861 36.4101L25.0791 27.3443L29.1958 23.2275L30.6304 34.8687C30.6646 35.146 30.5378 35.4641 30.2972 35.7046Z" fill="url(#paint31_linear_1077_3394)"/>
<path d="M30.0946 30.5234L30.63 34.8685C30.6642 35.1458 30.5374 35.4639 30.2969 35.7045L29.5894 36.412C29.3793 36.622 29.0767 36.6211 28.9858 36.4099L27.5469 33.0711L30.0946 30.5234Z" fill="url(#paint32_linear_1077_3394)"/>
<path d="M28.9861 36.4099L25.0791 27.3441L26.9359 25.4873L30.4637 35.5379L29.5897 36.4119C29.3797 36.6219 29.0771 36.6209 28.9861 36.4099Z" fill="url(#paint33_linear_1077_3394)"/>
<path d="M28.8924 25.0942C22.5596 31.427 13.5355 38.4923 12.3274 37.2842C11.1194 36.0761 18.1846 27.0522 24.5174 20.7192C30.8503 14.3864 34.0527 13.1427 35.2608 14.3508C36.469 15.5589 35.2253 18.7613 28.8924 25.0942Z" fill="url(#paint34_linear_1077_3394)"/>
<path d="M28.4233 24.9091C22.3996 30.9328 13.915 37.7517 12.8876 36.7242C11.8603 35.6968 18.6792 27.2123 24.7028 21.1886C30.7264 15.165 33.6738 13.8834 34.7011 14.9107C35.7285 15.9381 34.4468 18.8855 28.4233 24.9091Z" fill="url(#paint35_linear_1077_3394)"/>
<path d="M28.8921 25.0949C35.225 18.762 36.4687 15.5596 35.2606 14.3516L12.3271 37.285C13.5353 38.4931 22.5593 31.4278 28.8921 25.0949Z" fill="url(#paint36_linear_1077_3394)"/>
<path d="M29.8671 16.6998C29.4554 17.0587 29.0481 17.4227 28.6455 17.7917C28.5363 17.8916 28.5462 18.0467 28.6643 18.068C29.3944 18.1995 30.0536 18.5193 30.573 19.0387C31.0925 19.5582 31.4123 20.2174 31.5438 20.9475C31.5651 21.0655 31.7201 21.0755 31.8201 20.9663C32.1891 20.5636 32.5531 20.1564 32.912 19.7447C33.1418 19.4807 33.2409 19.1486 33.1664 18.8805C33.0037 18.2949 32.7092 17.7664 32.2773 17.3345C31.8452 16.9024 31.3168 16.608 30.7312 16.4453C30.4632 16.3708 30.1311 16.4699 29.8671 16.6998Z" fill="url(#paint37_linear_1077_3394)"/>
<path d="M32.9121 19.7452C32.6153 20.087 32.2978 20.4433 31.9596 20.8149L31.8207 20.9673C31.7206 21.0764 31.5654 21.0665 31.5438 20.9484C31.413 20.2178 31.0928 19.5584 30.5733 19.0389C30.5426 19.0083 30.5119 18.9785 30.4804 18.9505C30.1115 18.6087 29.6785 18.3615 29.2041 18.2046C29.6307 17.8159 30.0357 17.4533 30.4227 17.1168C30.6869 16.8868 31.0188 16.7876 31.2867 16.8625C31.6051 16.9509 31.9064 17.0781 32.1851 17.2458C32.2166 17.2747 32.2473 17.3044 32.278 17.3351C32.71 17.7672 33.0041 18.2957 33.1664 18.8811C33.2413 19.149 33.1421 19.4809 32.9121 19.7452Z" fill="url(#paint38_linear_1077_3394)"/>
<path d="M31.544 20.9479C31.5653 21.066 31.7204 21.0759 31.8203 20.9668C32.1893 20.5641 32.5533 20.1569 32.9122 19.7452C33.142 19.4812 33.2411 19.1491 33.1666 18.881C33.0039 18.2954 32.7094 17.7669 32.2775 17.335L30.5732 19.0392C31.0927 19.5587 31.4125 20.2179 31.544 20.9479Z" fill="url(#paint39_linear_1077_3394)"/>
<path d="M14.4559 35.3473L14.2653 35.1567C14.1059 34.9973 14.1606 34.6909 14.3842 34.4908L17.6759 31.544C17.8205 31.4146 18.0121 31.3941 18.1152 31.4973C18.2183 31.6004 18.198 31.7921 18.0684 31.9367L15.1217 35.2284C14.9217 35.4519 14.6153 35.5066 14.4559 35.3473Z" fill="url(#paint40_linear_1077_3394)"/>
<path d="M2.88213 42.0815C2.69289 42.0815 2.51079 42.0699 2.33716 42.0471C2.093 42.0149 1.93299 41.7754 1.99883 41.5381L2.17941 40.8863C2.23154 40.6982 2.41031 40.5734 2.6045 40.5924C2.96925 40.6282 3.42168 40.5887 3.94148 40.4751C4.04273 40.453 4.14861 40.4707 4.23717 40.5245C4.32573 40.5784 4.39018 40.6642 4.41717 40.7643L4.59116 41.4104C4.65132 41.6339 4.51107 41.8604 4.28503 41.9107C3.77443 42.0241 3.30397 42.0815 2.88213 42.0815ZM6.11872 40.8931L5.86843 40.2734C5.82886 40.1756 5.82919 40.0663 5.86936 39.9687C5.90953 39.8712 5.98632 39.7933 6.08327 39.7517C6.53696 39.5565 7.01725 39.3282 7.5182 39.0698C7.61248 39.0212 7.72212 39.0116 7.82341 39.0431C7.92471 39.0747 8.00953 39.1448 8.05956 39.2383L8.37398 39.8279C8.39912 39.8753 8.41461 39.9271 8.41956 39.9805C8.42451 40.0338 8.41881 40.0876 8.4028 40.1388C8.38679 40.1899 8.36079 40.2374 8.3263 40.2784C8.29181 40.3194 8.24952 40.3531 8.20189 40.3777C7.66243 40.656 7.14344 40.9025 6.65142 41.1138C6.4437 41.2031 6.2035 41.103 6.11872 40.8931ZM0.650855 40.3762C0.422208 40.4731 0.159286 40.3433 0.100749 40.102C0.0338235 39.8255 0 39.5236 0 39.1994C0 38.8582 0.0374314 38.4849 0.111663 38.0855C0.153965 37.8577 0.377561 37.7105 0.602961 37.7641L1.25382 37.9189C1.35406 37.9426 1.44139 38.0039 1.49787 38.0901C1.55435 38.1763 1.57569 38.2808 1.55751 38.3822C1.50321 38.6813 1.47579 38.9549 1.47579 39.1992C1.47579 39.3691 1.48905 39.5241 1.51511 39.6629C1.53262 39.7536 1.5185 39.8475 1.47512 39.9291C1.43174 40.0106 1.36172 40.0748 1.27673 40.111L0.650855 40.3762ZM9.75903 39.0482L9.41845 38.4733C9.3642 38.382 9.34816 38.273 9.37384 38.17C9.39951 38.067 9.46481 37.9782 9.55555 37.9231C10.0183 37.6424 10.4761 37.3536 10.9288 37.057C11.0179 36.9989 11.1264 36.9783 11.2306 36.9998C11.3348 37.0212 11.4264 37.083 11.4853 37.1716L11.8555 37.7279C11.885 37.7724 11.9054 37.8223 11.9155 37.8747C11.9257 37.9271 11.9253 37.981 11.9145 38.0333C11.9038 38.0855 11.8827 38.1352 11.8527 38.1793C11.8226 38.2234 11.7841 38.2611 11.7394 38.2903C11.2702 38.5977 10.7958 38.8969 10.3162 39.1877C10.2705 39.2155 10.2198 39.2338 10.167 39.2418C10.1142 39.2498 10.0603 39.2472 10.0085 39.2343C9.95666 39.2213 9.90794 39.1982 9.86512 39.1662C9.8223 39.1343 9.78624 39.0942 9.75903 39.0482ZM13.7277 36.9283C13.6843 36.9594 13.6353 36.9816 13.5833 36.9936C13.5314 37.0056 13.4775 37.0073 13.425 36.9984C13.3724 36.9895 13.3221 36.9704 13.2769 36.942C13.2318 36.9136 13.1927 36.8765 13.162 36.833M1.71048 36.4616L1.08677 36.2215C0.875353 36.1402 0.771176 35.9013 0.857494 35.6918C1.06134 35.1973 1.30198 34.6741 1.57636 34.1292C1.67774 33.9278 1.92469 33.8474 2.12466 33.9518L2.71716 34.2608C2.81111 34.3099 2.88198 34.394 2.91445 34.4949C2.94691 34.5959 2.93838 34.7055 2.89069 34.8002C2.63733 35.3038 2.41563 35.7853 2.2282 36.2387C2.18818 36.3361 2.11158 36.4141 2.0148 36.4557C1.91803 36.4974 1.80878 36.4995 1.71048 36.4616ZM3.47074 32.8969L2.89349 32.5604C2.84736 32.5336 2.80702 32.4979 2.77478 32.4553C2.74254 32.4128 2.71906 32.3643 2.70568 32.3126C2.6923 32.261 2.6893 32.2072 2.69684 32.1544C2.70438 32.1015 2.72232 32.0507 2.74963 32.0049L2.76063 31.9864C2.788 31.9405 2.82418 31.9006 2.86709 31.8688C2.90999 31.837 2.95877 31.814 3.0106 31.8012C3.06244 31.7883 3.1163 31.7859 3.16908 31.794C3.22187 31.8021 3.27252 31.8205 3.31813 31.8483L3.88853 32.1964C3.97934 32.2519 4.04456 32.341 4.07003 32.4444C4.0955 32.5477 4.07915 32.6569 4.02455 32.7483L4.0204 32.7552C3.96597 32.8465 3.87767 32.9127 3.77473 32.9392C3.67179 32.9657 3.56254 32.9505 3.47074 32.8969ZM35.9464 13.9972L35.399 13.6141C35.3117 13.5531 35.2521 13.46 35.2331 13.3552C35.2142 13.2504 35.2374 13.1424 35.2978 13.0547C35.6061 12.6082 35.9077 12.1571 36.2026 11.7016C36.2605 11.6124 36.3512 11.5496 36.4551 11.527C36.559 11.5044 36.6676 11.5238 36.7573 11.5809L37.3214 11.9391C37.3665 11.9676 37.4054 12.0049 37.436 12.0486C37.4665 12.0923 37.4882 12.1417 37.4995 12.1938C37.5109 12.2459 37.5119 12.2998 37.5023 12.3523C37.4928 12.4048 37.4729 12.4548 37.4439 12.4996C37.1399 12.9693 36.8289 13.4344 36.511 13.8948C36.4808 13.9387 36.4422 13.9763 36.3974 14.0052C36.3526 14.0342 36.3025 14.054 36.25 14.0636C36.1975 14.0731 36.1437 14.0721 36.0916 14.0607C36.0395 14.0494 35.9901 14.0278 35.9464 13.9972ZM38.148 10.5847L37.5713 10.2472C37.4796 10.1935 37.4128 10.1058 37.3853 10.0032C37.3578 9.90062 37.3719 9.79132 37.4245 9.69903C37.6905 9.23414 37.9444 8.7624 38.1859 8.28431C38.2334 8.1898 38.3163 8.11782 38.4165 8.08391C38.5167 8.05001 38.6263 8.0569 38.7214 8.1031L39.3231 8.39389C39.3714 8.41714 39.4146 8.44976 39.4501 8.48986C39.4856 8.52996 39.5128 8.57673 39.5301 8.62745C39.5474 8.67817 39.5544 8.73181 39.5507 8.78526C39.547 8.83871 39.5327 8.89089 39.5087 8.93877C39.2535 9.44455 38.9851 9.94353 38.7037 10.4352C38.5919 10.6307 38.3423 10.6983 38.148 10.5847ZM39.9639 6.92776L39.3413 6.68522C39.1368 6.60558 39.0348 6.3772 39.1087 6.17065C39.2981 5.64201 39.4334 5.15883 39.5135 4.72688C39.5521 4.51853 39.746 4.37701 39.9565 4.40155L40.6214 4.47929C40.8522 4.50626 41.0137 4.72174 40.9726 4.95039C40.8778 5.47876 40.7165 6.06052 40.4909 6.68838C40.4726 6.73909 40.4443 6.78562 40.4077 6.82523C40.3711 6.86485 40.3269 6.89675 40.2778 6.91905C40.2287 6.94135 40.1756 6.95361 40.1217 6.95511C40.0678 6.9566 40.0142 6.9473 39.9639 6.92776ZM34.465 3.13276L34.1885 2.5242C34.1663 2.47535 34.154 2.42256 34.1524 2.36893C34.1508 2.31529 34.16 2.26187 34.1793 2.2118C34.1985 2.16172 34.2276 2.11599 34.2648 2.07727C34.3019 2.03855 34.3464 2.00761 34.3956 1.98627C34.9779 1.73535 35.5277 1.53124 36.038 1.37628C36.0901 1.36032 36.1449 1.35505 36.199 1.36078C36.2532 1.36651 36.3057 1.38312 36.3533 1.40962C36.4009 1.43612 36.4426 1.47196 36.476 1.51499C36.5094 1.55802 36.5338 1.60736 36.5476 1.66004L36.7172 2.30683C36.7719 2.51582 36.6532 2.73138 36.4465 2.79452C35.9985 2.93135 35.512 3.11255 34.9928 3.33588C34.7909 3.42274 34.5559 3.3329 34.465 3.13276ZM39.8092 3.02939C39.6446 3.09271 39.4544 3.04464 39.3483 2.90375C39.3241 2.87146 39.2976 2.84093 39.269 2.81238C39.0507 2.5942 38.6901 2.48326 38.197 2.48253H38.1832V1.00684V1.74473L38.184 1.43013C38.1846 1.19255 38.3898 1.0044 38.6262 1.02848C39.3272 1.09992 39.8916 1.34814 40.3125 1.76881C40.4413 1.8978 40.5547 2.04134 40.6504 2.19652C40.7826 2.41047 40.6841 2.69269 40.4494 2.78298L39.8092 3.02939Z" fill="url(#paint41_linear_1077_3394)"/>
<path d="M14.9313 8.35186C15.6274 8.35186 16.1917 7.78755 16.1917 7.09146C16.1917 6.39536 15.6274 5.83105 14.9313 5.83105C14.2352 5.83105 13.6709 6.39536 13.6709 7.09146C13.6709 7.78755 14.2352 8.35186 14.9313 8.35186Z" fill="url(#paint42_linear_1077_3394)"/>
<path d="M8.21645 17.6819C8.91255 17.6819 9.47685 17.1176 9.47685 16.4215C9.47685 15.7254 8.91255 15.1611 8.21645 15.1611C7.52035 15.1611 6.95605 15.7254 6.95605 16.4215C6.95605 17.1176 7.52035 17.6819 8.21645 17.6819Z" fill="url(#paint43_linear_1077_3394)"/>
<path d="M42.5827 20.9056C43.2788 20.9056 43.8431 20.3413 43.8431 19.6452C43.8431 18.9491 43.2788 18.3848 42.5827 18.3848C41.8866 18.3848 41.3223 18.9491 41.3223 19.6452C41.3223 20.3413 41.8866 20.9056 42.5827 20.9056Z" fill="url(#paint44_linear_1077_3394)"/>
</g>
<defs>
<linearGradient id="paint0_linear_1077_3394" x1="13.8175" y1="12.8107" x2="40.0975" y2="39.0907" gradientUnits="userSpaceOnUse">
<stop stop-color="#00AEFC"/>
<stop offset="1" stop-color="#3F3CEE"/>
</linearGradient>
<linearGradient id="paint1_linear_1077_3394" x1="27.6309" y1="47.1829" x2="19.8289" y2="-9.01724" gradientUnits="userSpaceOnUse">
<stop stop-color="#00AEFC" stop-opacity="0"/>
<stop offset="1" stop-color="#18CFFC"/>
</linearGradient>
<linearGradient id="paint2_linear_1077_3394" x1="17.5055" y1="14.6193" x2="51.6686" y2="38.8595" gradientUnits="userSpaceOnUse">
<stop stop-color="#E5F3FF"/>
<stop offset="1" stop-color="#B3CCFF"/>
</linearGradient>
<linearGradient id="paint3_linear_1077_3394" x1="36.1549" y1="25.1607" x2="51.4644" y2="27.8541" gradientUnits="userSpaceOnUse">
<stop stop-color="#E5F3FF"/>
<stop offset="1" stop-color="#B3CCFF"/>
</linearGradient>
<linearGradient id="paint4_linear_1077_3394" x1="31.4763" y1="19.0255" x2="47.4139" y2="-12.1119" gradientUnits="userSpaceOnUse">
<stop stop-color="#3F3CEE" stop-opacity="0"/>
<stop offset="1" stop-color="#2F43BC"/>
</linearGradient>
<linearGradient id="paint5_linear_1077_3394" x1="33.7725" y1="35.7964" x2="22.7375" y2="24.7614" gradientUnits="userSpaceOnUse">
<stop stop-color="#3F3CEE" stop-opacity="0"/>
<stop offset="1" stop-color="#2F43BC"/>
</linearGradient>
<linearGradient id="paint6_linear_1077_3394" x1="18.471" y1="17.4476" x2="18.471" y2="19.8821" gradientUnits="userSpaceOnUse">
<stop stop-color="#F9F7FC"/>
<stop offset="1" stop-color="#F0DDFC"/>
</linearGradient>
<linearGradient id="paint7_linear_1077_3394" x1="18.471" y1="18.765" x2="18.471" y2="17.0639" gradientUnits="userSpaceOnUse">
<stop stop-color="#E9EDF5" stop-opacity="0"/>
<stop offset="1" stop-color="white"/>
</linearGradient>
<linearGradient id="paint8_linear_1077_3394" x1="18.1435" y1="18.5441" x2="21.8381" y2="17.4333" gradientUnits="userSpaceOnUse">
<stop stop-color="#F0DDFC" stop-opacity="0"/>
<stop offset="0.289" stop-color="#C8B7E0" stop-opacity="0.289"/>
<stop offset="0.592" stop-color="#A595C8" stop-opacity="0.592"/>
<stop offset="0.84" stop-color="#8F81B8" stop-opacity="0.84"/>
<stop offset="1" stop-color="#8779B3"/>
</linearGradient>
<linearGradient id="paint9_linear_1077_3394" x1="18.5913" y1="17.4786" x2="18.3736" y2="18.6961" gradientUnits="userSpaceOnUse">
<stop stop-color="#F0DDFC" stop-opacity="0"/>
<stop offset="0.289" stop-color="#C8B7E0" stop-opacity="0.289"/>
<stop offset="0.592" stop-color="#A595C8" stop-opacity="0.592"/>
<stop offset="0.84" stop-color="#8F81B8" stop-opacity="0.84"/>
<stop offset="1" stop-color="#8779B3"/>
</linearGradient>
<linearGradient id="paint10_linear_1077_3394" x1="21.4057" y1="17.807" x2="21.4057" y2="20.2415" gradientUnits="userSpaceOnUse">
<stop stop-color="#F9F7FC"/>
<stop offset="1" stop-color="#F0DDFC"/>
</linearGradient>
<linearGradient id="paint11_linear_1077_3394" x1="21.4056" y1="19.1242" x2="21.4056" y2="17.4232" gradientUnits="userSpaceOnUse">
<stop stop-color="#E9EDF5" stop-opacity="0"/>
<stop offset="1" stop-color="white"/>
</linearGradient>
<linearGradient id="paint12_linear_1077_3394" x1="21.0781" y1="18.9024" x2="24.7726" y2="17.7916" gradientUnits="userSpaceOnUse">
<stop stop-color="#F0DDFC" stop-opacity="0"/>
<stop offset="0.289" stop-color="#C8B7E0" stop-opacity="0.289"/>
<stop offset="0.592" stop-color="#A595C8" stop-opacity="0.592"/>
<stop offset="0.84" stop-color="#8F81B8" stop-opacity="0.84"/>
<stop offset="1" stop-color="#8779B3"/>
</linearGradient>
<linearGradient id="paint13_linear_1077_3394" x1="21.5259" y1="17.838" x2="21.3081" y2="19.0555" gradientUnits="userSpaceOnUse">
<stop stop-color="#F0DDFC" stop-opacity="0"/>
<stop offset="0.289" stop-color="#C8B7E0" stop-opacity="0.289"/>
<stop offset="0.592" stop-color="#A595C8" stop-opacity="0.592"/>
<stop offset="0.84" stop-color="#8F81B8" stop-opacity="0.84"/>
<stop offset="1" stop-color="#8779B3"/>
</linearGradient>
<linearGradient id="paint14_linear_1077_3394" x1="32.1582" y1="31.1311" x2="29.7237" y2="31.1312" gradientUnits="userSpaceOnUse">
<stop stop-color="#F9F7FC"/>
<stop offset="1" stop-color="#F0DDFC"/>
</linearGradient>
<linearGradient id="paint15_linear_1077_3394" x1="30.8407" y1="31.1311" x2="32.5418" y2="31.1311" gradientUnits="userSpaceOnUse">
<stop stop-color="#E9EDF5" stop-opacity="0"/>
<stop offset="1" stop-color="white"/>
</linearGradient>
<linearGradient id="paint16_linear_1077_3394" x1="31.0621" y1="31.4587" x2="32.173" y2="27.7641" gradientUnits="userSpaceOnUse">
<stop stop-color="#F0DDFC" stop-opacity="0"/>
<stop offset="0.289" stop-color="#C8B7E0" stop-opacity="0.289"/>
<stop offset="0.592" stop-color="#A595C8" stop-opacity="0.592"/>
<stop offset="0.84" stop-color="#8F81B8" stop-opacity="0.84"/>
<stop offset="1" stop-color="#8779B3"/>
</linearGradient>
<linearGradient id="paint17_linear_1077_3394" x1="32.1273" y1="31.0109" x2="30.9098" y2="31.2287" gradientUnits="userSpaceOnUse">
<stop stop-color="#F0DDFC" stop-opacity="0"/>
<stop offset="0.289" stop-color="#C8B7E0" stop-opacity="0.289"/>
<stop offset="0.592" stop-color="#A595C8" stop-opacity="0.592"/>
<stop offset="0.84" stop-color="#8F81B8" stop-opacity="0.84"/>
<stop offset="1" stop-color="#8779B3"/>
</linearGradient>
<linearGradient id="paint18_linear_1077_3394" x1="31.7989" y1="28.1966" x2="29.3643" y2="28.1966" gradientUnits="userSpaceOnUse">
<stop stop-color="#F9F7FC"/>
<stop offset="1" stop-color="#F0DDFC"/>
</linearGradient>
<linearGradient id="paint19_linear_1077_3394" x1="30.4814" y1="28.1965" x2="32.1824" y2="28.1965" gradientUnits="userSpaceOnUse">
<stop stop-color="#E9EDF5" stop-opacity="0"/>
<stop offset="1" stop-color="white"/>
</linearGradient>
<linearGradient id="paint20_linear_1077_3394" x1="30.7028" y1="28.5241" x2="31.8136" y2="24.8295" gradientUnits="userSpaceOnUse">
<stop stop-color="#F0DDFC" stop-opacity="0"/>
<stop offset="0.289" stop-color="#C8B7E0" stop-opacity="0.289"/>
<stop offset="0.592" stop-color="#A595C8" stop-opacity="0.592"/>
<stop offset="0.84" stop-color="#8F81B8" stop-opacity="0.84"/>
<stop offset="1" stop-color="#8779B3"/>
</linearGradient>
<linearGradient id="paint21_linear_1077_3394" x1="31.768" y1="28.0763" x2="30.5503" y2="28.2941" gradientUnits="userSpaceOnUse">
<stop stop-color="#F0DDFC" stop-opacity="0"/>
<stop offset="0.289" stop-color="#C8B7E0" stop-opacity="0.289"/>
<stop offset="0.592" stop-color="#A595C8" stop-opacity="0.592"/>
<stop offset="0.84" stop-color="#8F81B8" stop-opacity="0.84"/>
<stop offset="1" stop-color="#8779B3"/>
</linearGradient>
<linearGradient id="paint22_linear_1077_3394" x1="13.1413" y1="32.5781" x2="12.8291" y2="34.6651" gradientUnits="userSpaceOnUse">
<stop stop-color="#FFDA45"/>
<stop offset="0.304" stop-color="#FFCE3E"/>
<stop offset="0.856" stop-color="#FFAE2B"/>
<stop offset="1" stop-color="#FFA425"/>
</linearGradient>
<linearGradient id="paint23_linear_1077_3394" x1="12.4224" y1="33.4204" x2="15.5201" y2="30.2557" gradientUnits="userSpaceOnUse">
<stop stop-color="#FFDA45" stop-opacity="0"/>
<stop offset="1" stop-color="#B53759"/>
</linearGradient>
<linearGradient id="paint24_linear_1077_3394" x1="17.0289" y1="36.4623" x2="14.9419" y2="36.7746" gradientUnits="userSpaceOnUse">
<stop stop-color="#FFDA45"/>
<stop offset="0.304" stop-color="#FFCE3E"/>
<stop offset="0.856" stop-color="#FFAE2B"/>
<stop offset="1" stop-color="#FFA425"/>
</linearGradient>
<linearGradient id="paint25_linear_1077_3394" x1="16.187" y1="37.1815" x2="19.3517" y2="34.0838" gradientUnits="userSpaceOnUse">
<stop stop-color="#FFDA45" stop-opacity="0"/>
<stop offset="1" stop-color="#B53759"/>
</linearGradient>
<linearGradient id="paint26_linear_1077_3394" x1="20.8192" y1="18.8838" x2="17.5807" y2="24.2971" gradientUnits="userSpaceOnUse">
<stop stop-color="#FFDA45"/>
<stop offset="0.304" stop-color="#FFCE3E"/>
<stop offset="0.856" stop-color="#FFAE2B"/>
<stop offset="1" stop-color="#FFA425"/>
</linearGradient>
<linearGradient id="paint27_linear_1077_3394" x1="18.2904" y1="22.4165" x2="24.9479" y2="12.4948" gradientUnits="userSpaceOnUse">
<stop stop-color="#FFDA45" stop-opacity="0"/>
<stop offset="1" stop-color="#B53759"/>
</linearGradient>
<linearGradient id="paint28_linear_1077_3394" x1="16.6404" y1="20.6964" x2="19.8575" y2="24.7309" gradientUnits="userSpaceOnUse">
<stop stop-color="#F0DDFC" stop-opacity="0"/>
<stop offset="0.289" stop-color="#C8B7E0" stop-opacity="0.289"/>
<stop offset="0.592" stop-color="#A595C8" stop-opacity="0.592"/>
<stop offset="0.84" stop-color="#8F81B8" stop-opacity="0.84"/>
<stop offset="1" stop-color="#8779B3"/>
</linearGradient>
<linearGradient id="paint29_linear_1077_3394" x1="18.4367" y1="21.7094" x2="17.0918" y2="24.207" gradientUnits="userSpaceOnUse">
<stop stop-color="#FFDA45" stop-opacity="0"/>
<stop offset="1" stop-color="#B53759"/>
</linearGradient>
<linearGradient id="paint30_linear_1077_3394" x1="30.7216" y1="28.7822" x2="25.3083" y2="32.0208" gradientUnits="userSpaceOnUse">
<stop stop-color="#FFDA45"/>
<stop offset="0.304" stop-color="#FFCE3E"/>
<stop offset="0.856" stop-color="#FFAE2B"/>
<stop offset="1" stop-color="#FFA425"/>
</linearGradient>
<linearGradient id="paint31_linear_1077_3394" x1="27.8404" y1="30.8747" x2="37.7621" y2="24.2173" gradientUnits="userSpaceOnUse">
<stop stop-color="#FFDA45" stop-opacity="0"/>
<stop offset="1" stop-color="#B53759"/>
</linearGradient>
<linearGradient id="paint32_linear_1077_3394" x1="29.2876" y1="33.2632" x2="25.2531" y2="30.0462" gradientUnits="userSpaceOnUse">
<stop stop-color="#FFDA45" stop-opacity="0"/>
<stop offset="1" stop-color="#B53759"/>
</linearGradient>
<linearGradient id="paint33_linear_1077_3394" x1="27.8962" y1="31.165" x2="25.3987" y2="32.5099" gradientUnits="userSpaceOnUse">
<stop stop-color="#FFDA45" stop-opacity="0"/>
<stop offset="1" stop-color="#B53759"/>
</linearGradient>
<linearGradient id="paint34_linear_1077_3394" x1="22.9105" y1="24.9362" x2="25.6484" y2="27.6741" gradientUnits="userSpaceOnUse">
<stop stop-color="#E5F3FF"/>
<stop offset="1" stop-color="#B3CCFF"/>
</linearGradient>
<linearGradient id="paint35_linear_1077_3394" x1="24.8078" y1="26.7237" x2="20.912" y2="23.2451" gradientUnits="userSpaceOnUse">
<stop stop-color="#E5F3FF" stop-opacity="0"/>
<stop offset="1" stop-color="white"/>
</linearGradient>
<linearGradient id="paint36_linear_1077_3394" x1="23.5822" y1="29.3277" x2="29.6446" y2="-12.9915" gradientUnits="userSpaceOnUse">
<stop stop-color="#B3CCFF" stop-opacity="0"/>
<stop offset="1" stop-color="#9FB0CB"/>
</linearGradient>
<linearGradient id="paint37_linear_1077_3394" x1="30.0733" y1="17.0166" x2="32.4577" y2="20.7634" gradientUnits="userSpaceOnUse">
<stop stop-color="#8B788A"/>
<stop offset="1" stop-color="#6E566E"/>
</linearGradient>
<linearGradient id="paint38_linear_1077_3394" x1="31.293" y1="18.9154" x2="30.6616" y2="16.7282" gradientUnits="userSpaceOnUse">
<stop stop-color="#8B788A" stop-opacity="0"/>
<stop offset="1" stop-color="#9E8C92"/>
</linearGradient>
<linearGradient id="paint39_linear_1077_3394" x1="31.7665" y1="19.3966" x2="33.265" y2="15.5404" gradientUnits="userSpaceOnUse">
<stop stop-color="#555A66" stop-opacity="0"/>
<stop offset="1" stop-color="#555A66"/>
</linearGradient>
<linearGradient id="paint40_linear_1077_3394" x1="16.1659" y1="33.3049" x2="16.4905" y2="33.6295" gradientUnits="userSpaceOnUse">
<stop stop-color="#E5F3FF"/>
<stop offset="1" stop-color="#B3CCFF"/>
</linearGradient>
<linearGradient id="paint41_linear_1077_3394" x1="0" y1="21.5441" x2="40.979" y2="21.5441" gradientUnits="userSpaceOnUse">
<stop stop-color="#FF7044"/>
<stop offset="1" stop-color="#F92814"/>
</linearGradient>
<linearGradient id="paint42_linear_1077_3394" x1="14.8336" y1="6.99386" x2="16.2219" y2="8.38207" gradientUnits="userSpaceOnUse">
<stop stop-color="#FF7044"/>
<stop offset="1" stop-color="#F92814"/>
</linearGradient>
<linearGradient id="paint43_linear_1077_3394" x1="7.68331" y1="15.8884" x2="9.19734" y2="17.4025" gradientUnits="userSpaceOnUse">
<stop stop-color="#92F37F"/>
<stop offset="1" stop-color="#4AB272"/>
</linearGradient>
<linearGradient id="paint44_linear_1077_3394" x1="41.8047" y1="18.8672" x2="43.9769" y2="21.0394" gradientUnits="userSpaceOnUse">
<stop stop-color="#92F37F"/>
<stop offset="1" stop-color="#4AB272"/>
</linearGradient>
<clipPath id="clip0_1077_3394">
<rect width="46" height="46" fill="white"/>
</clipPath>
</defs>
</svg>
