<svg width="78" height="78" viewBox="0 0 78 78" fill="none" xmlns="http://www.w3.org/2000/svg">
<g id="Search results for Time - Flaticon-12 1">
<g id="Group">
<path id="Vector" d="M1.93461 45.0704L10.6025 64.8946C12.8921 67.5766 15.5483 69.9225 18.4927 71.863L59.4765 71.8829C69.6234 65.2115 76.3238 53.7269 76.3238 40.6756C76.3238 39.5928 76.275 38.5215 76.1845 37.4621L68.3086 17.5648C61.4736 8.90815 50.8859 3.35156 38.9998 3.35156C18.3864 3.35156 1.67578 20.0621 1.67578 40.6756C1.67578 42.1628 1.76551 43.6287 1.93461 45.0704Z" fill="#65340A"/>
<path id="Vector_2" d="M45.5831 39.7423C51.7324 35.1522 56.7959 24.3137 59.5858 10.1895H18.3789C21.1688 24.3137 26.2324 35.1522 32.3816 39.7423C33.4238 40.5203 33.4238 42.0971 32.3816 42.8753C26.3146 47.404 21.3048 58.0152 18.4924 71.8629C18.7843 72.0553 19.0789 72.2438 19.3765 72.4281H58.6226C58.9096 72.2503 59.1943 72.0686 59.4764 71.883C56.6647 58.0254 51.6531 47.4061 45.5831 42.8753C44.5409 42.0971 44.5409 40.5203 45.5831 39.7423Z" fill="#E9EFFF"/>
<path id="Vector_3" d="M33.6747 71.8724C32.3497 70.6341 32.6715 68.3136 32.6715 68.3136C33.767 60.093 37.5261 55.8426 38.6577 54.7287C38.7467 54.6415 38.8081 54.53 38.834 54.4081C38.86 54.2862 38.8493 54.1593 38.8035 54.0434C38.2688 52.7039 38.7665 51.5904 39.1793 50.9761C39.3629 50.7028 39.2969 50.3403 39.0446 50.1287C38.1982 49.4193 38.3337 48.2979 38.3337 48.2979L38.9615 44.1586C38.9855 44.0022 38.9499 43.8424 38.8618 43.7109C37.6411 41.8978 38.3885 40.3345 38.7919 39.7169C38.9049 39.5438 38.9346 39.3263 38.8554 39.1354C38.4161 38.0767 38.6725 36.9857 38.8588 36.4404C38.8964 36.3305 38.9033 36.2124 38.8786 36.0988C38.8539 35.9853 38.7987 35.8807 38.7188 35.7963C35.6938 32.598 35.7427 29.6654 34.0156 27.2619C32.8968 25.7047 33.1855 24.5501 33.5536 23.9077C33.5966 23.8335 33.6244 23.7514 33.6353 23.6662C33.6461 23.5811 33.6399 23.4946 33.6168 23.412C33.5937 23.3293 33.5543 23.2521 33.501 23.1849C33.4476 23.1177 33.3813 23.0618 33.306 23.0206C31.3242 21.9222 30.84 19.4439 30.796 19.1951C30.7933 19.1799 30.79 19.1648 30.7861 19.1499L29.8784 15.6202C29.142 12.7558 31.6694 11.0805 32.679 10.5377C32.8178 10.4627 32.9235 10.3385 32.9754 10.1895H18.3789C21.1689 24.3137 26.2322 35.1522 32.3816 39.7423C33.4238 40.5203 33.4238 42.0971 32.3816 42.8753C26.3146 47.404 21.3048 58.0152 18.4924 71.8629C18.7843 72.0553 19.0789 72.2438 19.3765 72.4281H33.8675C33.883 72.3268 33.8736 72.2232 33.8399 72.1264C33.8063 72.0295 33.7496 71.9423 33.6747 71.8724Z" fill="#BEC8F7"/>
<path id="Vector_4" d="M52.3757 61.3831C53.0085 63.1833 53.5975 65.0958 54.1351 67.1068C54.298 67.7155 53.8382 68.3142 53.2081 68.3142H24.7579C24.1278 68.3142 23.668 67.7155 23.8309 67.1068C24.3772 65.0638 24.9764 63.1222 25.6206 61.297C25.9821 60.2728 26.8755 59.5248 27.951 59.3739C30.1103 59.0709 33.9295 58.1374 36.8056 55.2607C37.9512 54.1149 39.8311 54.1457 40.9208 55.3448C42.5137 57.0976 45.2757 59.0284 49.8617 59.4398C51.0098 59.5426 51.9935 60.2956 52.3757 61.3831Z" fill="#FFDD40"/>
<path id="Vector_5" d="M38.8297 54.4248C38.0983 54.4247 37.3645 54.7015 36.8057 55.2604C33.9296 58.1373 30.1105 59.0708 27.9511 59.3737C26.8754 59.5247 25.9822 60.2725 25.6207 61.2967C24.9763 63.1221 24.3771 65.0636 23.8308 67.1065C23.6681 67.7153 24.1278 68.314 24.7579 68.314H32.6718C33.7673 60.0934 37.5264 55.843 38.658 54.729C38.7425 54.6456 38.802 54.5402 38.8297 54.4248Z" fill="#FFB332"/>
<path id="Vector_6" d="M38.4118 44.2303L36.8689 46.8131C35.8884 48.4543 37.0709 50.5382 38.9828 50.5382C40.8945 50.5382 42.077 48.4545 41.0967 46.8131L39.5538 44.2303C39.2957 43.7982 38.6699 43.7982 38.4118 44.2303Z" fill="#FFDD40"/>
<path id="Vector_7" d="M39.0446 50.1291C38.1982 49.4198 38.3336 48.2984 38.3336 48.2984L38.9615 44.1591C38.9737 44.0753 38.9692 43.99 38.948 43.908C38.839 43.9129 38.7328 43.9449 38.6392 44.0011C38.5455 44.0573 38.4674 44.1359 38.4118 44.2299L36.8689 46.8127C35.8884 48.4539 37.0709 50.5379 38.9828 50.5379C39.0817 50.5379 39.1782 50.531 39.2732 50.5202C39.245 50.3671 39.1641 50.2288 39.0446 50.1291ZM49.8868 25.2808C49.6468 24.9041 49.3221 24.5887 48.9384 24.3599C46.9568 23.1842 43.3732 22.1421 38.9814 25.6816C38.9491 25.7077 38.9171 25.7317 38.885 25.7573C38.9176 25.7832 38.95 25.8076 38.9826 25.834C44.5307 30.3055 48.7878 27.466 50.1558 26.2818C50.1569 25.9302 50.064 25.5846 49.8868 25.2808Z" fill="#FFB332"/>
<path id="Vector_8" d="M50.1513 26.1335C48.7773 27.3205 44.5237 30.1473 38.9828 25.6816C34.4552 22.0324 30.7863 23.2532 28.8462 24.4694C27.9187 25.0507 27.5828 26.2483 28.0593 27.2338C30.0955 31.4442 32.4083 34.6278 34.8433 36.4456C35.4058 36.8663 35.8901 37.3822 36.2744 37.9701C37.5543 39.9236 40.4101 39.9253 41.6913 37.97C42.0757 37.3821 42.5601 36.8661 43.1226 36.4454C45.5732 34.6161 47.8995 31.4018 49.9452 27.1511C50.1295 26.7762 50.1726 26.429 50.1513 26.1335Z" fill="#FFDD40"/>
<path id="Vector_9" d="M34.8434 36.4459C35.4058 36.8665 35.8902 37.3825 36.2744 37.9704C36.8966 38.9199 37.8911 39.4068 38.8961 39.4335C38.9083 39.3324 38.8944 39.2299 38.8557 39.1358C38.6765 38.7041 38.613 38.2668 38.6135 37.8636C38.6145 36.5528 38.1685 35.2832 37.4273 34.202C35.6601 31.624 35.4517 29.2603 34.016 27.2623C32.8972 25.7052 33.1859 24.5506 33.554 23.9081C33.6093 23.8124 33.6389 23.7041 33.64 23.5935C33.6411 23.483 33.6136 23.3741 33.5602 23.2773C31.5513 23.1112 29.9293 23.7907 28.8463 24.4695C27.9189 25.0509 27.5827 26.2481 28.0592 27.2335C30.0956 31.4441 32.4082 34.6281 34.8434 36.4459Z" fill="#FFB332"/>
<path id="Vector_10" d="M70.3617 20.435C69.7231 19.4467 69.0382 18.4892 68.3094 17.5654C62.9024 18.2757 58.7275 22.8982 58.7275 28.499C58.7275 34.5915 63.6665 39.5305 69.7591 39.5305C72.1576 39.5305 74.3752 38.7627 76.1852 37.4627C76.085 36.2883 75.9292 35.1192 75.7184 33.9594L70.3617 20.435Z" fill="#42C3FC"/>
<path id="Vector_11" d="M75.1351 38.1302C73.6714 37.8316 73.5485 36.7612 73.6243 36.0939C73.6417 35.9368 73.6063 35.7784 73.5237 35.6437C73.441 35.509 73.3158 35.4057 73.1679 35.35C69.827 34.0836 70.1238 31.2358 70.2708 30.4691C70.2963 30.3348 70.2821 30.1959 70.2299 30.0695L69.1993 27.5482C69.1637 27.4608 69.1109 27.3815 69.0441 27.3148C68.9774 27.2481 68.898 27.1954 68.8106 27.1599C66.0129 26.0254 65.7274 23.1567 65.7335 21.9793C65.735 21.6944 65.5614 21.4394 65.3 21.326C63.9548 20.7426 64.317 18.9682 64.3318 18.8984C60.9868 20.7924 58.7275 24.3798 58.7275 28.4984C58.7275 34.5909 63.6665 39.5299 69.7591 39.5299C71.7118 39.5299 73.5445 39.0208 75.1351 38.1302Z" fill="#1AA9E8"/>
<path id="Vector_12" d="M8.24114 43.0879C5.89536 43.0879 3.72232 43.8222 1.93457 45.0705C2.0674 46.2011 2.25203 47.3251 2.48788 48.4388L8.505 62.1974C9.16282 63.1279 9.86271 64.0279 10.6025 64.8947C15.5599 63.813 19.2725 59.4009 19.2725 54.1191C19.2725 48.0269 14.3337 43.0879 8.24114 43.0879Z" fill="#FF4155"/>
<path id="Vector_13" d="M12.9626 61.0754C12.9991 60.8192 12.8335 60.577 12.579 60.5294C8.86484 59.8357 8.88403 56.7355 8.94299 55.9957C8.95159 55.8888 8.92448 55.7821 8.86591 55.6922L7.19713 53.1281C7.13254 53.0307 7.03565 52.9592 6.92352 52.9263C3.63107 51.9255 4.13563 48.5392 4.42768 47.3418C4.48343 47.113 4.36994 46.8734 4.15254 46.7826C2.69873 46.1758 2.99001 44.9168 3.15073 44.4651C3.16657 44.4188 3.17515 44.3703 3.17617 44.3213C2.74641 44.5436 2.33166 44.7938 1.93457 45.0702C2.0674 46.2009 2.25203 47.3248 2.48788 48.4385L8.505 62.1971C9.16278 63.1277 9.86266 64.0277 10.6025 64.8944C11.9624 64.5973 13.2533 64.0442 14.4065 63.2646C12.9486 62.816 12.8718 61.7112 12.9626 61.0754Z" fill="#E80054"/>
<path id="Vector_14" d="M70.3595 20.4308C70.1595 20.4152 69.959 20.407 69.7584 20.4062C65.2891 20.4062 61.666 24.0293 61.666 28.4986C61.666 32.9679 65.2891 36.5911 69.7584 36.5911C72.1186 36.5911 74.2421 35.5801 75.7214 33.9682C74.8294 29.0527 72.9745 24.4731 70.3595 20.4308Z" fill="#E9EFFF"/>
<path id="Vector_15" d="M73.5299 35.6578C73.4477 35.517 73.3197 35.4085 73.1672 35.3506C69.8263 34.0841 70.1231 31.2364 70.2701 30.4696C70.2956 30.3353 70.2814 30.1964 70.2293 30.07L69.1987 27.5487C69.163 27.4614 69.1102 27.382 69.0435 27.3153C68.9767 27.2486 68.8973 27.196 68.8099 27.1604C66.0122 26.0259 65.7267 23.1573 65.7328 21.9798C65.7329 21.8285 65.6837 21.6813 65.5927 21.5605C63.2402 22.976 61.666 25.5533 61.666 28.4989C61.666 32.9682 65.2891 36.5914 69.7584 36.5914C71.0729 36.5928 72.3678 36.2723 73.5299 35.6578Z" fill="#DAE2FE"/>
<path id="Vector_16" d="M73.6513 31.2699C73.5014 31.2698 73.3529 31.2402 73.2144 31.1826L71.0202 30.2737C70.8815 30.2163 70.7556 30.1321 70.6494 30.026C70.5433 29.9199 70.4591 29.7939 70.4017 29.6552C70.3442 29.5166 70.3147 29.368 70.3147 29.2179C70.3147 29.0678 70.3442 28.9192 70.4017 28.7806C70.4591 28.6419 70.5432 28.5158 70.6493 28.4097C70.7555 28.3035 70.8815 28.2193 71.0201 28.1619C71.1588 28.1044 71.3075 28.0749 71.4576 28.0749C71.6077 28.0749 71.7563 28.1046 71.895 28.1621L74.0892 29.0709C74.3336 29.1721 74.5354 29.3549 74.6601 29.5882C74.7848 29.8214 74.8247 30.0907 74.7731 30.3502C74.7214 30.6096 74.5814 30.8431 74.3768 31.0108C74.1722 31.1785 73.9158 31.2701 73.6513 31.2699ZM69.7591 27.7797C69.456 27.7797 69.1653 27.6593 68.951 27.4449C68.7366 27.2306 68.6162 26.9399 68.6162 26.6368V23.1058C68.6162 22.4745 69.1279 21.9629 69.7591 21.9629C70.3903 21.9629 70.902 22.4745 70.902 23.1058V26.6368C70.902 26.9399 70.7816 27.2306 70.5672 27.4449C70.3529 27.6593 70.0622 27.7797 69.7591 27.7797Z" fill="#BEC8F7"/>
<path id="Vector_17" d="M8.24136 46.0273C5.98911 46.0273 3.95242 46.9481 2.48535 48.433C3.551 53.4742 5.63277 58.14 8.50857 62.2055C12.8539 62.0643 16.3337 58.4996 16.3337 54.1198C16.3337 49.6505 12.7107 46.0273 8.24136 46.0273Z" fill="#E9EFFF"/>
<path id="Vector_18" d="M12.8901 60.7419C12.8558 60.687 12.8104 60.6397 12.7569 60.6032C12.7034 60.5667 12.6429 60.5416 12.5792 60.5297C8.86505 59.8359 8.88425 56.7357 8.9432 55.9959C8.95181 55.889 8.9247 55.7823 8.86612 55.6925L7.19734 53.1284C7.13275 53.031 7.03586 52.9595 6.92374 52.9265C3.63128 51.9258 4.13584 48.5395 4.42789 47.342C4.45567 47.2279 4.44156 47.1076 4.38813 47.0029C3.68718 47.3836 3.04606 47.8652 2.48535 48.4325C3.551 53.4737 5.63277 58.1396 8.50857 62.205C10.0806 62.1556 11.6038 61.647 12.8901 60.7419Z" fill="#DAE2FE"/>
<path id="Vector_19" d="M12.4783 55.2624H10.1033C9.47215 55.2624 8.96043 54.7508 8.96043 54.1195C8.96043 53.4882 9.47215 52.9767 10.1033 52.9767H12.4783C13.1095 52.9767 13.6212 53.4882 13.6212 54.1195C13.6212 54.7508 13.1095 55.2624 12.4783 55.2624ZM8.24152 53.4008C8.09143 53.4008 7.94281 53.3712 7.80415 53.3138C7.66549 53.2563 7.5395 53.1722 7.43338 53.066C7.32725 52.9599 7.24306 52.8339 7.18563 52.6953C7.12819 52.5566 7.09863 52.408 7.09863 52.2579V48.7269C7.09863 48.0956 7.61036 47.584 8.24152 47.584C8.87268 47.584 9.3844 48.0956 9.3844 48.7269V52.2579C9.3844 52.408 9.35484 52.5566 9.2974 52.6953C9.23997 52.8339 9.15578 52.9599 9.04966 53.066C8.94353 53.1722 8.81754 53.2563 8.67888 53.3138C8.54022 53.3712 8.3916 53.4008 8.24152 53.4008Z" fill="#BEC8F7"/>
<path id="Vector_20" d="M6.89749 30.2194H2.70636C2.0752 30.2194 1.56348 29.7078 1.56348 29.0765C1.56348 28.4452 2.0752 27.9336 2.70636 27.9336H6.89749C7.52865 27.9336 8.04037 28.4452 8.04037 29.0765C8.04037 29.7078 7.52865 30.2194 6.89749 30.2194Z" fill="#FF7186"/>
<path id="Vector_21" d="M12.2528 38.1159H2.70636C2.0752 38.1159 1.56348 37.6043 1.56348 36.973C1.56348 36.3417 2.0752 35.8301 2.70636 35.8301H12.2528C12.884 35.8301 13.3957 36.3417 13.3957 36.973C13.3957 37.6043 12.884 38.1159 12.2528 38.1159ZM12.2528 34.1676H2.70636C2.0752 34.1676 1.56348 33.656 1.56348 33.0247C1.56348 32.3934 2.0752 31.8818 2.70636 31.8818H12.2528C12.884 31.8818 13.3957 32.3934 13.3957 33.0247C13.3957 33.656 12.884 34.1676 12.2528 34.1676Z" fill="#FF4155"/>
<path id="Vector_22" d="M69.9385 45.9215H65.7474C65.1162 45.9215 64.6045 45.4099 64.6045 44.7786C64.6045 44.1473 65.1162 43.6357 65.7474 43.6357H69.9385C70.5697 43.6357 71.0814 44.1473 71.0814 44.7786C71.0814 45.4099 70.5697 45.9215 69.9385 45.9215Z" fill="#8AE1FF"/>
<path id="Vector_23" d="M75.2938 53.8182H65.7474C65.1162 53.8182 64.6045 53.3066 64.6045 52.6753C64.6045 52.044 65.1162 51.5324 65.7474 51.5324H75.2938C75.597 51.5324 75.8876 51.6528 76.102 51.8672C76.3163 52.0815 76.4367 52.3722 76.4367 52.6753C76.4367 52.9784 76.3163 53.2691 76.102 53.4835C75.8876 53.6978 75.597 53.8182 75.2938 53.8182ZM75.2938 49.8697H65.7474C65.1162 49.8697 64.6045 49.3582 64.6045 48.7269C64.6045 48.0956 65.1162 47.584 65.7474 47.584H75.2938C75.925 47.584 76.4367 48.0956 76.4367 48.7269C76.4367 49.3582 75.9252 49.8697 75.2938 49.8697Z" fill="#42C3FC"/>
<path id="Vector_24" d="M71.6201 28.4985C71.6201 29.5267 70.7864 30.3603 69.7583 30.3603C68.7301 30.3603 67.8965 29.5267 67.8965 28.4985C67.8965 27.4703 68.7301 26.6367 69.7583 26.6367C70.7866 26.6369 71.6201 27.4703 71.6201 28.4985Z" fill="#1AA9E8"/>
<path id="Vector_25" d="M10.1035 54.1196C10.1035 55.1479 9.26984 55.9814 8.24168 55.9814C7.21336 55.9814 6.37988 55.1479 6.37988 54.1196C6.37988 53.0914 7.21351 52.2578 8.24168 52.2578C9.26984 52.2578 10.1035 53.0913 10.1035 54.1196Z" fill="#E80054"/>
<path id="Vector_26" d="M57.9975 4.22312C57.7706 1.85326 55.7748 0 53.3456 0H24.6547C22.2256 0 20.2298 1.85326 20.0029 4.22312H57.9975Z" fill="#C04A27"/>
<path id="Vector_27" d="M33.4949 0H24.6549C22.2256 0 20.2299 1.85326 20.0029 4.22312H33.5242C31.4345 3.71688 31.3585 0.501973 33.4949 0Z" fill="#9B2B15"/>
<path id="Vector_28" d="M59.0971 10.3419H18.9034C17.1554 10.3419 15.7383 8.9248 15.7383 7.17681C15.7383 5.42882 17.1552 4.01172 18.9034 4.01172H59.0971C60.8451 4.01172 62.2622 5.42882 62.2622 7.17681C62.2622 8.92496 60.8451 10.3419 59.0971 10.3419Z" fill="#D85E41"/>
<path id="Vector_29" d="M29.913 7.17681C29.913 5.42882 31.3299 4.01172 33.0779 4.01172H18.9034C17.1552 4.01172 15.7383 5.42882 15.7383 7.17681C15.7383 8.9248 17.1552 10.3419 18.9034 10.3419H33.0779C31.3301 10.3419 29.913 8.92496 29.913 7.17681Z" fill="#C04A27"/>
<path id="Vector_30" d="M19.1328 72.2764C24.8864 75.9012 31.6977 78.0004 39.0001 78.0004C46.3026 78.0004 53.1138 75.9012 58.8674 72.2764H19.1328Z" fill="#D85E41"/>
<path id="Vector_31" d="M33.7808 77.6361C31.8319 75.3959 32.9367 73.5974 33.7042 72.7697C33.7652 72.7038 33.8116 72.6256 33.8402 72.5404C33.8688 72.4552 33.8791 72.3648 33.8702 72.2754H19.1328C23.4905 75.0211 28.4555 76.8903 33.7808 77.6361Z" fill="#C04A27"/>
</g>
</g>
</svg>
