<svg width="24" height="25" viewBox="0 0 24 25" fill="none" xmlns="http://www.w3.org/2000/svg">
<g id="vuesax/linear/bus">
<g id="bus">
<path id="Vector" d="M16.9 22.5H7.10001C5.40001 22.5 4 21.11 4 19.4V5.60001C4 3.90001 5.39001 2.5 7.10001 2.5H16.9C18.6 2.5 20 3.89001 20 5.60001V19.4C20 21.11 18.61 22.5 16.9 22.5Z" stroke="#5F6E91" stroke-width="1.5" stroke-linecap="round" stroke-linejoin="round"/>
<path id="Vector_2" d="M18.5 13.5H5.5C4.67 13.5 4 12.83 4 12V10C4 9.17 4.67 8.5 5.5 8.5H18.5C19.33 8.5 20 9.17 20 10V12C20 12.83 19.33 13.5 18.5 13.5Z" stroke="#5F6E91" stroke-width="1.5" stroke-linecap="round" stroke-linejoin="round"/>
<path id="Vector_3" d="M8.49451 18.1992H8.50349" stroke="#5F6E91" stroke-width="2.5" stroke-linecap="round" stroke-linejoin="round"/>
<path id="Vector_4" d="M15.4945 18.1992H15.5035" stroke="#5F6E91" stroke-width="2.5" stroke-linecap="round" stroke-linejoin="round"/>
<path id="Vector_5" d="M9.5 5.5H14.5" stroke="#5F6E91" stroke-width="1.5" stroke-linecap="round" stroke-linejoin="round"/>
</g>
</g>
</svg>
