<svg width="42" height="42" viewBox="0 0 42 42" fill="none" xmlns="http://www.w3.org/2000/svg">
<rect width="42" height="42" rx="21" fill="#D49836"/>
<path d="M20.05 23.95L18.2 25.8C17.81 26.19 17.19 26.19 16.79 25.81C16.68 25.7 16.57 25.6 16.46 25.49C15.43 24.45 14.5 23.36 13.67 22.22C12.85 21.08 12.19 19.94 11.71 18.81C11.24 17.67 11 16.58 11 15.54C11 14.86 11.12 14.21 11.36 13.61C11.6 13 11.98 12.44 12.51 11.94C13.15 11.31 13.85 11 14.59 11C14.87 11 15.15 11.06 15.4 11.18C15.66 11.3 15.89 11.48 16.07 11.74L18.39 15.01C18.57 15.26 18.7 15.49 18.79 15.71C18.88 15.92 18.93 16.13 18.93 16.32C18.93 16.56 18.86 16.8 18.72 17.03C18.59 17.26 18.4 17.5 18.16 17.74L17.4 18.53C17.29 18.64 17.24 18.77 17.24 18.93C17.24 19.01 17.25 19.08 17.27 19.16C17.3 19.24 17.33 19.3 17.35 19.36C17.53 19.69 17.84 20.12 18.28 20.64C18.73 21.16 19.21 21.69 19.73 22.22C19.83 22.32 19.94 22.42 20.04 22.52C20.44 22.91 20.45 23.55 20.05 23.95Z" fill="white"/>
<path d="M30.9696 27.3291C30.9696 27.6091 30.9196 27.8991 30.8196 28.1791C30.7896 28.2591 30.7596 28.3391 30.7196 28.4191C30.5496 28.7791 30.3296 29.1191 30.0396 29.4391C29.5496 29.9791 29.0096 30.3691 28.3996 30.6191C28.3896 30.6191 28.3796 30.6291 28.3696 30.6291C27.7796 30.8691 27.1396 30.9991 26.4496 30.9991C25.4296 30.9991 24.3396 30.7591 23.1896 30.2691C22.0396 29.7791 20.8896 29.1191 19.7496 28.2891C19.3596 27.9991 18.9696 27.7091 18.5996 27.3991L21.8696 24.1291C22.1496 24.3391 22.3996 24.4991 22.6096 24.6091C22.6596 24.6291 22.7196 24.6591 22.7896 24.6891C22.8696 24.7191 22.9496 24.7291 23.0396 24.7291C23.2096 24.7291 23.3396 24.6691 23.4496 24.5591L24.2096 23.8091C24.4596 23.5591 24.6996 23.3691 24.9296 23.2491C25.1596 23.1091 25.3896 23.0391 25.6396 23.0391C25.8296 23.0391 26.0296 23.0791 26.2496 23.1691C26.4696 23.2591 26.6996 23.3891 26.9496 23.5591L30.2596 25.9091C30.5196 26.0891 30.6996 26.2991 30.8096 26.5491C30.9096 26.7991 30.9696 27.0491 30.9696 27.3291Z" fill="white"/>
</svg>
