<svg width="46" height="46" viewBox="0 0 46 46" fill="none" xmlns="http://www.w3.org/2000/svg">
<g id="Apprentice - Free education icons-2 1" clip-path="url(#clip0_778_102517)">
<g id="Group">
<path id="Vector" d="M42.083 23.8711L40.1514 13.4043L37.0787 16.0277L28.9119 22.9906C28.3908 23.4309 27.717 23.6465 27.0432 23.5836L26.8275 23.5566C26.7916 23.5566 26.7557 23.5477 26.7197 23.5387C26.6838 23.5297 26.6389 23.5207 26.6119 23.5117C26.549 23.4938 26.4682 23.4668 26.3963 23.4488L12.4795 18.4984L13.7643 25.4973L13.8092 25.7309C14.6447 26.3867 15.5342 27.0516 16.4506 27.7164C17.4479 28.4352 18.499 29.1629 19.5861 29.8816C20.1791 30.268 20.7811 30.6543 21.41 31.0496C21.9221 31.3641 22.4342 31.6695 22.9283 31.975C23.8447 32.5141 24.7432 33.0262 25.6236 33.5113L26.54 33.8348C28.5705 34.5625 30.8346 34.1492 32.4787 32.7477L34.7607 30.807L39.1092 27.0965L41.7236 24.8684C42.0201 24.6078 42.1549 24.2395 42.083 23.8711Z" fill="#2A428C"/>
<path id="Vector_2" d="M45.5686 8.78678L40.151 13.4047L37.0783 16.0282L28.9115 22.9911C28.3904 23.4313 27.7166 23.6469 27.0428 23.584L26.8272 23.5571C26.7912 23.5571 26.7553 23.5481 26.7194 23.5391C26.6834 23.5301 26.6385 23.5212 26.6115 23.5122C26.5487 23.4942 26.4678 23.4672 26.3959 23.4493L12.4791 18.4989L11.374 18.1036L7.81623 16.8368L5.78576 16.118C5.26467 15.9383 5.13889 15.2555 5.56115 14.9051L7.38498 13.3419L9.82873 11.2485L22.2002 0.700839C22.901 0.10787 23.8623 -0.0718174 24.7248 0.242636L45.344 7.57389C45.8651 7.75357 45.9908 8.4274 45.5686 8.78678Z" fill="#3C58A0"/>
<path id="Vector_3" d="M28.5707 45.2097C28.7144 45.3983 28.8941 45.5601 29.1098 45.6769C30.4934 46.4495 32.6496 45.2276 33.9254 42.9456C35.2102 40.6546 35.1293 38.1839 33.7547 37.4022C33.6379 37.3573 33.5301 37.3034 33.4133 37.2585H33.4043C32.0297 36.8272 30.107 38.0401 28.9301 40.1425C27.843 42.0741 27.7441 44.1495 28.5707 45.2097Z" fill="#FC8B4C"/>
<path id="Vector_4" d="M33.3949 37.2495C32.6313 36.935 31.7418 37.2944 31.023 37.7886C30.9422 37.8425 30.8613 37.8964 30.7805 37.9593C30.7086 38.0132 30.6277 38.0761 30.5648 38.13C30.5109 38.1659 30.457 38.2108 30.4121 38.2557C30.3582 38.3096 30.3043 38.3456 30.2594 38.3995C30.2324 38.4264 30.2055 38.4444 30.1875 38.4714C30.1516 38.5073 30.1246 38.5343 30.0977 38.5702C30.0258 38.6421 29.9629 38.705 29.891 38.7858C29.8102 38.8757 29.7203 38.9835 29.6395 39.0913C29.5586 39.1991 29.4688 39.3069 29.3879 39.4237C29.307 39.5495 29.2172 39.6753 29.1273 39.81C28.8219 40.2682 28.5613 40.7804 28.3637 41.3014C27.9504 42.4065 27.8246 43.5835 28.2379 44.5987C28.2648 44.6616 28.2918 44.7245 28.3188 44.7784C28.3367 44.8143 28.3457 44.8503 28.3727 44.8862C28.3906 44.9401 28.4266 44.985 28.4535 45.03C28.4895 45.0929 28.5344 45.1557 28.5793 45.2097C25.9379 42.9186 22.7844 40.4569 19.0559 38.0401H19.0469C18.3281 37.5729 17.6094 37.1147 16.8457 36.6475C16.4773 36.4229 16.1 36.1893 15.7227 35.9737L15.6418 35.9198H15.6328C12.3086 33.9702 9.12813 32.4159 6.23516 31.1761L5.03125 25.3632C5.04922 25.3182 5.07617 25.2823 5.10312 25.2374C5.69609 24.1862 6.46875 23.3596 7.26836 22.8565C8.20273 22.2546 9.18203 22.0839 9.93672 22.4971C10.1164 22.6589 10.2961 22.8206 10.4848 22.9823C11.509 23.8718 12.623 24.7882 13.809 25.7225C14.6445 26.3784 15.534 27.0432 16.4504 27.7171C17.4477 28.4358 18.4988 29.1636 19.5949 29.8823C20.1879 30.2776 20.7898 30.655 21.4187 31.0503C21.9309 31.3647 22.434 31.6702 22.9371 31.9757C23.8535 32.5147 24.752 33.0268 25.6414 33.512C27.2855 34.4104 28.8848 35.21 30.4211 35.9198C31.4453 36.405 32.4336 36.8452 33.3949 37.2495Z" fill="#FCAD6D"/>
<path id="Vector_5" d="M30.6908 42.4873C30.7268 42.5412 30.7717 42.5772 30.8256 42.6041C31.185 42.8018 31.742 42.4873 32.0744 41.8943C32.4068 41.3014 32.3889 40.6635 32.0295 40.4568C32.0025 40.4479 31.9666 40.4299 31.9396 40.4209C31.5803 40.3131 31.0861 40.6186 30.7807 41.1666C30.5022 41.6787 30.4752 42.2178 30.6908 42.4873Z" fill="#FF4155"/>
<path id="Vector_6" d="M22.9281 31.9752C22.7664 32.083 22.5867 32.2088 22.3891 32.3615C22.2812 32.4334 22.1734 32.5232 22.0656 32.6221C21.6344 32.9904 21.1582 33.4666 20.709 34.0686C19.55 35.6229 19.1816 37.1951 19.0469 38.0396C18.391 37.6084 17.7262 37.1861 17.0344 36.7639C16.9715 36.7279 16.9086 36.692 16.8457 36.6471C16.4773 36.4225 16.1 36.1889 15.7227 35.9732L15.6418 35.9193H15.6328C15.7137 35.2186 15.9473 33.799 16.9355 32.3436C17.3488 31.7416 17.798 31.2564 18.2203 30.8701C18.391 30.7084 18.5707 30.5736 18.7234 30.4568C19.0648 30.2053 19.3703 30.0166 19.5949 29.8818C20.0801 30.1963 20.5742 30.5197 21.0773 30.8342C21.1941 30.9061 21.302 30.9689 21.4187 31.0498C21.9219 31.3643 22.425 31.6787 22.9281 31.9752Z" fill="#E9EFFF"/>
<path id="Vector_7" d="M19.0473 38.0313C18.3195 38.3816 17.466 38.8578 16.5676 39.5316C15.8039 40.1066 15.184 40.6816 14.6898 41.2027C14.2316 40.6637 13.6746 40.0797 13.0008 39.4777L12.8391 39.343C12.2191 38.8039 11.6262 38.3727 11.0781 38.0133C11.6891 37.618 12.4258 37.1957 13.2703 36.8094C14.1148 36.4141 14.9145 36.1266 15.6152 35.9199H15.6242L15.7051 35.9738C16.1363 36.2344 16.5676 36.5039 16.9988 36.7645C17.6906 37.1867 18.3645 37.609 19.0473 38.0313Z" fill="#D3DCFB"/>
<path id="Vector_8" d="M8.21211 40.8344L6.21758 41.2477L2.36328 24.2672L4.71719 23.791L5.03164 25.3633L6.23555 31.1762L8.21211 40.8344Z" fill="#FF4155"/>
<path id="Vector_9" d="M4.71641 23.7902L2.3625 24.2664L0.889062 24.5719L0.466797 22.5504L1.89531 22.2539L4.29414 21.7598L4.71641 23.7902Z" fill="#D3DCFB" fill-opacity="0.337255"/>
<path id="Vector_10" d="M4.29473 21.7601L1.8959 22.2542L1.2041 19.2085C1.36582 19.1187 1.54551 19.0558 1.73418 19.0109C2.79434 18.7952 3.82754 19.4691 4.03418 20.5292L4.29473 21.7601Z" fill="#FF4155"/>
<path id="Vector_11" d="M8.21211 40.834L7.11602 45.2004L4.38477 41.6246L6.21758 41.2473L8.21211 40.834Z" fill="#D3DCFB" fill-opacity="0.337255"/>
<path id="Vector_12" d="M40.1151 33.2606C39.7647 33.2606 39.4503 33.0091 39.3874 32.6497L36.4315 16.5766L25.3089 12.5337C24.9225 12.3899 24.7249 11.9676 24.8596 11.5813C25.0034 11.195 25.4257 10.9973 25.812 11.1321L25.83 11.1411L37.33 15.3188C37.5725 15.4087 37.7522 15.6153 37.8061 15.8669C37.8061 15.8759 37.8061 15.8848 37.8151 15.8938L40.8518 32.3802C40.9237 32.7844 40.6542 33.1708 40.2499 33.2427C40.205 33.2606 40.16 33.2606 40.1151 33.2606Z" fill="#4CE088"/>
<path id="Vector_13" d="M41.9843 34.8774C41.6788 35.3177 41.2206 35.6142 40.6995 35.704C40.5737 35.722 40.4569 35.7399 40.3401 35.7399C39.3878 35.7399 38.5522 35.0661 38.3726 34.1048C38.1749 33.0267 38.8936 31.9845 39.9718 31.7778C41.0499 31.5802 42.0921 32.2989 42.2987 33.377C42.4065 33.9071 42.2897 34.4372 41.9843 34.8774Z" fill="#30C16B"/>
<path id="Vector_14" d="M17.0346 36.7553C17.0256 36.7643 17.0166 36.7643 17.0076 36.7643C16.2619 37.0158 15.2557 37.4471 14.2045 38.2018C13.6744 38.5881 13.2252 38.9744 12.8479 39.3518C12.2279 38.8127 11.635 38.3814 11.0869 38.0221C11.6979 37.6268 12.4346 37.2045 13.2791 36.8182C14.1236 36.4229 14.9232 36.1354 15.624 35.9287H15.633L15.7139 35.9826C16.0912 36.1982 16.4686 36.4318 16.8369 36.6564C16.9088 36.6834 16.9717 36.7193 17.0346 36.7553Z" fill="#D3DCFB" fill-opacity="0.337255"/>
<path id="Vector_15" d="M21.0684 30.8344C20.1969 31.5262 19.0738 32.5594 18.2832 33.7812C17.8609 34.4281 17.3668 35.3984 17.0703 36.7461C17.0613 36.7551 17.0523 36.7551 17.0344 36.7551C16.9715 36.7191 16.9086 36.6832 16.8457 36.6383C16.4773 36.4137 16.1 36.1801 15.7227 35.9645L15.6418 35.9105H15.6328C15.7137 35.2098 15.9473 33.7902 16.9355 32.3348C17.3488 31.7328 17.798 31.2477 18.2203 30.8613C18.391 30.6996 18.5707 30.5648 18.7234 30.448C19.0648 30.1965 19.3703 30.0078 19.5949 29.873C20.0711 30.1965 20.5652 30.5199 21.0684 30.8344Z" fill="#D3DCFB"/>
<path id="Vector_16" d="M28.5703 45.2006C25.9289 42.9096 22.7754 40.4479 19.0469 38.0311C18.3281 37.5639 17.6094 37.1057 16.8457 36.6385C16.4773 36.4139 16.1 36.1803 15.7227 35.9646L15.6418 35.9107H15.6328C12.3086 33.9611 9.12813 32.4068 6.23516 31.167L5.03125 25.3631C5.04922 25.3182 5.07617 25.2822 5.10312 25.2373C5.69609 24.1861 6.46875 23.3596 7.26836 22.8564C8.67891 25.3721 10.6645 28.3189 13.4766 31.2568C18.7773 36.8092 24.5273 39.7561 28.3637 41.2924C27.9504 42.3975 27.8246 43.5744 28.2379 44.5896C28.2648 44.6525 28.2918 44.7154 28.3188 44.7693C28.3367 44.8053 28.3457 44.8412 28.3727 44.8771C28.3906 44.9311 28.4266 44.976 28.4535 45.0209C28.4805 45.0928 28.5254 45.1467 28.5703 45.2006Z" fill="#FD995B"/>
<path id="Vector_17" d="M6.21719 41.2477L4.38438 41.625C3.98906 39.7203 3.60273 37.8156 3.21641 35.9109C2.43477 32.1375 1.66211 28.3551 0.889453 24.5727L2.36289 24.2672L6.21719 41.2477ZM1.8957 22.2547L0.467187 22.5512L0.215625 21.3293C0.188672 21.1945 0.179688 21.0598 0.179688 20.934C0.179688 20.2062 0.583984 19.5504 1.21289 19.209L1.8957 22.2547Z" fill="#E80054"/>
<g id="Group_2">
<path id="Vector_18" d="M2.3625 24.2664L0.889062 24.5719L0.466797 22.5504L1.89531 22.2539L2.3625 24.2664ZM7.11523 45.2L4.38398 41.6242L6.2168 41.2469L7.11523 45.2Z" fill="#D3DCFB"/>
</g>
</g>
</g>
<defs>
<clipPath id="clip0_778_102517">
<rect width="46" height="46" fill="white"/>
</clipPath>
</defs>
</svg>
