<svg width="42" height="42" viewBox="0 0 42 42" fill="none" xmlns="http://www.w3.org/2000/svg">
<path d="M30.7864 9.04368H28.7892C28.7892 5.92341 25.2951 3.38497 21.0001 3.38497C16.7052 3.38497 13.2111 5.92349 13.2111 9.04368H11.2139C11.2139 6.94542 12.2685 4.99096 14.1833 3.54028C16.0155 2.15214 18.4365 1.3877 21.0001 1.3877C23.5638 1.3877 25.9847 2.15214 27.817 3.5402C29.7319 4.99088 30.7864 6.94534 30.7864 9.04368Z" fill="url(#paint0_linear_1761_15346)"/>
<path d="M27.8167 3.54055C26.888 2.83705 25.8078 2.29454 24.6348 1.92969V4.04049C27.1032 4.99083 28.7889 6.87691 28.7889 9.04395H30.7861C30.7861 6.94569 29.7316 4.99123 27.8167 3.54055Z" fill="url(#paint1_linear_1761_15346)"/>
<path d="M14.7617 7.83608L14.4854 7.72663C13.4528 7.31768 12.3032 7.31768 11.2706 7.72663L10.9943 7.83608C10.7566 7.93022 10.5527 8.09361 10.409 8.30507C10.2653 8.51652 10.1885 8.76628 10.1885 9.02194V11.7795C10.1885 12.484 10.7595 13.055 11.464 13.055H14.2921C14.9965 13.055 15.5676 12.484 15.5676 11.7795V9.02194C15.5675 8.76628 15.4907 8.51653 15.347 8.30508C15.2033 8.09363 14.9994 7.93023 14.7617 7.83608Z" fill="url(#paint2_linear_1761_15346)"/>
<path d="M31.0059 7.83608L30.7296 7.72663C29.697 7.31768 28.5474 7.31768 27.5148 7.72663L27.2385 7.83608C27.0008 7.93021 26.7969 8.09361 26.6532 8.30509C26.5094 8.51656 26.4326 8.76634 26.4326 9.02202V11.7796C26.4326 12.484 27.0037 13.0551 27.7081 13.0551H30.5362C31.2407 13.0551 31.8117 12.484 31.8117 11.7796V9.02202C31.8117 8.76634 31.7349 8.51657 31.5912 8.30509C31.4475 8.09362 31.2436 7.93021 31.0059 7.83608Z" fill="url(#paint3_linear_1761_15346)"/>
<path d="M9.7056 41.3718H7.95613C7.4097 41.3718 6.9668 40.9289 6.9668 40.3825V38.8154H10.6949V40.3825C10.6949 40.9289 10.2519 41.3718 9.7056 41.3718Z" fill="url(#paint4_linear_1761_15346)"/>
<path d="M34.0444 41.3718H32.295C31.7486 41.3718 31.3057 40.9289 31.3057 40.3825V38.8154H35.0338V40.3825C35.0337 40.9289 34.5907 41.3718 34.0444 41.3718Z" fill="url(#paint5_linear_1761_15346)"/>
<path d="M36.2895 40.1733H5.71093C3.3119 40.1733 1.36719 38.2285 1.36719 35.8296V15.2773C1.36719 12.8783 3.31198 10.9336 5.71093 10.9336H36.2896C38.6886 10.9336 40.6333 12.8784 40.6333 15.2773V35.8295C40.6333 38.2285 38.6885 40.1733 36.2895 40.1733Z" fill="url(#paint6_linear_1761_15346)"/>
<path d="M40.6334 24.4014C39.5461 25.4887 38.0713 26.0996 36.5335 26.0996H2.19336L16.2673 40.1736H36.2896C38.6887 40.1736 40.6334 38.2288 40.6334 35.8298V24.4014H40.6334Z" fill="url(#paint7_linear_1761_15346)"/>
<path d="M37.7575 26.8958L22.4833 28.2208C21.4965 28.3063 20.5041 28.3063 19.5173 28.2208L4.24312 26.8958C2.19846 26.7185 0.628906 25.0069 0.628906 22.9545V13.791C0.628906 11.392 2.5737 9.44727 4.97265 9.44727H37.0279C39.427 9.44727 41.3717 11.3921 41.3717 13.791V22.9546C41.3718 25.0069 39.8022 26.7185 37.7575 26.8958Z" fill="url(#paint8_linear_1761_15346)"/>
<path d="M0.628906 16.5195V22.9555C0.628906 25.0079 2.19846 26.7195 4.24312 26.8969L19.5173 28.2218C20.5041 28.3074 21.4965 28.3074 22.4833 28.2218L37.7575 26.8969C39.8022 26.7195 41.3718 25.0079 41.3718 22.9556V16.5196L0.628906 16.5195Z" fill="url(#paint9_linear_1761_15346)"/>
<path d="M1.36719 30.1074V35.8299C1.36719 38.2289 3.31198 40.1737 5.71093 40.1737H36.2896C38.6886 40.1737 40.6333 38.2289 40.6333 35.8299V30.1074H1.36719Z" fill="url(#paint10_linear_1761_15346)"/>
<path d="M40.6339 29.624V35.8297C40.6339 36.9848 40.1825 38.0354 39.4468 38.8135L30.4857 29.8524C30.1446 29.6935 29.9081 29.3483 29.9081 28.9465V28.0222C29.7779 27.903 29.674 27.7579 29.6029 27.5963C29.5318 27.4347 29.4951 27.2601 29.4951 27.0835V24.3258C29.4951 23.6212 30.0663 23.0508 30.7709 23.0508H33.599C34.0751 23.0508 34.4897 23.312 34.7086 23.6987L40.6339 29.624Z" fill="url(#paint11_linear_1761_15346)"/>
<path d="M28.9741 40.1732H18.5967L8.27674 29.8524C7.93562 29.6935 7.69915 29.3483 7.69915 28.9465V28.0222C7.56896 27.903 7.465 27.7579 7.3939 27.5963C7.32279 27.4347 7.28609 27.2601 7.28613 27.0835V24.3258C7.28613 23.6212 7.85733 23.0508 8.56194 23.0508H11.39C11.8661 23.0508 12.2807 23.312 12.4996 23.6987L28.9741 40.1732Z" fill="url(#paint12_linear_1761_15346)"/>
<path d="M11.1721 29.8677H8.61974C8.06707 29.8677 7.61914 29.4197 7.61914 28.8672V27.2314H12.1728V28.8672C12.1727 29.4197 11.7247 29.8677 11.1721 29.8677Z" fill="url(#paint13_linear_1761_15346)"/>
<path d="M11.7793 28.1896L11.5031 28.2991C10.4705 28.708 9.32082 28.708 8.28822 28.2991L8.01188 28.1896C7.77419 28.0955 7.57027 27.9321 7.42658 27.7206C7.28289 27.5092 7.20606 27.2594 7.20605 27.0038V24.2462C7.20605 23.5417 7.77709 22.9707 8.48155 22.9707H11.3097C12.0141 22.9707 12.5851 23.5417 12.5851 24.2462V27.0038C12.5852 27.2594 12.5084 27.5092 12.3647 27.7207C12.221 27.9321 12.017 28.0955 11.7793 28.1896Z" fill="url(#paint14_linear_1761_15346)"/>
<path d="M33.3811 29.8677H30.8287C30.2761 29.8677 29.8281 29.4197 29.8281 28.8672V27.2314H34.3817V28.8672C34.3817 29.4197 33.9336 29.8677 33.3811 29.8677Z" fill="url(#paint15_linear_1761_15346)"/>
<path d="M33.9882 28.1896L33.712 28.2991C32.6794 28.708 31.5297 28.708 30.4971 28.2991L30.2209 28.1896C29.9832 28.0955 29.7793 27.9321 29.6356 27.7206C29.4919 27.5092 29.415 27.2594 29.415 27.0038V24.2462C29.415 23.5417 29.9861 22.9707 30.6905 22.9707H33.5186C34.2231 22.9707 34.7941 23.5417 34.7941 24.2462V27.0038C34.7941 27.2594 34.7173 27.5092 34.5736 27.7207C34.4299 27.9321 34.2259 28.0955 33.9882 28.1896Z" fill="url(#paint16_linear_1761_15346)"/>
<path d="M34.4905 27.1802C29.3547 21.9985 25.0977 17.6993 25.0706 17.6586C25.0114 17.5692 24.931 17.4959 24.8365 17.4453C24.7421 17.3946 24.6365 17.3681 24.5294 17.3682H17.6318C17.5465 17.3682 17.4621 17.3849 17.3833 17.4176C17.3045 17.4502 17.2329 17.498 17.1726 17.5583C17.1123 17.6187 17.0645 17.6902 17.0318 17.769C16.9992 17.8478 16.9824 17.9323 16.9824 18.0176V19.1043C16.9824 19.2836 17.0551 19.446 17.1726 19.5635C17.21 19.6009 20.7774 23.141 25.6229 27.9493L34.4905 27.1802Z" fill="url(#paint17_linear_1761_15346)"/>
<path d="M24.4493 19.6307H17.5518C17.4665 19.6307 17.382 19.6139 17.3032 19.5812C17.2244 19.5486 17.1528 19.5008 17.0925 19.4405C17.0322 19.3802 16.9844 19.3086 16.9518 19.2298C16.9191 19.151 16.9023 19.0665 16.9023 18.9812V17.8945C16.9023 17.5358 17.1931 17.2451 17.5518 17.2451H24.4494C24.8081 17.2451 25.0988 17.5359 25.0988 17.8945V18.9812C25.0987 19.1535 25.0303 19.3187 24.9085 19.4404C24.7867 19.5622 24.6215 19.6307 24.4493 19.6307Z" fill="url(#paint18_linear_1761_15346)"/>
<path d="M25.903 5.61157C22.6555 4.20969 19.3419 4.21113 16.0976 5.61157C15.5751 5.83709 14.9668 5.63809 14.6849 5.14374L13.8317 3.64808C13.5039 3.07329 13.7487 2.34479 14.3536 2.07621C18.6987 0.146593 23.3011 0.146353 27.647 2.07621C28.2518 2.34479 28.4967 3.07321 28.1688 3.64808L27.3157 5.14374C27.0337 5.63801 26.4254 5.83709 25.903 5.61157Z" fill="url(#paint19_linear_1761_15346)"/>
<defs>
<linearGradient id="paint0_linear_1761_15346" x1="21.0001" y1="1.3877" x2="21.0001" y2="9.04368" gradientUnits="userSpaceOnUse">
<stop stop-color="#E6EEFF"/>
<stop offset="1" stop-color="#BAC8FA"/>
</linearGradient>
<linearGradient id="paint1_linear_1761_15346" x1="29.6167" y1="7.466" x2="27.7792" y2="5.78836" gradientUnits="userSpaceOnUse">
<stop stop-color="#A7B7F1" stop-opacity="0"/>
<stop offset="1" stop-color="#A7B7F1"/>
</linearGradient>
<linearGradient id="paint2_linear_1761_15346" x1="12.8779" y1="8.24543" x2="12.8779" y2="9.89991" gradientUnits="userSpaceOnUse">
<stop stop-color="#FEE45A"/>
<stop offset="1" stop-color="#FEA613"/>
</linearGradient>
<linearGradient id="paint3_linear_1761_15346" x1="29.1222" y1="8.24543" x2="29.1222" y2="9.89991" gradientUnits="userSpaceOnUse">
<stop stop-color="#FEE45A"/>
<stop offset="1" stop-color="#FEA613"/>
</linearGradient>
<linearGradient id="paint4_linear_1761_15346" x1="8.8309" y1="39.8274" x2="8.8309" y2="41.0535" gradientUnits="userSpaceOnUse">
<stop stop-color="#5A5A5A"/>
<stop offset="1" stop-color="#444444"/>
</linearGradient>
<linearGradient id="paint5_linear_1761_15346" x1="33.1696" y1="39.8274" x2="33.1696" y2="41.0535" gradientUnits="userSpaceOnUse">
<stop stop-color="#5A5A5A"/>
<stop offset="1" stop-color="#444444"/>
</linearGradient>
<linearGradient id="paint6_linear_1761_15346" x1="15.1568" y1="17.9946" x2="32.5724" y2="40.523" gradientUnits="userSpaceOnUse">
<stop stop-color="#C86D36"/>
<stop offset="1" stop-color="#883F2E"/>
</linearGradient>
<linearGradient id="paint7_linear_1761_15346" x1="21.4134" y1="35.979" x2="21.4134" y2="27.5402" gradientUnits="userSpaceOnUse">
<stop stop-color="#883F2E" stop-opacity="0"/>
<stop offset="1" stop-color="#6D3326"/>
</linearGradient>
<linearGradient id="paint8_linear_1761_15346" x1="12.8969" y1="13.3755" x2="33.0287" y2="25.5184" gradientUnits="userSpaceOnUse">
<stop stop-color="#C86D36"/>
<stop offset="1" stop-color="#883F2E"/>
</linearGradient>
<linearGradient id="paint9_linear_1761_15346" x1="21.0003" y1="20.122" x2="21.0003" y2="29.7139" gradientUnits="userSpaceOnUse">
<stop stop-color="#883F2E" stop-opacity="0"/>
<stop offset="1" stop-color="#6D3326"/>
</linearGradient>
<linearGradient id="paint10_linear_1761_15346" x1="21.0003" y1="35.38" x2="21.0003" y2="40.2851" gradientUnits="userSpaceOnUse">
<stop stop-color="#883F2E" stop-opacity="0"/>
<stop offset="1" stop-color="#6D3326"/>
</linearGradient>
<linearGradient id="paint11_linear_1761_15346" x1="42.2164" y1="33.7271" x2="33.0293" y2="29.0936" gradientUnits="userSpaceOnUse">
<stop stop-color="#883F2E" stop-opacity="0"/>
<stop offset="1" stop-color="#6D3326"/>
</linearGradient>
<linearGradient id="paint12_linear_1761_15346" x1="18.5542" y1="33.9217" x2="5.29285" y2="24.8145" gradientUnits="userSpaceOnUse">
<stop stop-color="#883F2E" stop-opacity="0"/>
<stop offset="1" stop-color="#6D3326"/>
</linearGradient>
<linearGradient id="paint13_linear_1761_15346" x1="9.89587" y1="28.483" x2="9.89587" y2="29.7083" gradientUnits="userSpaceOnUse">
<stop stop-color="#FEE45A"/>
<stop offset="1" stop-color="#FEA613"/>
</linearGradient>
<linearGradient id="paint14_linear_1761_15346" x1="9.25566" y1="24.2981" x2="10.7202" y2="27.3339" gradientUnits="userSpaceOnUse">
<stop stop-color="#FEE45A"/>
<stop offset="1" stop-color="#FEA613"/>
</linearGradient>
<linearGradient id="paint15_linear_1761_15346" x1="32.1049" y1="28.483" x2="32.1049" y2="29.7083" gradientUnits="userSpaceOnUse">
<stop stop-color="#FEE45A"/>
<stop offset="1" stop-color="#FEA613"/>
</linearGradient>
<linearGradient id="paint16_linear_1761_15346" x1="31.4646" y1="24.2981" x2="32.9291" y2="27.3339" gradientUnits="userSpaceOnUse">
<stop stop-color="#FEE45A"/>
<stop offset="1" stop-color="#FEA613"/>
</linearGradient>
<linearGradient id="paint17_linear_1761_15346" x1="27.9564" y1="26.8248" x2="21.4854" y2="16.3595" gradientUnits="userSpaceOnUse">
<stop stop-color="#883F2E" stop-opacity="0"/>
<stop offset="1" stop-color="#6D3326"/>
</linearGradient>
<linearGradient id="paint18_linear_1761_15346" x1="21.0005" y1="17.8262" x2="21.0005" y2="19.4879" gradientUnits="userSpaceOnUse">
<stop stop-color="#E6EEFF"/>
<stop offset="1" stop-color="#BAC8FA"/>
</linearGradient>
<linearGradient id="paint19_linear_1761_15346" x1="21.0003" y1="1.37239" x2="21.0003" y2="2.86238" gradientUnits="userSpaceOnUse">
<stop stop-color="#5A5A5A"/>
<stop offset="1" stop-color="#444444"/>
</linearGradient>
</defs>
</svg>
