<svg width="22" height="22" viewBox="0 0 22 22" fill="none" xmlns="http://www.w3.org/2000/svg">
<g id="vuesax/linear/gallery-add">
<g id="gallery-add">
<path id="Vector" d="M8.375 9.25C9.3415 9.25 10.125 8.4665 10.125 7.5C10.125 6.5335 9.3415 5.75 8.375 5.75C7.4085 5.75 6.625 6.5335 6.625 7.5C6.625 8.4665 7.4085 9.25 8.375 9.25Z" stroke="white" stroke-width="1.5" stroke-linecap="round" stroke-linejoin="round"/>
<path id="Vector_2" d="M11.875 2.25H8.375C4 2.25 2.25 4 2.25 8.375V13.625C2.25 18 4 19.75 8.375 19.75H13.625C18 19.75 19.75 18 19.75 13.625V9.25" stroke="white" stroke-width="1.5" stroke-linecap="round" stroke-linejoin="round"/>
<path id="Vector_3" d="M14.2812 4.875H19.0938" stroke="white" stroke-width="1.5" stroke-linecap="round"/>
<path id="Vector_4" d="M16.6875 7.28125V2.46875" stroke="white" stroke-width="1.5" stroke-linecap="round"/>
<path id="Vector_5" d="M2.83594 17.0815L7.14969 14.1852C7.84094 13.7215 8.83844 13.774 9.45969 14.3077L9.74844 14.5615C10.4309 15.1477 11.5334 15.1477 12.2159 14.5615L15.8559 11.4377C16.5384 10.8515 17.6409 10.8515 18.3234 11.4377L19.7497 12.6627" stroke="white" stroke-width="1.5" stroke-linecap="round" stroke-linejoin="round"/>
</g>
</g>
</svg>
