<svg width="12" height="12" viewBox="0 0 12 12" fill="none" xmlns="http://www.w3.org/2000/svg">
<g clip-path="url(#clip0_778_101391)">
<path d="M10.3096 4.225C9.78456 1.915 7.76956 0.875 5.99956 0.875C5.99956 0.875 5.99956 0.875 5.99456 0.875C4.22956 0.875 2.20956 1.91 1.68456 4.22C1.09956 6.8 2.67956 8.985 4.10956 10.36C4.63956 10.87 5.31956 11.125 5.99956 11.125C6.67956 11.125 7.35956 10.87 7.88456 10.36C9.31456 8.985 10.8946 6.805 10.3096 4.225ZM5.99956 6.73C5.12956 6.73 4.42456 6.025 4.42456 5.155C4.42456 4.285 5.12956 3.58 5.99956 3.58C6.86956 3.58 7.57456 4.285 7.57456 5.155C7.57456 6.025 6.86956 6.73 5.99956 6.73Z" fill="#A1AECB"/>
</g>
<defs>
<clipPath id="clip0_778_101391">
<rect width="12" height="12" fill="white"/>
</clipPath>
</defs>
</svg>
