<svg width="50" height="34" viewBox="0 0 50 34" fill="none" xmlns="http://www.w3.org/2000/svg">
<g clip-path="url(#clip0_778_101323)">
<path d="M26.2646 0.630711L31.8136 10.6678C31.8234 10.678 31.8136 10.6984 31.8038 10.7086H31.794H29.6469C29.6371 10.7086 29.6273 10.6984 29.6175 10.6882L24.0685 0.65107C24.0587 0.64089 24.0685 0.620531 24.0783 0.610352C24.0783 0.610352 24.0881 0.610352 24.0979 0.610352H26.245C26.2548 0.610352 26.2646 0.620531 26.2646 0.630711Z" fill="#D49836"/>
<path d="M29.7646 1.61802L34.7842 10.6575C34.794 10.6779 34.7842 10.6983 34.7744 10.7084C34.7646 10.7084 34.7646 10.7084 34.7548 10.7084H32.6175C32.6077 10.7084 32.5979 10.6983 32.5881 10.6881L27.5685 1.64855C27.5587 1.6282 27.5685 1.60784 27.5783 1.59766C27.5881 1.59766 27.5881 1.59766 27.5979 1.59766H29.7352C29.745 1.60784 29.7548 1.60784 29.7646 1.61802Z" fill="#D49836"/>
<path d="M17.1661 16.0836L24.3622 3.20632C24.372 3.18596 24.3916 3.18596 24.4014 3.19614L24.4112 3.20632L25.5092 5.07937C25.519 5.08955 25.519 5.09973 25.5092 5.10991L19.323 16.1141C19.3132 16.1243 19.3033 16.1345 19.2935 16.1345H17.1759C17.1563 16.1345 17.1465 16.1243 17.1465 16.1039C17.1661 16.0937 17.1661 16.0836 17.1661 16.0836Z" fill="#D49836"/>
<path d="M20.4307 16.083L26.0875 5.93386C26.0973 5.9135 26.1169 5.9135 26.1267 5.92368L26.1365 5.93386L27.2542 7.80691C27.264 7.81709 27.264 7.82727 27.2542 7.83745L22.6071 16.1135C22.5973 16.1237 22.5875 16.1339 22.5777 16.1339H20.4601C20.4405 16.1339 20.4307 16.1135 20.4307 16.1033C20.4307 16.0931 20.4307 16.083 20.4307 16.083Z" fill="#D49836"/>
<path d="M26.0591 11.3701H38.4806C38.5002 11.3701 38.51 11.3803 38.51 11.4007C38.51 11.4108 38.51 11.4108 38.51 11.4108L37.4512 13.406C37.4414 13.4162 37.4316 13.4264 37.4218 13.4264H24.9708C24.9512 13.4264 24.9414 13.4162 24.9414 13.3959C24.9414 13.3857 24.9414 13.3857 24.9414 13.3755L26.0296 11.3803C26.0394 11.3803 26.0492 11.3701 26.0591 11.3701Z" fill="#D49836"/>
<path d="M24.4312 14.0674H36.088C36.1076 14.0674 36.1174 14.0776 36.1174 14.0979C36.1174 14.1081 36.1174 14.1081 36.1174 14.1081L35.0586 16.1033C35.0488 16.1135 35.039 16.1237 35.0292 16.1237H23.3331C23.3135 16.1237 23.3037 16.1135 23.3037 16.0931C23.3037 16.083 23.3037 16.083 23.3037 16.0728L24.4017 14.0776C24.4116 14.0776 24.4214 14.0674 24.4312 14.0674Z" fill="#D49836"/>
<path d="M34.8623 19.4426C34.7643 19.2797 34.6466 19.1168 34.5878 18.9438C34.078 17.2743 36.8035 16.3276 37.176 18.2414C37.3231 19.0048 36.8623 19.3917 36.2447 19.7989C35.5192 20.2671 34.9898 20.603 34.6368 20.8168C34.1956 21.0917 33.8917 20.3689 33.8623 20.0432C33.8623 20.0126 33.8721 19.9923 33.9015 19.9923C34.2447 19.9108 34.5584 19.7581 34.8427 19.5342C34.8819 19.5036 34.8917 19.4731 34.8623 19.4426ZM35.6172 18.9641C35.6368 18.9947 35.6858 19.0048 35.7152 18.9845C35.9603 18.8318 36.6368 18.4857 36.2349 18.0887C36.078 17.936 35.9211 17.9869 35.7545 18.0887C35.2741 18.3737 35.3427 18.5366 35.6172 18.9641Z" fill="#D49836"/>
<path d="M45.5 19.432C44.3921 18.0272 46.4019 16.3883 47.5098 17.5895C48.0588 18.1901 47.9215 19.1266 47.2353 19.5746C46.3039 20.1853 45.6764 20.5925 45.3431 20.7961C44.8529 21.1015 44.5588 20.4398 44.5098 20.0428C44.5098 20.0123 44.5196 20.0021 44.5392 19.9919C44.8921 19.9105 45.2058 19.7578 45.5 19.5237C45.5098 19.5033 45.5196 19.4626 45.5 19.432ZM46.4215 18.0578C46.2353 18.1596 46.098 18.2817 46.0098 18.4344C45.9902 18.4751 45.9902 18.5159 46.0098 18.5566L46.2255 18.9434C46.2451 18.974 46.2647 18.9841 46.3039 18.974C46.5686 18.8518 46.7549 18.7398 46.8627 18.6177C47.1666 18.2716 46.8431 17.844 46.4215 18.0578Z" fill="#D49836"/>
<path d="M18.2744 27.8105C20.9313 27.8207 23.598 27.8207 26.2548 27.8105C26.5489 27.8105 26.7646 27.7596 26.9117 27.6781C27.8431 27.1183 27.6372 24.8787 27.6372 23.9524C27.6274 22.3644 29.2646 22.6799 30.196 22.9243C30.245 22.9344 30.2744 22.9853 30.2548 23.0362C30.0195 24.044 29.9411 25.0823 30.0195 26.141C30.0489 26.5991 30.1666 26.9961 30.3627 27.3422C30.6862 27.9021 31.2548 27.8308 31.794 27.8207C32.0293 27.8207 32.2156 27.7698 32.3431 27.6985C33.2646 27.1692 33.0784 24.9398 33.0784 23.9524C33.0784 22.3746 34.6764 22.6799 35.647 22.9243C35.696 22.9344 35.7254 22.9853 35.7156 23.0464C35.5686 23.6165 35.4803 24.2171 35.4705 24.8482C35.4411 25.9171 35.3431 27.8003 36.745 27.8308C37.2548 27.841 37.6764 27.9123 38.0391 27.4644C38.2548 27.1895 38.4019 26.8231 38.4607 26.3752C38.6078 25.3063 38.5195 24.1255 38.5195 23.0464C38.5195 22.6392 38.5588 22.3542 38.6274 22.2015C39.0195 21.3159 40.4215 21.5805 41.1274 21.8147C41.1666 21.8249 41.1764 21.8554 41.1666 21.8859C41.0097 22.456 40.9901 22.9752 40.9215 23.5554C40.8038 24.6141 41.0097 25.7542 40.745 26.7314C40.3431 28.2686 39.1176 29.3171 37.5784 29.3985C36.3627 29.4596 35.2842 29.3883 34.3038 28.5536C34.2744 28.5332 34.2548 28.5332 34.2254 28.5536C33.6078 29.0829 32.8921 29.3578 32.0784 29.4087C30.8627 29.4698 29.8137 29.3781 28.8431 28.5536C28.8137 28.5332 28.794 28.5332 28.7646 28.5536C28.147 29.1033 27.3725 29.3781 26.5686 29.4087C26.3823 29.4189 26.2156 29.4799 26.0391 29.4799C24.0293 29.4799 22.0293 29.4799 20.0195 29.4799C19.9117 29.4799 19.7842 29.4189 19.6568 29.4189C19.1274 29.4087 18.6078 29.4087 18.0784 29.4189C18.0489 29.4189 18.0195 29.4392 18.0097 29.4698C17.3333 31.8823 15.4411 33.3177 13.0097 33.2973C10.5587 33.277 8.51953 31.4955 8.12738 28.9811C8.00973 28.2584 8.05875 27.271 8.04895 26.4362C8.03914 24.8889 9.78424 25.1943 10.6568 25.4692C10.6862 25.4793 10.7058 25.4997 10.696 25.5404C10.4411 26.5991 10.3921 27.668 10.4607 28.7572C10.5882 30.7422 11.7254 32.0758 13.7352 31.6686C15.4607 31.3225 15.8235 29.5716 15.8235 28.0243C15.8235 25.3165 15.8235 22.6087 15.8137 19.9009C15.8137 18.3231 17.4607 18.6183 18.4019 18.8728C18.4411 18.8829 18.4607 18.9135 18.4509 18.9542C18.2744 19.6871 18.2058 20.3488 18.196 21.1632C18.1862 23.362 18.1862 25.571 18.196 27.7698C18.2254 27.7901 18.245 27.8105 18.2744 27.8105Z" fill="black"/>
<path d="M6.39156 21.2143C6.66229 21.2143 6.88176 20.9864 6.88176 20.7053C6.88176 20.4242 6.66229 20.1963 6.39156 20.1963C6.12084 20.1963 5.90137 20.4242 5.90137 20.7053C5.90137 20.9864 6.12084 21.2143 6.39156 21.2143Z" fill="#D49836"/>
<path d="M7.57809 21.2143C7.84881 21.2143 8.06828 20.9864 8.06828 20.7053C8.06828 20.4242 7.84881 20.1963 7.57809 20.1963C7.30736 20.1963 7.08789 20.4242 7.08789 20.7053C7.08789 20.9864 7.30736 21.2143 7.57809 21.2143Z" fill="#D49836"/>
<path d="M10.0781 21.2143C10.3488 21.2143 10.5683 20.9864 10.5683 20.7053C10.5683 20.4242 10.3488 20.1963 10.0781 20.1963C9.80736 20.1963 9.58789 20.4242 9.58789 20.7053C9.58789 20.9864 9.80736 21.2143 10.0781 21.2143Z" fill="#D49836"/>
<path d="M8.21546 23.9625C8.51939 23.9727 8.83311 23.9727 9.14684 23.9625C9.95076 23.9524 9.33311 21.9979 9.70566 21.6619C9.90174 21.4889 10.3233 21.5602 10.5488 21.6212C10.5782 21.6314 10.588 21.6416 10.5782 21.6721C10.5194 22.0793 10.4998 22.6188 10.5194 23.2907C10.5292 23.6979 10.6959 23.9931 11.1272 23.9727C11.5684 23.9422 11.6468 23.4841 11.637 23.0667C11.637 22.3033 11.637 21.5398 11.6468 20.7763C11.6468 20.3081 12.3723 20.4099 12.6272 20.5015C12.6566 20.5116 12.6762 20.5422 12.6664 20.5727C12.6174 20.7661 12.5782 20.9494 12.5782 21.153C12.5684 21.7943 12.5684 22.4356 12.5782 23.0769C12.588 23.6368 12.6861 24.0745 13.3331 23.932C13.637 23.8709 13.6959 23.4128 13.6959 23.1685C13.6959 22.4051 13.6861 21.6518 13.6959 20.8883C13.6959 20.3081 14.3331 20.3691 14.6861 20.4913C14.7155 20.5015 14.7351 20.532 14.7253 20.5625C14.6861 20.7356 14.6468 20.8985 14.6468 21.0715C14.6174 21.7637 14.6174 22.456 14.6272 23.1482C14.637 23.8913 14.0978 24.4308 13.4115 24.5428C12.9704 24.614 12.5586 24.5224 12.1566 24.2578C12.1272 24.2374 12.0978 24.2374 12.0684 24.2578C11.4017 24.6751 10.7449 24.6751 10.0782 24.2578C10.0488 24.2374 10.0194 24.2374 9.98997 24.2578C9.70566 24.4614 9.42135 24.5631 9.12723 24.5631C7.51939 24.553 5.92135 24.553 4.3135 24.5631C4.27429 24.5631 4.25468 24.5835 4.23507 24.614C4.17625 24.7871 4.12723 24.9602 4.03899 25.1027C3.41154 26.1308 1.98997 26.3649 1.08801 25.5709C0.391935 24.95 0.352719 24.1152 0.421347 23.3111C0.460562 22.8224 1.11743 22.9242 1.41154 23.026C1.44095 23.0362 1.46056 23.0566 1.45076 23.0973C1.25468 23.8099 1.19586 25.2248 2.10762 25.4081C3.18605 25.6117 3.39193 24.8075 3.39193 23.8913C3.39193 22.8835 3.39193 21.8757 3.39193 20.8781C3.39193 20.3081 4.03899 20.3793 4.38213 20.5015C4.41154 20.5116 4.43115 20.5422 4.42135 20.5727C4.38213 20.756 4.34292 20.929 4.34292 21.1224C4.34292 22.059 4.34292 22.9853 4.33311 23.9218C4.33311 23.9422 4.35272 23.9625 4.37233 23.9625H5.56841C5.59782 23.9625 5.60762 23.9524 5.61742 23.9218C5.63703 23.0464 5.49978 22.0488 6.46056 21.6518C6.67625 21.5602 6.91154 21.5398 7.17625 21.5703C8.32331 21.7027 8.71546 22.9751 8.19586 23.9218C8.18605 23.932 8.19586 23.9524 8.20566 23.9625H8.21546ZM7.3135 23.8404C7.5586 23.5248 7.61743 22.3949 7.14684 22.2015C6.42135 21.8961 6.53899 23.5655 6.5586 23.9218C6.5586 23.9524 6.57821 23.9727 6.60762 23.9727C6.8037 23.9727 7.16644 24.0236 7.3135 23.8404Z" fill="#D49836"/>
<path d="M47.1564 29.3886C46.5191 29.3886 45.774 29.4294 45.2152 29.3276C43.5975 29.0527 42.4897 27.6377 42.3622 25.9785C42.3328 25.5713 42.3426 25.1641 42.3917 24.7569C42.5975 23.118 43.7446 21.8353 45.3034 21.6216C47.7642 21.2755 49.5877 22.8533 49.5877 25.4797C49.5877 26.8641 49.5877 28.2383 49.5877 29.6228C49.5877 30.203 49.4505 30.7629 49.176 31.3024C48.7152 32.2186 47.9799 32.8701 47.0191 33.1347C46.7544 33.206 46.3524 33.2467 45.8328 33.2569C45.0681 33.2773 43.323 33.3994 43.4309 32.127C43.4603 31.7809 43.7152 31.4551 43.9407 31.2006C43.9603 31.1803 43.9897 31.1803 43.9995 31.2006C44.3917 31.5976 44.9113 31.7198 45.4603 31.73C46.1564 31.7401 46.7152 31.6689 46.9799 30.9258C47.1368 30.4779 47.2054 29.9892 47.1956 29.4497C47.2054 29.409 47.1858 29.3886 47.1564 29.3886ZM47.2054 25.0928C47.1466 24.4413 46.9505 23.4641 46.3034 23.1892C45.5975 22.9042 45.0387 23.5557 44.8721 24.197C44.6564 25.0114 44.6466 25.8563 44.8426 26.7114C44.9505 27.1797 45.3034 27.8006 45.7446 27.8006C46.225 27.8006 46.7054 27.8006 47.1858 27.8006C47.2152 27.8006 47.225 27.7904 47.225 27.7599C47.225 26.8946 47.2642 25.7952 47.2054 25.0928Z" fill="black"/>
<path d="M39.402 31.5053C39.4941 31.5053 39.5687 31.4278 39.5687 31.3322C39.5687 31.2367 39.4941 31.1592 39.402 31.1592C39.31 31.1592 39.2354 31.2367 39.2354 31.3322C39.2354 31.4278 39.31 31.5053 39.402 31.5053Z" fill="#D49836"/>
<path d="M27.6174 31.4852V32.8493C27.6174 32.8697 27.5978 32.89 27.5781 32.89H27.3428C27.3232 32.89 27.3036 32.8697 27.3036 32.8493V31.4954C27.3036 31.475 27.284 31.4547 27.2644 31.4547L26.8625 31.4649C26.8428 31.4649 26.8232 31.4445 26.8232 31.4241L26.833 31.2409C26.833 31.2206 26.8527 31.2002 26.8723 31.2002H28.0193C28.0389 31.2002 28.0585 31.2206 28.0585 31.2409V31.4241C28.0585 31.4445 28.0389 31.4649 28.0193 31.4649L27.6468 31.4547C27.6272 31.4547 27.6174 31.4649 27.6174 31.4852Z" fill="#D49836"/>
<path d="M21.2843 32.931C20.8725 32.9004 20.5588 32.4932 20.598 32.025C20.6373 31.5567 21 31.2106 21.4216 31.2411C21.8333 31.2717 22.1471 31.6789 22.1078 32.1471C22.0686 32.6154 21.6961 32.9717 21.2843 32.931ZM21.3431 32.6256C21.549 32.6256 21.7157 32.3813 21.7157 32.086C21.7157 31.7908 21.549 31.5465 21.3431 31.5465C21.1373 31.5465 20.9706 31.7908 20.9706 32.086C20.9706 32.3813 21.1373 32.6256 21.3431 32.6256Z" fill="#D49836"/>
<path d="M22.7743 31.577C22.7253 31.5872 22.6861 31.6279 22.6763 31.6788C22.6665 31.7501 22.6959 31.8009 22.7743 31.8315C22.8822 31.8722 22.9802 31.9231 23.0783 31.974C23.4802 32.2081 23.4606 32.7273 22.9998 32.8596C22.7841 32.9309 22.5587 32.9207 22.3332 32.8291C22.3038 32.8189 22.2939 32.7884 22.2939 32.7578L22.343 32.5542C22.3528 32.5033 22.3822 32.4932 22.4214 32.5135C22.5685 32.6051 22.8332 32.6357 22.9508 32.5033C22.9998 32.4423 22.9998 32.3506 22.941 32.2997C22.9214 32.2896 22.9116 32.2794 22.892 32.2692C22.6665 32.198 22.4116 32.086 22.3234 31.8417C22.2645 31.6788 22.2939 31.5363 22.4312 31.4039C22.6469 31.2003 22.9214 31.1596 23.2449 31.3021C23.2841 31.3225 23.3037 31.3632 23.2841 31.4039L23.2253 31.5668C23.2057 31.6177 23.1763 31.6279 23.1371 31.6075C23.0292 31.5566 22.9116 31.5465 22.7743 31.577Z" fill="#D49836"/>
<path d="M24.2451 32.931C23.8236 32.8903 23.5196 32.4831 23.5687 32.0149C23.6079 31.5466 23.9804 31.2107 24.402 31.2514C24.8236 31.2921 25.1275 31.6993 25.0785 32.1676C25.0294 32.6256 24.6569 32.9717 24.2451 32.931ZM24.3138 32.6256C24.5196 32.6256 24.6863 32.3813 24.6863 32.0861C24.6863 31.7909 24.5196 31.5466 24.3138 31.5364C24.1079 31.5364 23.9412 31.7807 23.9412 32.0759C23.9412 32.3813 24.1079 32.6256 24.3138 32.6256Z" fill="#D49836"/>
<path d="M19.0294 32.2182C19.0588 32.4218 19.098 32.4218 19.1275 32.2182L19.2941 31.3224C19.3039 31.2918 19.3137 31.2817 19.3431 31.2817H19.6275C19.6667 31.2817 19.6961 31.302 19.7059 31.3427L19.8725 32.3403C19.8824 32.4116 19.8922 32.4116 19.9118 32.3403L20.098 31.3224C20.1078 31.2918 20.1275 31.2715 20.1569 31.2715H20.4314C20.4706 31.2715 20.4804 31.2918 20.4706 31.3224L20.0882 32.8391C20.0784 32.8697 20.0588 32.89 20.0294 32.89H19.7255C19.7059 32.89 19.6961 32.8799 19.6863 32.8595L19.5 31.8415C19.4902 31.7906 19.4804 31.7906 19.4706 31.8415L19.2745 32.8391C19.2647 32.8799 19.2451 32.9002 19.2059 32.9002H18.8922C18.8725 32.9002 18.8627 32.89 18.8529 32.8697L18.5 31.3427C18.5 31.3224 18.5098 31.302 18.5294 31.302H18.5392H18.8333C18.8627 31.302 18.8922 31.3224 18.8922 31.3529L19.0294 32.2182Z" fill="#D49836"/>
<path d="M25.7154 32.5847L26.2742 32.5745C26.2938 32.5745 26.3036 32.5948 26.3036 32.605V32.8391C26.3036 32.8595 26.284 32.8697 26.2742 32.8697H25.3624C25.3428 32.8697 25.333 32.8493 25.333 32.8391V31.302C25.333 31.2817 25.3526 31.2715 25.3624 31.2715H25.6467C25.6663 31.2715 25.6761 31.2918 25.6761 31.302V32.5439C25.6859 32.5745 25.6958 32.5847 25.7154 32.5847Z" fill="#D49836"/>
<path d="M36.7643 31.6681L36.9114 31.658C36.9604 31.658 36.9898 31.6783 36.9898 31.7292V31.8412C36.9898 31.8921 36.9604 31.9226 36.9114 31.9124L36.7839 31.9023C36.7349 31.9023 36.7153 31.9226 36.7153 31.9633L36.7251 32.5741C36.7251 32.625 36.7447 32.6454 36.7937 32.6454H36.9016C36.9506 32.6454 36.9702 32.6657 36.9604 32.7166L36.9506 32.849C36.9506 32.8795 36.931 32.8999 36.9114 32.8999C36.2741 33.0831 36.4016 32.2993 36.4114 31.9633C36.4114 31.9328 36.3918 31.9124 36.3623 31.9124H36.3133C36.2643 31.9124 36.2447 31.8921 36.2349 31.8412C36.2251 31.7903 36.2251 31.7496 36.2349 31.6987C36.2447 31.6681 36.2545 31.6478 36.2937 31.6478H36.3721C36.4114 31.6478 36.4212 31.6274 36.4212 31.5969L36.4016 31.4442C36.4016 31.4136 36.4114 31.3831 36.4506 31.3831L36.6467 31.3424C36.6957 31.3322 36.7153 31.3526 36.7153 31.4035L36.7055 31.6274C36.7251 31.6478 36.7447 31.6681 36.7643 31.6681Z" fill="#D49836"/>
<path d="M38.4119 31.9125C38.3825 31.9125 38.3629 31.9125 38.3433 31.9023C38.2845 31.8718 38.2453 31.7903 38.2649 31.7293C38.2747 31.6885 38.3041 31.6682 38.3433 31.6682L38.4119 31.658C38.4413 31.658 38.4707 31.6275 38.4707 31.5867L38.4609 31.4544C38.4609 31.4137 38.4806 31.3933 38.5198 31.3832L38.7158 31.3424C38.7551 31.3323 38.7747 31.3526 38.7747 31.3933L38.7649 31.6071C38.7649 31.6376 38.7845 31.6682 38.8139 31.6682H38.8237L38.9609 31.658C39.0198 31.6478 39.0394 31.6784 39.0394 31.7293V31.8412C39.0394 31.8921 39.01 31.9227 38.9609 31.9125L38.8139 31.8921C38.7845 31.8921 38.7649 31.9023 38.7649 31.9329C38.7649 31.9329 38.7649 31.9329 38.7649 31.943L38.7747 32.6047C38.7747 32.6454 38.8041 32.6658 38.8433 32.6658C38.8433 32.6658 38.8433 32.6658 38.8531 32.6658L38.9609 32.6556C38.9904 32.6556 39.0296 32.676 39.0296 32.7167C39.0394 32.7676 39.0296 32.8185 39.0198 32.8592C39.01 32.8897 39.0002 32.8999 38.9707 32.9101C38.3433 33.073 38.4806 32.3095 38.4707 31.9736C38.4609 31.9227 38.4511 31.9125 38.4119 31.9125Z" fill="#D49836"/>
<path d="M28.5685 31.8419C28.6469 31.7299 28.7547 31.6586 28.8822 31.6383C28.9312 31.6281 28.9508 31.6485 28.9606 31.6994L28.9704 31.8622C28.9704 31.9131 28.9508 31.9437 28.9018 31.9335C28.4802 31.9131 28.5979 32.585 28.6077 32.8293C28.6077 32.8598 28.5979 32.87 28.5685 32.8802L28.343 32.8904C28.3234 32.8904 28.3037 32.8802 28.3037 32.8497L28.2939 31.6994C28.2939 31.6688 28.3136 31.6485 28.343 31.6485C28.343 31.6485 28.343 31.6485 28.3528 31.6485L28.5096 31.6586C28.539 31.6586 28.5586 31.6892 28.5586 31.7197C28.5586 31.7299 28.5586 31.7299 28.5586 31.7299L28.5292 31.8113C28.4998 31.9131 28.5096 31.9233 28.5685 31.8419Z" fill="#D49836"/>
<path d="M35.7452 31.8216C35.8433 31.7198 35.9511 31.6587 36.0491 31.6383C36.0982 31.6282 36.1178 31.6485 36.1276 31.6892L36.1472 31.8623C36.1472 31.9132 36.1276 31.9437 36.0785 31.9437C35.6668 31.9335 35.7746 32.585 35.7844 32.8701C35.7844 32.8904 35.7746 32.9006 35.755 32.9006L35.4903 32.8904C35.4805 32.8904 35.4707 32.8803 35.4707 32.8701V31.7198C35.4707 31.6892 35.4903 31.6689 35.5197 31.6689H35.6864C35.7158 31.6689 35.7354 31.6892 35.7354 31.7198C35.7354 31.7503 35.7354 31.7809 35.7256 31.8114C35.6766 31.8623 35.6962 31.8725 35.7452 31.8216Z" fill="#D49836"/>
<path d="M29.6856 32.0858C29.7543 32.0858 29.7739 32.0553 29.7346 31.9942L29.715 31.9739C29.6856 31.9332 29.6562 31.9128 29.617 31.8924C29.4896 31.8517 29.3719 31.8619 29.2641 31.9332C29.2248 31.9535 29.1954 31.9433 29.1758 31.9128L29.1366 31.8314C29.117 31.7906 29.1268 31.7601 29.166 31.7296C29.2543 31.6787 29.3817 31.6583 29.568 31.6583C30.2052 31.6481 30.0386 32.4218 30.0386 32.8391C30.0386 32.8697 30.019 32.89 29.9896 32.9002C29.9013 32.9104 29.8229 32.89 29.7445 32.8391C29.715 32.8188 29.6954 32.8188 29.666 32.8391C29.068 33.2769 28.6366 32.1062 29.6856 32.0858ZM29.7445 32.4523C29.7543 32.3811 29.6954 32.3098 29.6268 32.3098C29.617 32.3098 29.617 32.3098 29.6072 32.3098C29.4797 32.3098 29.3915 32.3709 29.3425 32.4829C29.3033 32.5541 29.3425 32.6457 29.4111 32.6864C29.4307 32.6966 29.4503 32.6966 29.4699 32.6966C29.6366 32.6966 29.7347 32.6152 29.7445 32.4523Z" fill="#D49836"/>
<path d="M30.6564 31.801L30.7545 31.7195C30.7839 31.6992 30.8133 31.6788 30.8427 31.6686C31.578 31.4752 31.4015 32.4525 31.4113 32.8393C31.4113 32.8698 31.4015 32.88 31.3721 32.88L31.1466 32.8698C31.127 32.8698 31.1172 32.8596 31.1172 32.8393V32.0758C31.1172 31.974 31.0486 31.8926 30.9505 31.8926H30.8819C30.7643 31.8824 30.6662 31.974 30.6564 32.1063V32.1165V32.8495C30.6564 32.8698 30.6466 32.88 30.627 32.88L30.3917 32.8902C30.3721 32.8902 30.3623 32.88 30.3623 32.8596V31.7195C30.3623 31.6788 30.3819 31.6584 30.4309 31.6584C30.578 31.6686 30.6466 31.7093 30.6466 31.7908C30.627 31.8111 30.6368 31.8111 30.6564 31.801Z" fill="#D49836"/>
<path d="M32.0588 32.6962C32.2745 32.574 32.2647 32.4722 32.0196 32.4111C31.6274 32.3093 31.5196 31.78 31.9706 31.6578C32.0294 31.6375 32.147 31.6375 32.3137 31.6578C32.3921 31.668 32.4215 31.7087 32.4215 31.78V31.8207C32.4215 31.892 32.3823 31.9225 32.3137 31.892C32.2157 31.8513 32.147 31.8411 32.098 31.8614C31.8823 31.9327 31.8823 32.0141 32.0882 32.1159C32.1372 32.1363 32.2059 32.177 32.2843 32.2177C32.5588 32.3602 32.5392 32.7267 32.2745 32.8692C32.1176 32.9507 31.9215 32.9507 31.696 32.859C31.6568 32.8387 31.6372 32.8183 31.647 32.7674L31.6764 32.6453C31.6862 32.6249 31.7059 32.6046 31.7353 32.6147C31.7353 32.6147 31.7451 32.6147 31.7451 32.6249C31.8921 32.7064 32 32.7369 32.0588 32.6962Z" fill="#D49836"/>
<path d="M33.01 31.8011C33.2845 31.5568 33.6374 31.6077 33.8139 31.9436C34.0688 32.4424 33.6668 33.1856 33.0492 32.8191C33.01 32.7987 32.9904 32.8089 33.0002 32.8496L33.01 33.3383C33.01 33.3688 33.0002 33.3892 32.9708 33.3892H32.7551C32.7257 33.3892 32.7061 33.3688 32.7061 33.3383V31.6993C32.7061 31.6688 32.7257 31.6484 32.7551 31.6484L32.9315 31.6586C32.9512 31.6586 32.9708 31.679 32.9708 31.6993V31.7808C32.9806 31.8113 32.9904 31.8215 33.01 31.8011ZM33.2747 32.6766C33.4315 32.6868 33.5688 32.5137 33.5786 32.2898C33.5884 32.076 33.461 31.8928 33.3041 31.8826C33.1472 31.8724 33.01 32.0454 33.0002 32.2694C32.9904 32.4933 33.1178 32.6766 33.2747 32.6766Z" fill="#D49836"/>
<path d="M35.2548 32.279C35.2548 32.6353 34.9803 32.9203 34.6372 32.9203C34.294 32.9203 34.0195 32.6353 34.0195 32.279C34.0195 31.9227 34.294 31.6377 34.6372 31.6377C34.9803 31.6377 35.2548 31.9329 35.2548 32.279ZM34.6372 32.6964C34.794 32.6964 34.9215 32.5131 34.9215 32.2892C34.9215 32.0652 34.794 31.882 34.6372 31.882C34.4803 31.882 34.3529 32.0652 34.3529 32.2892C34.3529 32.5131 34.4803 32.6964 34.6372 32.6964Z" fill="#D49836"/>
<path d="M37.8236 32.0345C37.8138 31.8207 37.4707 31.8512 37.3334 31.9225C37.2942 31.9429 37.255 31.9225 37.2354 31.8818C37.2354 31.8818 37.2354 31.8818 37.2354 31.8716L37.2256 31.8207C37.206 31.7596 37.2256 31.7189 37.2844 31.6985C37.6668 31.556 38.1178 31.5967 38.1276 32.1261C38.1276 32.3602 38.1276 32.5944 38.1374 32.8285C38.1374 32.859 38.1276 32.8794 38.0883 32.8794C38.0001 32.8896 37.9119 32.8692 37.8334 32.8285C37.804 32.8183 37.7844 32.8183 37.755 32.8285C37.1668 33.256 36.7158 32.0854 37.7844 32.0854C37.8138 32.0956 37.8236 32.0752 37.8236 32.0345ZM37.4413 32.4518C37.3923 32.5129 37.4021 32.6147 37.4707 32.6554C37.4903 32.6758 37.5197 32.686 37.5491 32.686C37.6864 32.6962 37.7746 32.6453 37.8334 32.5129C37.8531 32.4518 37.8433 32.3806 37.7844 32.35C37.6668 32.2584 37.5589 32.2991 37.4413 32.4518Z" fill="#D49836"/>
<path d="M39.2941 31.6582H39.5294C39.549 31.6582 39.5686 31.6786 39.5686 31.6989V32.8492C39.5686 32.8696 39.549 32.8899 39.5294 32.8899H39.2941C39.2745 32.8899 39.2549 32.8696 39.2549 32.8492V31.6989C39.2549 31.6786 39.2745 31.6582 39.2941 31.6582Z" fill="#D49836"/>
<path d="M40.9802 32.3606C40.9802 32.666 40.7449 32.9205 40.441 32.9205H40.3332C40.039 32.9205 39.7939 32.6762 39.7939 32.3606V32.2181C39.7939 31.9127 40.0292 31.6582 40.3332 31.6582H40.441C40.7351 31.6582 40.9802 31.9025 40.9802 32.2181V32.3606ZM40.3822 32.6965C40.539 32.6965 40.6763 32.5133 40.6763 32.2893C40.6763 32.0654 40.5488 31.8822 40.392 31.872C40.2351 31.872 40.0979 32.0552 40.0979 32.2792C40.0979 32.5031 40.2253 32.6965 40.3822 32.6965Z" fill="#D49836"/>
<path d="M41.5394 31.7806C42.4119 31.2207 42.2845 32.4117 42.2845 32.8495C42.2845 32.88 42.2649 32.8902 42.2453 32.8902L42.01 32.88C42.0002 32.88 41.9904 32.8698 41.9904 32.8596L41.9806 32.0758C41.9806 31.9638 41.8923 31.8824 41.7845 31.8824C41.7551 31.8824 41.7355 31.8926 41.7061 31.9028C41.4315 32.0351 41.5296 32.6153 41.5296 32.8596C41.5296 32.88 41.5198 32.8902 41.5002 32.8902H41.2355C41.2159 32.8902 41.2061 32.88 41.2061 32.8596V31.7297C41.2061 31.6992 41.2159 31.689 41.2453 31.6788C41.3629 31.6279 41.4414 31.6585 41.4806 31.7704C41.4904 31.7908 41.51 31.7908 41.5394 31.7806Z" fill="#D49836"/>
</g>
<defs>
<clipPath id="clip0_778_101323">
<rect width="50" height="34" fill="white"/>
</clipPath>
</defs>
</svg>
