<svg width="9" height="9" viewBox="0 0 9 9" fill="none" xmlns="http://www.w3.org/2000/svg">
<g id="menu">
<rect x="0.25" y="0.25" width="8.5" height="8.5" rx="4.25" fill="white"/>
<rect x="0.25" y="0.25" width="8.5" height="8.5" rx="4.25" stroke="white" stroke-width="0.5"/>
<g id="vuesax/outline/menu">
<g id="menu_2">
<path id="Vector" d="M7.12505 3.05339H1.875C1.75542 3.05339 1.65625 2.93769 1.65625 2.79818C1.65625 2.65866 1.75542 2.54297 1.875 2.54297H7.12505C7.24464 2.54297 7.34381 2.65866 7.34381 2.79818C7.34381 2.93769 7.24464 3.05339 7.12505 3.05339Z" fill="black" fill-opacity="0.92"/>
<path id="Vector_2" d="M7.12505 4.75456H1.875C1.75542 4.75456 1.65625 4.63887 1.65625 4.49935C1.65625 4.35984 1.75542 4.24414 1.875 4.24414H7.12505C7.24464 4.24414 7.34381 4.35984 7.34381 4.49935C7.34381 4.63887 7.24464 4.75456 7.12505 4.75456Z" fill="black" fill-opacity="0.92"/>
<path id="Vector_3" d="M7.12505 6.45573H1.875C1.75542 6.45573 1.65625 6.34004 1.65625 6.20052C1.65625 6.06101 1.75542 5.94531 1.875 5.94531H7.12505C7.24464 5.94531 7.34381 6.06101 7.34381 6.20052C7.34381 6.34004 7.24464 6.45573 7.12505 6.45573Z" fill="black" fill-opacity="0.92"/>
</g>
</g>
</g>
</svg>
