<svg width="42" height="42" viewBox="0 0 42 42" fill="none" xmlns="http://www.w3.org/2000/svg">
<rect width="42" height="42" rx="21" fill="#FCF4D7"/>
<path d="M24.59 21.4V25.47C24.59 25.83 24.55 26.17 24.46 26.48C24.09 27.95 22.87 28.87 21.19 28.87H18.47L15.45 30.88C15 31.19 14.4 30.86 14.4 30.32V28.87C13.38 28.87 12.53 28.53 11.94 27.94C11.34 27.34 11 26.49 11 25.47V21.4C11 19.5 12.18 18.19 14 18.02C14.13 18.01 14.26 18 14.4 18H21.19C23.23 18 24.59 19.36 24.59 21.4Z" fill="#D49836"/>
<path d="M26.75 24.6C28.02 24.6 29.09 24.18 29.83 23.43C30.58 22.69 31 21.62 31 20.35V15.25C31 12.9 29.1 11 26.75 11H18.25C15.9 11 14 12.9 14 15.25V16C14 16.28 14.22 16.5 14.5 16.5H21.19C23.9 16.5 26.09 18.69 26.09 21.4V24.1C26.09 24.38 26.31 24.6 26.59 24.6H26.75Z" fill="#D49836"/>
</svg>
