<svg width="25" height="24" viewBox="0 0 25 24" fill="none" xmlns="http://www.w3.org/2000/svg">
<g id="vuesax/linear/notification">
<g id="notification">
<path id="Vector" d="M12.5196 2.91016C9.2096 2.91016 6.5196 5.60016 6.5196 8.91016V11.8002C6.5196 12.4102 6.2596 13.3402 5.9496 13.8602L4.7996 15.7702C4.0896 16.9502 4.5796 18.2602 5.8796 18.7002C10.1896 20.1402 14.8396 20.1402 19.1496 18.7002C20.3596 18.3002 20.8896 16.8702 20.2296 15.7702L19.0796 13.8602C18.7796 13.3402 18.5196 12.4102 18.5196 11.8002V8.91016C18.5196 5.61016 15.8196 2.91016 12.5196 2.91016Z" stroke="#A1AECB" stroke-width="1.5" stroke-miterlimit="10" stroke-linecap="round"/>
<path id="Vector_2" d="M14.3699 3.20043C14.0599 3.11043 13.7399 3.04043 13.4099 3.00043C12.4499 2.88043 11.5299 2.95043 10.6699 3.20043C10.9599 2.46043 11.6799 1.94043 12.5199 1.94043C13.3599 1.94043 14.0799 2.46043 14.3699 3.20043Z" stroke="#A1AECB" stroke-width="1.5" stroke-miterlimit="10" stroke-linecap="round" stroke-linejoin="round"/>
<path id="Vector_3" d="M15.5195 19.0596C15.5195 20.7096 14.1695 22.0596 12.5195 22.0596C11.6995 22.0596 10.9395 21.7196 10.3995 21.1796C9.85953 20.6396 9.51953 19.8796 9.51953 19.0596" stroke="#A1AECB" stroke-width="1.5" stroke-miterlimit="10"/>
</g>
</g>
</svg>
