<svg width="24" height="25" viewBox="0 0 24 25" fill="none" xmlns="http://www.w3.org/2000/svg">
<g id="vuesax/linear/routing">
<g id="routing">
<path id="Vector" d="M2.07006 5.10086C2.87006 1.64086 8.08006 1.64086 8.87006 5.10086C9.34006 7.13086 8.05006 8.85086 6.93006 9.92086C6.11006 10.7009 4.82006 10.6909 4.00006 9.92086C2.89006 8.85086 1.60006 7.13086 2.07006 5.10086Z" stroke="#5F6E91" stroke-width="1.5"/>
<path id="Vector_2" d="M15.07 17.1009C15.87 13.6409 21.11 13.6409 21.91 17.1009C22.38 19.1309 21.09 20.8509 19.96 21.9209C19.14 22.7009 17.84 22.6909 17.02 21.9209C15.89 20.8509 14.6 19.1309 15.07 17.1009Z" stroke="#5F6E91" stroke-width="1.5"/>
<path id="Vector_3" d="M11.9997 5.5H14.6797C16.5297 5.5 17.3897 7.79 15.9997 9.01L8.0097 16C6.6197 17.21 7.4797 19.5 9.3197 19.5H11.9997" stroke="#5F6E91" stroke-width="1.5" stroke-linecap="round" stroke-linejoin="round"/>
<path id="Vector_4" d="M5.48573 6H5.49728" stroke="#5F6E91" stroke-width="2" stroke-linecap="round" stroke-linejoin="round"/>
<path id="Vector_5" d="M18.4857 18H18.4973" stroke="#5F6E91" stroke-width="2" stroke-linecap="round" stroke-linejoin="round"/>
</g>
</g>
</svg>
