<svg width="14" height="14" viewBox="0 0 14 14" fill="none" xmlns="http://www.w3.org/2000/svg">
<g id="Search results for Seats - Flaticon-12 1">
<g id="Group">
<path id="Vector" d="M4.97714 11.7878C5.42405 11.6819 5.70043 11.2337 5.59446 10.7868C5.48848 10.3399 5.04028 10.0635 4.59338 10.1694C4.14647 10.2754 3.87009 10.7236 3.97606 11.1705C4.08204 11.6174 4.53023 11.8938 4.97714 11.7878Z" fill="#D49836"/>
<path id="Vector_2" d="M4.78378 9.95305C4.96768 9.94989 5.14888 9.99756 5.30741 10.0908C5.46594 10.1841 5.59564 10.3193 5.68223 10.4815C5.82047 10.3674 5.93306 10.2253 6.01262 10.0647C6.09218 9.904 6.13692 9.72835 6.14391 9.5492C6.16373 9.13396 6.05585 8.72262 5.83479 8.37055C5.59728 7.99463 5.38508 7.60331 5.1996 7.19918C4.88283 6.51153 4.65465 5.78644 4.52053 5.04131C4.4966 4.90969 4.47067 4.78305 4.44275 4.66339C4.39558 4.45559 4.2792 4.26998 4.11269 4.13699C3.94619 4.00401 3.73945 3.93154 3.52636 3.93147C3.48348 3.93147 3.44459 3.93546 3.40271 3.93945L3.38675 3.94044C3.34551 3.94689 3.30466 3.95565 3.2644 3.96667V3.55953C3.48473 3.55632 3.69656 3.47405 3.8613 3.32771C4.02604 3.18137 4.1327 2.98071 4.16185 2.76229L4.30813 1.65494C4.33984 1.41377 4.27461 1.16986 4.12675 0.976709C3.97889 0.783556 3.76046 0.656921 3.51938 0.62457C3.48049 0.619584 2.67278 0.522261 2.48831 1.41432L2.34172 2.52247C2.31173 2.7521 2.36958 2.98457 2.50369 3.17336C2.6378 3.36214 2.83827 3.49331 3.06497 3.54058V4.04186C2.82831 4.15555 2.64057 4.35074 2.53618 4.59164C2.43178 4.83254 2.41772 5.103 2.49658 5.35343L4.01726 10.2954C4.11326 10.187 4.23132 10.1004 4.36352 10.0414C4.49571 9.98232 4.639 9.95221 4.78378 9.95305ZM11.6463 10.5444C11.6284 10.3925 11.5799 10.2459 11.5036 10.1134C11.4273 9.98086 11.3249 9.86525 11.2025 9.77356C11.0814 9.67947 10.9427 9.61053 10.7946 9.57081C10.6465 9.53108 10.4919 9.52136 10.34 9.54222L6.21471 10.0927C6.11872 10.3219 5.96351 10.5215 5.76499 10.671C5.79817 10.7721 5.815 10.8778 5.81485 10.9841C5.81456 11.2575 5.70585 11.5196 5.51255 11.713C5.31926 11.9063 5.05718 12.0151 4.78378 12.0155C4.74988 12.0155 4.71697 12.0135 4.68406 12.0105V12.4333H10.9024C10.9024 12.4333 11.8149 12.0442 11.6463 10.5444ZM4.68406 12.6324V12.771C4.68422 12.9326 4.74846 13.0875 4.86269 13.2017C4.97692 13.3159 5.13179 13.3801 5.29333 13.3803H10.3639C10.5253 13.3799 10.68 13.3156 10.794 13.2014C10.908 13.0872 10.9721 12.9324 10.9722 12.771V12.6265L10.9632 12.6324H4.68406Z" fill="#D49836"/>
</g>
</g>
</svg>
