<svg width="16" height="16" viewBox="0 0 16 16" fill="none" xmlns="http://www.w3.org/2000/svg">
<path d="M13.3997 6.1463C12.193 6.1463 11.6997 5.29297 12.2997 4.2463C12.6463 3.63963 12.4397 2.8663 11.833 2.51963L10.6797 1.85963C10.153 1.5463 9.47301 1.73297 9.15967 2.25963L9.08634 2.3863C8.48634 3.43297 7.49967 3.43297 6.89301 2.3863L6.81967 2.25963C6.51967 1.73297 5.83967 1.5463 5.31301 1.85963L4.15967 2.51963C3.55301 2.8663 3.34634 3.6463 3.69301 4.25297C4.29967 5.29297 3.80634 6.1463 2.59967 6.1463C1.90634 6.1463 1.33301 6.71297 1.33301 7.41297V8.5863C1.33301 9.27963 1.89967 9.85297 2.59967 9.85297C3.80634 9.85297 4.29967 10.7063 3.69301 11.753C3.34634 12.3596 3.55301 13.133 4.15967 13.4796L5.31301 14.1396C5.83967 14.453 6.51967 14.2663 6.83301 13.7396L6.90634 13.613C7.50634 12.5663 8.49301 12.5663 9.09967 13.613L9.17301 13.7396C9.48634 14.2663 10.1663 14.453 10.693 14.1396L11.8463 13.4796C12.453 13.133 12.6597 12.353 12.313 11.753C11.7063 10.7063 12.1997 9.85297 13.4063 9.85297C14.0997 9.85297 14.673 9.2863 14.673 8.5863V7.41297C14.6663 6.71963 14.0997 6.1463 13.3997 6.1463ZM7.99967 10.1663C6.80634 10.1663 5.83301 9.19297 5.83301 7.99963C5.83301 6.8063 6.80634 5.83297 7.99967 5.83297C9.19301 5.83297 10.1663 6.8063 10.1663 7.99963C10.1663 9.19297 9.19301 10.1663 7.99967 10.1663Z" fill="#8491B0"/>
</svg>
