<svg width="60" height="60" viewBox="0 0 60 60" fill="none" xmlns="http://www.w3.org/2000/svg">
<mask id="mask0_778_102284" style="mask-type:alpha" maskUnits="userSpaceOnUse" x="0" y="0" width="60" height="60">
<rect width="60" height="60" fill="#D9D9D9"/>
</mask>
<g mask="url(#mask0_778_102284)">
<path d="M29.9957 45.6836L19.6206 51.9336C19.1623 52.2253 18.6831 52.3503 18.1831 52.3086C17.6831 52.2669 17.2456 52.1003 16.8706 51.8086C16.4956 51.5169 16.204 51.1523 15.9956 50.7148C15.7873 50.2773 15.7456 49.7878 15.8706 49.2461L18.6206 37.4336L9.43314 29.4961C9.01648 29.1211 8.75606 28.694 8.65189 28.2148C8.54773 27.7357 8.57898 27.2669 8.74564 26.8086C8.91231 26.3503 9.16231 25.9753 9.49564 25.6836C9.82898 25.3919 10.2873 25.2044 10.8706 25.1211L22.9957 24.0586L27.6832 12.9336C27.8915 12.4336 28.2144 12.0586 28.6519 11.8086C29.0894 11.5586 29.5373 11.4336 29.9957 11.4336C30.454 11.4336 30.9019 11.5586 31.3394 11.8086C31.7769 12.0586 32.0998 12.4336 32.3082 12.9336L36.9957 24.0586L49.1207 25.1211C49.704 25.2044 50.1623 25.3919 50.4957 25.6836C50.829 25.9753 51.079 26.3503 51.2457 26.8086C51.4123 27.2669 51.4436 27.7357 51.3394 28.2148C51.2352 28.694 50.9748 29.1211 50.5582 29.4961L41.3707 37.4336L44.1207 49.2461C44.2457 49.7878 44.204 50.2773 43.9957 50.7148C43.7873 51.1523 43.4957 51.5169 43.1207 51.8086C42.7457 52.1003 42.3082 52.2669 41.8082 52.3086C41.3082 52.3503 40.829 52.2253 40.3707 51.9336L29.9957 45.6836Z" fill="#FFD809"/>
</g>
</svg>
