<svg width="46" height="44" viewBox="0 0 46 44" fill="none" xmlns="http://www.w3.org/2000/svg">
<path d="M24.3175 43.9933C36.2925 43.9933 46.0001 34.2856 46.0001 22.3106C46.0001 10.3356 36.2925 0.62793 24.3175 0.62793C12.3424 0.62793 2.63477 10.3356 2.63477 22.3106C2.63477 34.2856 12.3424 43.9933 24.3175 43.9933Z" fill="url(#paint0_linear_1761_14689)"/>
<path d="M39.5842 10.9064C38.8402 10.3599 38.0513 9.85864 37.2246 9.40342C36.7693 8.57659 36.268 7.78773 35.7214 7.04371C32.6864 2.9121 28.6361 0.636719 24.3169 0.636719C19.9976 0.636719 15.9473 2.9121 12.9123 7.04371C12.3657 7.78773 11.8645 8.57668 11.4093 9.40342C10.5824 9.85864 9.79359 10.3599 9.04957 10.9064C4.91795 13.9415 2.64258 17.9917 2.64258 22.311C2.64258 26.6303 4.91795 30.6806 9.04957 33.7156C9.79359 34.2622 10.5825 34.7634 11.4093 35.2186C11.8645 36.0454 12.3657 36.8343 12.9123 37.5783C15.9474 41.7099 19.9976 43.9853 24.3169 43.9853C28.6361 43.9853 32.6864 41.7099 35.7214 37.5783C36.268 36.8343 36.7693 36.0454 37.2246 35.2185C38.0513 34.7633 38.8402 34.2621 39.5842 33.7155C43.7158 30.6805 45.9912 26.6302 45.9912 22.3109C45.9912 17.9916 43.7158 13.9415 39.5842 10.9064ZM24.3169 42.965C23.1266 42.965 21.8649 41.1919 20.8674 38.1663C21.9979 38.2993 23.1503 38.3682 24.3169 38.3682C25.4835 38.3682 26.6358 38.2993 27.7663 38.1663C26.7689 41.1919 25.5072 42.965 24.3169 42.965ZM24.3169 37.3479C23.0273 37.3479 21.7652 37.2606 20.5404 37.0951C19.8606 34.6916 19.3671 31.8064 19.0847 28.6564C20.7755 28.7773 22.5297 28.8396 24.3169 28.8396C26.104 28.8396 27.8582 28.7773 29.5491 28.6564C29.2667 31.8064 28.7732 34.6915 28.0935 37.0951C26.8417 37.2638 25.58 37.3483 24.3169 37.3479ZM24.3169 1.65711C25.5072 1.65711 26.7689 3.43027 27.7663 6.45581C26.6358 6.32277 25.4835 6.25386 24.3169 6.25386C23.1503 6.25386 21.9979 6.32277 20.8674 6.45581C21.8649 3.43018 23.1266 1.65711 24.3169 1.65711ZM24.3169 7.27425C25.6066 7.27425 26.8686 7.36156 28.0935 7.52707C28.7732 9.93061 29.2667 12.8157 29.5491 15.9657C27.8582 15.8449 26.104 15.7825 24.3169 15.7825C22.5297 15.7825 20.7756 15.8449 19.0847 15.9657C19.367 12.8157 19.8606 9.93061 20.5404 7.52707C21.7921 7.35834 23.0538 7.27387 24.3169 7.27425ZM18.8086 22.311C18.8086 20.4918 18.8742 18.7089 19.0006 16.9948C20.7148 16.8683 22.4975 16.8027 24.3169 16.8027C26.1361 16.8027 27.9189 16.8683 29.6331 16.9948C29.7596 18.7089 29.8251 20.4917 29.8251 22.311C29.8251 24.1304 29.7596 25.9131 29.6331 27.6272C27.9189 27.7536 26.1361 27.8192 24.3169 27.8192C22.4976 27.8192 20.7148 27.7536 19.0006 27.6272C18.8742 25.9132 18.8086 24.1304 18.8086 22.311ZM17.9715 27.5432C14.8215 27.2609 11.9363 26.7673 9.53284 26.0875C9.36742 24.8627 9.28002 23.6006 9.28002 22.311C9.28002 21.0214 9.36733 19.7594 9.53284 18.5345C11.9363 17.8548 14.8215 17.3612 17.9715 17.0788C17.8506 18.7696 17.7883 20.5239 17.7883 22.311C17.7883 24.0982 17.8505 25.8524 17.9715 27.5432ZM30.6623 17.0789C33.8124 17.3612 36.6975 17.8548 39.101 18.5346C39.2664 19.7595 39.3538 21.0215 39.3538 22.3111C39.3538 23.6007 39.2665 24.8628 39.101 26.0876C36.6975 26.7674 33.8124 27.2609 30.6623 27.5433C30.7832 25.8525 30.8455 24.0983 30.8455 22.3111C30.8455 20.5239 30.7832 18.7697 30.6623 17.0789ZM30.5805 16.0474C30.3118 12.9598 29.8435 10.1127 29.1987 7.6997C31.8595 8.17098 34.3201 9.01828 36.4681 10.1599C37.6097 12.3079 38.457 14.7684 38.9283 17.4292C36.5153 16.7845 33.6681 16.3161 30.5805 16.0474ZM18.0532 16.0474C14.9656 16.3161 12.1185 16.7845 9.70547 17.4292C10.1767 14.7684 11.024 12.3079 12.1657 10.1599C14.3137 9.01828 16.7741 8.17098 19.4349 7.6997C18.7903 10.1127 18.322 12.9598 18.0532 16.0474ZM8.46158 25.7605C5.43604 24.763 3.66288 23.5013 3.66288 22.311C3.66288 21.1207 5.43595 19.859 8.46158 18.8616C8.32863 19.9921 8.25963 21.1444 8.25963 22.311C8.25963 23.4776 8.32863 24.63 8.46158 25.7605ZM18.0532 28.5747C18.3219 31.6623 18.7903 34.5094 19.4349 36.9224C16.7741 36.4511 14.3137 35.6038 12.1657 34.4622C11.024 32.3142 10.1767 29.8538 9.70547 27.193C12.1186 27.8376 14.9657 28.306 18.0532 28.5747ZM30.5805 28.5747C33.6681 28.306 36.5153 27.8376 38.9283 27.193C38.457 29.8538 37.6097 32.3142 36.4681 34.4622C34.3201 35.6039 31.8596 36.4511 29.1987 36.9224C29.8435 34.5094 30.3118 31.6622 30.5805 28.5747ZM40.1722 18.8616C43.1977 19.8591 44.9708 21.1207 44.9708 22.3111C44.9708 23.5014 43.1977 24.7631 40.1722 25.7606C40.3067 24.6157 40.3741 23.4639 40.374 22.3111C40.3742 21.1583 40.3068 20.0065 40.1722 18.8616ZM44.7299 20.0132C43.7315 19.1618 42.1489 18.3965 40.0181 17.7417C39.6471 15.3923 38.9902 13.1539 38.0709 11.1038C41.5595 13.3754 43.9857 16.4948 44.7299 20.0132ZM35.5243 8.55711C33.4741 7.63774 31.2357 6.98093 28.8863 6.60977C28.2315 4.47889 27.4662 2.89631 26.6148 1.89793C30.1332 2.64223 33.2526 5.06841 35.5243 8.55711ZM22.019 1.89802C21.1677 2.8964 20.4024 4.47898 19.7475 6.60986C17.3981 6.98093 15.1597 7.63774 13.1096 8.55711C15.3812 5.06841 18.5006 2.64223 22.019 1.89802ZM10.5629 11.1037C9.6436 13.1539 8.9867 15.3923 8.61563 17.7417C6.48475 18.3965 4.90217 19.1618 3.90379 20.0132C4.648 16.4948 7.07427 13.3754 10.5629 11.1037ZM3.90379 24.6089C4.90217 25.4603 6.48475 26.2256 8.61563 26.8804C8.9867 29.2299 9.6436 31.4683 10.5629 33.5184C7.07427 31.2467 4.648 28.1273 3.90379 24.6089ZM13.1095 36.065C15.1596 36.9844 17.398 37.6412 19.7475 38.0123C20.4023 40.1431 21.1676 41.7257 22.019 42.7241C18.5006 41.9799 15.3812 39.5536 13.1095 36.065ZM26.6147 42.7241C27.4661 41.7257 28.2314 40.1431 28.8862 38.0123C31.2356 37.6412 33.474 36.9843 35.5242 36.065C33.2526 39.5536 30.1332 41.9799 26.6147 42.7241ZM38.0709 33.5184C38.9902 31.4683 39.6471 29.2299 40.0181 26.8805C42.149 26.2257 43.7316 25.4604 44.7299 24.609C43.9857 28.1273 41.5595 31.2467 38.0709 33.5184Z" fill="url(#paint1_linear_1761_14689)"/>
<path d="M16.8597 1.94495C11.431 3.93341 7.01952 8.03075 4.61625 13.2447C4.33141 13.8626 4.19043 14.5371 4.19043 15.2176C4.19045 16.4849 4.69389 17.7003 5.59 18.5965L6.03314 19.0396C7.01646 20.023 8.18383 20.803 9.46861 21.3351C10.7534 21.8673 12.1304 22.1412 13.521 22.1412C13.6215 22.1423 13.7212 22.1235 13.8143 22.0858C13.9074 22.0481 13.9922 21.9923 14.0636 21.9217C14.135 21.851 14.1917 21.7669 14.2304 21.6742C14.2691 21.5815 14.289 21.482 14.289 21.3815C14.289 21.2811 14.2691 21.1816 14.2304 21.0889C14.1917 20.9962 14.135 20.9121 14.0636 20.8414C13.9922 20.7708 13.9074 20.715 13.8143 20.6773C13.7212 20.6396 13.6215 20.6208 13.521 20.6219H11.1858C10.1087 20.6219 9.23555 19.7488 9.23555 18.6716C9.23555 17.5946 10.1086 16.7214 11.1858 16.7214H13.0097C14.0926 16.7214 15.1649 16.5081 16.1654 16.0937C17.1659 15.6793 18.075 15.0719 18.8407 14.3061L21.6569 11.49C22.2702 10.8767 23.1019 10.5322 23.9692 10.5322C24.584 10.5322 25.1864 10.3588 25.7072 10.0321C26.228 9.70528 26.6461 9.23828 26.9135 8.68467C27.5824 7.30016 26.5738 5.6926 25.0362 5.6926H21.4026C20.3344 5.6926 19.4683 4.82663 19.4683 3.75825C19.4682 2.41018 18.1257 1.48125 16.8597 1.94495Z" fill="url(#paint2_linear_1761_14689)"/>
<path d="M45.4955 17.6394C45.1961 16.2759 43.9769 15.3115 42.581 15.3115H37.8906C35.1135 15.3115 32.8623 17.5627 32.8623 20.3398V20.9516C32.8623 23.3907 34.8397 25.3681 37.2788 25.3681C38.519 25.3681 39.5245 26.3735 39.5245 27.6137V33.4777C39.5245 35.0058 41.5086 35.6146 42.3578 34.3442C44.1226 31.7041 45.3231 28.6544 45.787 25.3681C45.9291 24.3554 46.0005 23.334 46.0004 22.3113C46.0003 20.7071 45.8259 19.144 45.4955 17.6394Z" fill="url(#paint3_linear_1761_14689)"/>
<path d="M34.0162 2.91504C35.4786 5.83369 36.3029 9.12756 36.3029 12.6144C36.3029 24.5893 26.5953 34.2971 14.6202 34.2971C11.1334 34.2971 7.83955 33.4728 4.9209 32.0103C8.48094 39.1154 15.8287 43.9937 24.3168 43.9937C36.2918 43.9937 45.9995 34.2861 45.9995 22.311C45.9995 13.8228 41.1213 6.47508 34.0162 2.91504Z" fill="url(#paint4_linear_1761_14689)"/>
<path d="M35.2611 13.3516C34.174 12.2645 31.4716 13.1636 26.3268 17.9688L23.3203 17.5983L22.349 16.5963C21.83 16.0773 20.9884 16.0773 20.4694 16.5963C20.3493 16.7166 20.2536 16.8589 20.1878 17.0156L19.4145 16.2376C18.8954 15.7185 18.0539 15.7185 17.5348 16.2376C17.3677 16.4048 17.2484 16.6138 17.1895 16.8428L16.0267 16.6995C15.7495 16.6653 15.4313 16.7921 15.1908 17.0327L13.2005 19.023C12.9905 19.233 12.9915 19.5356 13.2026 19.6266L19.1922 25.4797C17.446 27.511 15.8505 29.5198 14.6255 31.2509L11.6438 30.8462C11.5241 30.83 11.3857 30.8844 11.2813 30.9888L10.3524 31.9177C10.1731 32.097 10.1571 32.3542 10.3188 32.4581L12.5581 34.631C12.1821 35.4534 12.0785 36.0359 12.3277 36.2851L19.4984 43.4558C21.0797 43.8143 22.6961 43.9949 24.3175 43.9941C35.7162 43.9941 45.06 35.1982 45.9331 24.0236L35.2611 13.3516Z" fill="url(#paint5_linear_1761_14689)"/>
<path d="M18.4746 18.5059C19.2087 18.5059 19.8038 17.9108 19.8038 17.1768C19.8038 16.4427 19.2087 15.8477 18.4746 15.8477C17.7406 15.8477 17.1455 16.4427 17.1455 17.1768C17.1455 17.9108 17.7406 18.5059 18.4746 18.5059Z" fill="url(#paint6_linear_1761_14689)"/>
<path d="M18.4746 18.286C19.0872 18.286 19.5839 17.7894 19.5839 17.1767C19.5839 16.564 19.0872 16.0674 18.4746 16.0674C17.8619 16.0674 17.3652 16.564 17.3652 17.1767C17.3652 17.7894 17.8619 18.286 18.4746 18.286Z" fill="url(#paint7_linear_1761_14689)"/>
<path d="M19.7357 16.7568C19.6705 16.9527 19.5605 17.1306 19.4144 17.2764C18.8953 17.7954 18.0538 17.7954 17.5347 17.2764C17.3886 17.1306 17.2786 16.9527 17.2134 16.7568C17.0598 17.2191 17.1668 17.7491 17.5347 18.117C18.0538 18.6361 18.8953 18.6361 19.4144 18.117C19.7823 17.7491 19.8894 17.2192 19.7357 16.7568Z" fill="url(#paint8_linear_1761_14689)"/>
<path d="M18.4746 18.5059C19.2087 18.5059 19.8038 17.9108 19.8038 17.1768C19.8038 16.4427 19.2087 15.8477 18.4746 15.8477C17.7406 15.8477 17.1455 16.4427 17.1455 17.1768C17.1455 17.9108 17.7406 18.5059 18.4746 18.5059Z" fill="url(#paint9_linear_1761_14689)"/>
<path d="M22.3491 18.476C21.83 18.9951 20.9885 18.9951 20.4694 18.476C19.9503 17.9569 19.9503 17.1154 20.4694 16.5963C20.9885 16.0773 21.83 16.0773 22.3491 16.5963C22.8681 17.1154 22.8681 17.957 22.3491 18.476Z" fill="url(#paint10_linear_1761_14689)"/>
<path d="M21.4091 18.6454C22.0218 18.6454 22.5184 18.1487 22.5184 17.5361C22.5184 16.9234 22.0218 16.4268 21.4091 16.4268C20.7965 16.4268 20.2998 16.9234 20.2998 17.5361C20.2998 18.1487 20.7965 18.6454 21.4091 18.6454Z" fill="url(#paint11_linear_1761_14689)"/>
<path d="M22.6703 17.1152C22.6051 17.3111 22.4951 17.489 22.349 17.6348C21.8299 18.1538 20.9884 18.1538 20.4693 17.6348C20.3232 17.489 20.2131 17.3111 20.148 17.1152C19.9943 17.5775 20.1014 18.1075 20.4693 18.4754C20.9884 18.9945 21.8299 18.9945 22.349 18.4754C22.7169 18.1074 22.824 17.5775 22.6703 17.1152Z" fill="url(#paint12_linear_1761_14689)"/>
<path d="M22.3491 18.476C21.83 18.9951 20.9885 18.9951 20.4694 18.476C19.9503 17.9569 19.9503 17.1154 20.4694 16.5963C20.9885 16.0773 21.83 16.0773 22.3491 16.5963C22.8681 17.1154 22.8681 17.957 22.3491 18.476Z" fill="url(#paint13_linear_1761_14689)"/>
<path d="M31.4356 31.4669C32.1696 31.4669 32.7647 30.8718 32.7647 30.1377C32.7647 29.4037 32.1696 28.8086 31.4356 28.8086C30.7015 28.8086 30.1064 29.4037 30.1064 30.1377C30.1064 30.8718 30.7015 31.4669 31.4356 31.4669Z" fill="url(#paint14_linear_1761_14689)"/>
<path d="M31.4355 31.247C32.0482 31.247 32.5448 30.7503 32.5448 30.1376C32.5448 29.525 32.0482 29.0283 31.4355 29.0283C30.8228 29.0283 30.3262 29.525 30.3262 30.1376C30.3262 30.7503 30.8228 31.247 31.4355 31.247Z" fill="url(#paint15_linear_1761_14689)"/>
<path d="M31.8559 28.8765C31.6601 28.9417 31.4822 29.0517 31.3364 29.1978C30.8173 29.7168 30.8173 30.5584 31.3364 31.0775C31.4821 31.2236 31.6601 31.3336 31.8559 31.3987C31.3937 31.5524 30.8637 31.4454 30.4958 31.0775C29.9767 30.5584 29.9767 29.7168 30.4958 29.1978C30.8637 28.8299 31.3936 28.7229 31.8559 28.8765Z" fill="url(#paint16_linear_1761_14689)"/>
<path d="M31.4356 31.4669C32.1696 31.4669 32.7647 30.8718 32.7647 30.1377C32.7647 29.4037 32.1696 28.8086 31.4356 28.8086C30.7015 28.8086 30.1064 29.4037 30.1064 30.1377C30.1064 30.8718 30.7015 31.4669 31.4356 31.4669Z" fill="url(#paint17_linear_1761_14689)"/>
<path d="M30.1364 26.2633C29.6173 26.7824 29.6173 27.6239 30.1364 28.143C30.6555 28.6621 31.497 28.6621 32.0161 28.143C32.5351 27.6239 32.5351 26.7824 32.0161 26.2633C31.497 25.7443 30.6555 25.7443 30.1364 26.2633Z" fill="url(#paint18_linear_1761_14689)"/>
<path d="M31.0761 28.3124C31.6888 28.3124 32.1854 27.8157 32.1854 27.2031C32.1854 26.5904 31.6888 26.0938 31.0761 26.0938C30.4635 26.0938 29.9668 26.5904 29.9668 27.2031C29.9668 27.8157 30.4635 28.3124 31.0761 28.3124Z" fill="url(#paint19_linear_1761_14689)"/>
<path d="M31.4965 25.9419C31.3007 26.0071 31.1228 26.1171 30.977 26.2632C30.4579 26.7823 30.4579 27.6238 30.977 28.1429C31.1228 28.289 31.3007 28.399 31.4965 28.4642C31.0343 28.6179 30.5043 28.5108 30.1364 28.1429C29.6173 27.6238 29.6173 26.7823 30.1364 26.2632C30.5043 25.8953 31.0342 25.7883 31.4965 25.9419Z" fill="url(#paint20_linear_1761_14689)"/>
<path d="M30.1364 26.2633C29.6173 26.7824 29.6173 27.6239 30.1364 28.143C30.6555 28.6621 31.497 28.6621 32.0161 28.143C32.5351 27.6239 32.5351 26.7824 32.0161 26.2633C31.497 25.7443 30.6555 25.7443 30.1364 26.2633Z" fill="url(#paint21_linear_1761_14689)"/>
<path d="M10.3187 32.4574L13.1677 34.2878L16.0165 31.439L11.6438 30.8456C11.524 30.8294 11.3857 30.8838 11.2812 30.9882L10.3524 31.917C10.1731 32.0964 10.1571 32.3535 10.3187 32.4574Z" fill="url(#paint22_linear_1761_14689)"/>
<path d="M10.6302 31.6396L10.3524 31.9174C10.1731 32.0967 10.1571 32.3539 10.3188 32.4578L13.1677 34.2883L15.3655 32.0905L10.9928 31.497C10.873 31.4807 10.7347 31.5352 10.6302 31.6396Z" fill="url(#paint23_linear_1761_14689)"/>
<path d="M16.1547 38.2935L14.3242 35.4445L17.1731 32.5957L17.7665 36.9684C17.7827 37.0882 17.7283 37.2266 17.624 37.331L16.6951 38.2598C16.5157 38.4391 16.2586 38.4551 16.1547 38.2935Z" fill="url(#paint24_linear_1761_14689)"/>
<path d="M16.9729 37.9824L16.6951 38.2602C16.5158 38.4395 16.2586 38.4555 16.1547 38.2938L14.3242 35.4449L16.522 33.2471L17.1154 37.6198C17.1318 37.7396 17.0773 37.878 16.9729 37.9824Z" fill="url(#paint25_linear_1761_14689)"/>
<path d="M13.2019 19.6258L22.2677 23.5329L27.6672 18.1334L16.026 16.6989C15.7488 16.6647 15.4306 16.7915 15.1901 17.032L13.1998 19.0223C12.9898 19.2322 12.9908 19.5348 13.2019 19.6258Z" fill="url(#paint26_linear_1761_14689)"/>
<path d="M13.9074 18.3152L13.1999 19.0227C12.9898 19.2327 12.9908 19.5354 13.202 19.6263L22.2678 23.5334L26.3845 19.4167L14.7433 17.9821C14.4661 17.9478 14.1479 18.0746 13.9074 18.3152Z" fill="url(#paint27_linear_1761_14689)"/>
<path d="M19.0884 18.5176L14.7433 17.9821C14.4661 17.9479 14.1479 18.0747 13.9074 18.3152L13.1999 19.0227C12.9898 19.2328 12.9908 19.5354 13.202 19.6263L16.5408 21.0652L19.0884 18.5176Z" fill="url(#paint28_linear_1761_14689)"/>
<path d="M13.2019 19.626L22.2677 23.5331L24.1244 21.6764L14.0739 18.1484L13.1999 19.0224C12.9898 19.2324 12.9908 19.535 13.2019 19.626Z" fill="url(#paint29_linear_1761_14689)"/>
<path d="M28.9861 35.4096L25.0791 26.3438L30.4786 20.9443L31.9132 32.5855C31.9474 32.8628 31.8205 33.181 31.58 33.4214L29.5898 35.4116C29.3797 35.6217 29.0771 35.6207 28.9861 35.4096Z" fill="url(#paint30_linear_1761_14689)"/>
<path d="M30.2972 34.7046L29.5897 35.4121C29.3797 35.6222 29.077 35.6212 28.9861 35.4101L25.0791 26.3443L29.1958 22.2275L30.6304 33.8687C30.6646 34.146 30.5378 34.4641 30.2972 34.7046Z" fill="url(#paint31_linear_1761_14689)"/>
<path d="M30.0946 29.5234L30.63 33.8685C30.6642 34.1458 30.5374 34.4639 30.2969 34.7045L29.5894 35.412C29.3793 35.622 29.0767 35.6211 28.9858 35.4099L27.5469 32.0711L30.0946 29.5234Z" fill="url(#paint32_linear_1761_14689)"/>
<path d="M28.9861 35.4099L25.0791 26.3441L26.9359 24.4873L30.4637 34.5379L29.5897 35.4119C29.3797 35.6219 29.0771 35.6209 28.9861 35.4099Z" fill="url(#paint33_linear_1761_14689)"/>
<path d="M28.8924 24.0942C22.5596 30.427 13.5355 37.4923 12.3274 36.2842C11.1194 35.0761 18.1846 26.0522 24.5174 19.7192C30.8503 13.3864 34.0527 12.1427 35.2608 13.3508C36.469 14.5589 35.2253 17.7613 28.8924 24.0942Z" fill="url(#paint34_linear_1761_14689)"/>
<path d="M28.4233 23.9091C22.3996 29.9328 13.915 36.7517 12.8876 35.7242C11.8603 34.6968 18.6792 26.2123 24.7028 20.1886C30.7264 14.165 33.6738 12.8834 34.7011 13.9107C35.7285 14.9381 34.4468 17.8855 28.4233 23.9091Z" fill="url(#paint35_linear_1761_14689)"/>
<path d="M28.8921 24.0949C35.225 17.762 36.4687 14.5596 35.2606 13.3516L12.3271 36.285C13.5353 37.4931 22.5593 30.4278 28.8921 24.0949Z" fill="url(#paint36_linear_1761_14689)"/>
<path d="M29.8671 15.6998C29.4554 16.0587 29.0481 16.4227 28.6455 16.7917C28.5363 16.8916 28.5462 17.0467 28.6643 17.068C29.3944 17.1995 30.0536 17.5193 30.573 18.0387C31.0925 18.5582 31.4123 19.2174 31.5438 19.9475C31.5651 20.0655 31.7201 20.0755 31.8201 19.9663C32.1891 19.5636 32.5531 19.1564 32.912 18.7447C33.1418 18.4807 33.2409 18.1486 33.1664 17.8805C33.0037 17.2949 32.7092 16.7664 32.2773 16.3345C31.8452 15.9024 31.3168 15.608 30.7312 15.4453C30.4632 15.3708 30.1311 15.4699 29.8671 15.6998Z" fill="url(#paint37_linear_1761_14689)"/>
<path d="M32.9121 18.7452C32.6153 19.087 32.2978 19.4433 31.9596 19.8149L31.8207 19.9673C31.7206 20.0764 31.5654 20.0665 31.5438 19.9484C31.413 19.2178 31.0928 18.5584 30.5733 18.0389C30.5426 18.0083 30.5119 17.9785 30.4804 17.9505C30.1115 17.6087 29.6785 17.3615 29.2041 17.2046C29.6307 16.8159 30.0357 16.4533 30.4227 16.1168C30.6869 15.8868 31.0188 15.7876 31.2867 15.8625C31.6051 15.9509 31.9064 16.0781 32.1851 16.2458C32.2166 16.2747 32.2473 16.3044 32.278 16.3351C32.71 16.7672 33.0041 17.2957 33.1664 17.8811C33.2413 18.149 33.1421 18.4809 32.9121 18.7452Z" fill="url(#paint38_linear_1761_14689)"/>
<path d="M31.544 19.9479C31.5653 20.066 31.7204 20.0759 31.8203 19.9668C32.1893 19.5641 32.5533 19.1569 32.9122 18.7452C33.142 18.4812 33.2411 18.1491 33.1666 17.881C33.0039 17.2954 32.7094 16.7669 32.2775 16.335L30.5732 18.0392C31.0927 18.5587 31.4125 19.2179 31.544 19.9479Z" fill="url(#paint39_linear_1761_14689)"/>
<path d="M14.4559 34.3473L14.2653 34.1567C14.1059 33.9973 14.1606 33.6909 14.3842 33.4908L17.6759 30.544C17.8205 30.4146 18.0121 30.3941 18.1152 30.4973C18.2183 30.6004 18.198 30.7921 18.0684 30.9367L15.1217 34.2284C14.9217 34.4519 14.6153 34.5066 14.4559 34.3473Z" fill="url(#paint40_linear_1761_14689)"/>
<path d="M2.88213 41.0815C2.69289 41.0815 2.51079 41.0699 2.33716 41.0471C2.093 41.0149 1.93299 40.7754 1.99883 40.5381L2.17941 39.8863C2.23154 39.6982 2.41031 39.5734 2.6045 39.5924C2.96925 39.6282 3.42168 39.5887 3.94148 39.4751C4.04273 39.453 4.14861 39.4707 4.23717 39.5245C4.32573 39.5784 4.39018 39.6642 4.41717 39.7643L4.59116 40.4104C4.65132 40.6339 4.51107 40.8604 4.28503 40.9107C3.77443 41.0241 3.30397 41.0815 2.88213 41.0815ZM6.11872 39.8931L5.86843 39.2734C5.82886 39.1756 5.82919 39.0663 5.86936 38.9687C5.90953 38.8712 5.98632 38.7933 6.08327 38.7517C6.53696 38.5565 7.01725 38.3282 7.5182 38.0698C7.61248 38.0212 7.72212 38.0116 7.82341 38.0431C7.92471 38.0747 8.00953 38.1448 8.05956 38.2383L8.37398 38.8279C8.39912 38.8753 8.41461 38.9271 8.41956 38.9805C8.42451 39.0338 8.41881 39.0876 8.4028 39.1388C8.38679 39.1899 8.36079 39.2374 8.3263 39.2784C8.29181 39.3194 8.24952 39.3531 8.20189 39.3777C7.66243 39.656 7.14344 39.9025 6.65142 40.1138C6.4437 40.2031 6.2035 40.103 6.11872 39.8931ZM0.650855 39.3762C0.422208 39.4731 0.159286 39.3433 0.100749 39.102C0.0338235 38.8255 0 38.5236 0 38.1994C0 37.8582 0.0374314 37.4849 0.111663 37.0855C0.153965 36.8577 0.377561 36.7105 0.602961 36.7641L1.25382 36.9189C1.35406 36.9426 1.44139 37.0039 1.49787 37.0901C1.55435 37.1763 1.57569 37.2808 1.55751 37.3822C1.50321 37.6813 1.47579 37.9549 1.47579 38.1992C1.47579 38.3691 1.48905 38.5241 1.51511 38.6629C1.53262 38.7536 1.5185 38.8475 1.47512 38.9291C1.43174 39.0106 1.36172 39.0748 1.27673 39.111L0.650855 39.3762ZM9.75903 38.0482L9.41845 37.4733C9.3642 37.382 9.34816 37.273 9.37384 37.17C9.39951 37.067 9.46481 36.9782 9.55555 36.9231C10.0183 36.6424 10.4761 36.3536 10.9288 36.057C11.0179 35.9989 11.1264 35.9783 11.2306 35.9998C11.3348 36.0212 11.4264 36.083 11.4853 36.1716L11.8555 36.7279C11.885 36.7724 11.9054 36.8223 11.9155 36.8747C11.9257 36.9271 11.9253 36.981 11.9145 37.0333C11.9038 37.0855 11.8827 37.1352 11.8527 37.1793C11.8226 37.2234 11.7841 37.2611 11.7394 37.2903C11.2702 37.5977 10.7958 37.8969 10.3162 38.1877C10.2705 38.2155 10.2198 38.2338 10.167 38.2418C10.1142 38.2498 10.0603 38.2472 10.0085 38.2343C9.95666 38.2213 9.90794 38.1982 9.86512 38.1662C9.8223 38.1343 9.78624 38.0942 9.75903 38.0482ZM13.7277 35.9283C13.6843 35.9594 13.6353 35.9816 13.5833 35.9936C13.5314 36.0056 13.4775 36.0073 13.425 35.9984C13.3724 35.9895 13.3221 35.9704 13.2769 35.942C13.2318 35.9136 13.1927 35.8765 13.162 35.833M1.71048 35.4616L1.08677 35.2215C0.875353 35.1402 0.771176 34.9013 0.857494 34.6918C1.06134 34.1973 1.30198 33.6741 1.57636 33.1292C1.67774 32.9278 1.92469 32.8474 2.12466 32.9518L2.71716 33.2608C2.81111 33.3099 2.88198 33.394 2.91445 33.4949C2.94691 33.5959 2.93838 33.7055 2.89069 33.8002C2.63733 34.3038 2.41563 34.7853 2.2282 35.2387C2.18818 35.3361 2.11158 35.4141 2.0148 35.4557C1.91803 35.4974 1.80878 35.4995 1.71048 35.4616ZM3.47074 31.8969L2.89349 31.5604C2.84736 31.5336 2.80702 31.4979 2.77478 31.4553C2.74254 31.4128 2.71906 31.3643 2.70568 31.3126C2.6923 31.261 2.6893 31.2072 2.69684 31.1544C2.70438 31.1015 2.72232 31.0507 2.74963 31.0049L2.76063 30.9864C2.788 30.9405 2.82418 30.9006 2.86709 30.8688C2.90999 30.837 2.95877 30.814 3.0106 30.8012C3.06244 30.7883 3.1163 30.7859 3.16908 30.794C3.22187 30.8021 3.27252 30.8205 3.31813 30.8483L3.88853 31.1964C3.97934 31.2519 4.04456 31.341 4.07003 31.4444C4.0955 31.5477 4.07915 31.6569 4.02455 31.7483L4.0204 31.7552C3.96597 31.8465 3.87767 31.9127 3.77473 31.9392C3.67179 31.9657 3.56254 31.9505 3.47074 31.8969ZM35.9464 12.9972L35.399 12.6141C35.3117 12.5531 35.2521 12.46 35.2331 12.3552C35.2142 12.2504 35.2374 12.1424 35.2978 12.0547C35.6061 11.6082 35.9077 11.1571 36.2026 10.7016C36.2605 10.6124 36.3512 10.5496 36.4551 10.527C36.559 10.5044 36.6676 10.5238 36.7573 10.5809L37.3214 10.9391C37.3665 10.9676 37.4054 11.0049 37.436 11.0486C37.4665 11.0923 37.4882 11.1417 37.4995 11.1938C37.5109 11.2459 37.5119 11.2998 37.5023 11.3523C37.4928 11.4048 37.4729 11.4548 37.4439 11.4996C37.1399 11.9693 36.8289 12.4344 36.511 12.8948C36.4808 12.9387 36.4422 12.9763 36.3974 13.0052C36.3526 13.0342 36.3025 13.054 36.25 13.0636C36.1975 13.0731 36.1437 13.0721 36.0916 13.0607C36.0395 13.0494 35.9901 13.0278 35.9464 12.9972ZM38.148 9.58467L37.5713 9.24715C37.4796 9.19348 37.4128 9.10584 37.3853 9.00323C37.3578 8.90062 37.3719 8.79132 37.4245 8.69903C37.6905 8.23414 37.9444 7.7624 38.1859 7.28431C38.2334 7.1898 38.3163 7.11782 38.4165 7.08391C38.5167 7.05001 38.6263 7.0569 38.7214 7.1031L39.3231 7.39389C39.3714 7.41714 39.4146 7.44976 39.4501 7.48986C39.4856 7.52996 39.5128 7.57673 39.5301 7.62745C39.5474 7.67817 39.5544 7.73181 39.5507 7.78526C39.547 7.83871 39.5327 7.89089 39.5087 7.93877C39.2535 8.44455 38.9851 8.94353 38.7037 9.43521C38.5919 9.63067 38.3423 9.69831 38.148 9.58467ZM39.9639 5.92776L39.3413 5.68522C39.1368 5.60558 39.0348 5.3772 39.1087 5.17065C39.2981 4.64201 39.4334 4.15883 39.5135 3.72688C39.5521 3.51853 39.746 3.37701 39.9565 3.40155L40.6214 3.47929C40.8522 3.50626 41.0137 3.72174 40.9726 3.95039C40.8778 4.47876 40.7165 5.06052 40.4909 5.68838C40.4726 5.73909 40.4443 5.78562 40.4077 5.82523C40.3711 5.86485 40.3269 5.89675 40.2778 5.91905C40.2287 5.94135 40.1756 5.95361 40.1217 5.95511C40.0678 5.9566 40.0142 5.9473 39.9639 5.92776ZM34.465 2.13276L34.1885 1.5242C34.1663 1.47535 34.154 1.42256 34.1524 1.36893C34.1508 1.31529 34.16 1.26187 34.1793 1.2118C34.1985 1.16172 34.2276 1.11599 34.2648 1.07727C34.3019 1.03855 34.3464 1.00761 34.3956 0.986275C34.9779 0.735349 35.5277 0.531236 36.038 0.376279C36.0901 0.36032 36.1449 0.355047 36.199 0.360776C36.2532 0.366505 36.3057 0.383118 36.3533 0.409618C36.4009 0.436118 36.4426 0.471959 36.476 0.514991C36.5094 0.558022 36.5338 0.607357 36.5476 0.660036L36.7172 1.30683C36.7719 1.51582 36.6532 1.73138 36.4465 1.79452C35.9985 1.93135 35.512 2.11255 34.9928 2.33588C34.7909 2.42274 34.5559 2.3329 34.465 2.13276ZM39.8092 2.02939C39.6446 2.09271 39.4544 2.04464 39.3483 1.90375C39.3241 1.87146 39.2976 1.84093 39.269 1.81238C39.0507 1.5942 38.6901 1.48326 38.197 1.48253H38.1832V0.00683594V0.74473L38.184 0.430126C38.1846 0.19255 38.3898 0.00440062 38.6262 0.028483C39.3272 0.0999183 39.8916 0.348138 40.3125 0.768812C40.4413 0.897803 40.5547 1.04134 40.6504 1.19652C40.7826 1.41047 40.6841 1.69269 40.4494 1.78298L39.8092 2.02939Z" fill="url(#paint41_linear_1761_14689)"/>
<path d="M14.9313 7.35186C15.6274 7.35186 16.1917 6.78755 16.1917 6.09146C16.1917 5.39536 15.6274 4.83105 14.9313 4.83105C14.2352 4.83105 13.6709 5.39536 13.6709 6.09146C13.6709 6.78755 14.2352 7.35186 14.9313 7.35186Z" fill="url(#paint42_linear_1761_14689)"/>
<path d="M8.21645 16.6819C8.91255 16.6819 9.47685 16.1176 9.47685 15.4215C9.47685 14.7254 8.91255 14.1611 8.21645 14.1611C7.52035 14.1611 6.95605 14.7254 6.95605 15.4215C6.95605 16.1176 7.52035 16.6819 8.21645 16.6819Z" fill="url(#paint43_linear_1761_14689)"/>
<path d="M42.5827 19.9056C43.2788 19.9056 43.8431 19.3413 43.8431 18.6452C43.8431 17.9491 43.2788 17.3848 42.5827 17.3848C41.8866 17.3848 41.3223 17.9491 41.3223 18.6452C41.3223 19.3413 41.8866 19.9056 42.5827 19.9056Z" fill="url(#paint44_linear_1761_14689)"/>
<defs>
<linearGradient id="paint0_linear_1761_14689" x1="13.8175" y1="11.8107" x2="40.0975" y2="38.0907" gradientUnits="userSpaceOnUse">
<stop stop-color="#00AEFC"/>
<stop offset="1" stop-color="#3F3CEE"/>
</linearGradient>
<linearGradient id="paint1_linear_1761_14689" x1="27.6309" y1="46.1829" x2="19.8289" y2="-10.0172" gradientUnits="userSpaceOnUse">
<stop stop-color="#00AEFC" stop-opacity="0"/>
<stop offset="1" stop-color="#18CFFC"/>
</linearGradient>
<linearGradient id="paint2_linear_1761_14689" x1="17.5055" y1="13.6193" x2="51.6686" y2="37.8595" gradientUnits="userSpaceOnUse">
<stop stop-color="#E5F3FF"/>
<stop offset="1" stop-color="#B3CCFF"/>
</linearGradient>
<linearGradient id="paint3_linear_1761_14689" x1="36.1549" y1="24.1607" x2="51.4644" y2="26.8541" gradientUnits="userSpaceOnUse">
<stop stop-color="#E5F3FF"/>
<stop offset="1" stop-color="#B3CCFF"/>
</linearGradient>
<linearGradient id="paint4_linear_1761_14689" x1="31.4763" y1="18.0255" x2="47.4139" y2="-13.1119" gradientUnits="userSpaceOnUse">
<stop stop-color="#3F3CEE" stop-opacity="0"/>
<stop offset="1" stop-color="#2F43BC"/>
</linearGradient>
<linearGradient id="paint5_linear_1761_14689" x1="33.7725" y1="34.7964" x2="22.7375" y2="23.7614" gradientUnits="userSpaceOnUse">
<stop stop-color="#3F3CEE" stop-opacity="0"/>
<stop offset="1" stop-color="#2F43BC"/>
</linearGradient>
<linearGradient id="paint6_linear_1761_14689" x1="18.471" y1="16.4476" x2="18.471" y2="18.8821" gradientUnits="userSpaceOnUse">
<stop stop-color="#F9F7FC"/>
<stop offset="1" stop-color="#F0DDFC"/>
</linearGradient>
<linearGradient id="paint7_linear_1761_14689" x1="18.471" y1="17.765" x2="18.471" y2="16.0639" gradientUnits="userSpaceOnUse">
<stop stop-color="#E9EDF5" stop-opacity="0"/>
<stop offset="1" stop-color="white"/>
</linearGradient>
<linearGradient id="paint8_linear_1761_14689" x1="18.1435" y1="17.5441" x2="21.8381" y2="16.4333" gradientUnits="userSpaceOnUse">
<stop stop-color="#F0DDFC" stop-opacity="0"/>
<stop offset="0.289" stop-color="#C8B7E0" stop-opacity="0.289"/>
<stop offset="0.592" stop-color="#A595C8" stop-opacity="0.592"/>
<stop offset="0.84" stop-color="#8F81B8" stop-opacity="0.84"/>
<stop offset="1" stop-color="#8779B3"/>
</linearGradient>
<linearGradient id="paint9_linear_1761_14689" x1="18.5913" y1="16.4786" x2="18.3736" y2="17.6961" gradientUnits="userSpaceOnUse">
<stop stop-color="#F0DDFC" stop-opacity="0"/>
<stop offset="0.289" stop-color="#C8B7E0" stop-opacity="0.289"/>
<stop offset="0.592" stop-color="#A595C8" stop-opacity="0.592"/>
<stop offset="0.84" stop-color="#8F81B8" stop-opacity="0.84"/>
<stop offset="1" stop-color="#8779B3"/>
</linearGradient>
<linearGradient id="paint10_linear_1761_14689" x1="21.4057" y1="16.807" x2="21.4057" y2="19.2415" gradientUnits="userSpaceOnUse">
<stop stop-color="#F9F7FC"/>
<stop offset="1" stop-color="#F0DDFC"/>
</linearGradient>
<linearGradient id="paint11_linear_1761_14689" x1="21.4056" y1="18.1242" x2="21.4056" y2="16.4232" gradientUnits="userSpaceOnUse">
<stop stop-color="#E9EDF5" stop-opacity="0"/>
<stop offset="1" stop-color="white"/>
</linearGradient>
<linearGradient id="paint12_linear_1761_14689" x1="21.0781" y1="17.9024" x2="24.7726" y2="16.7916" gradientUnits="userSpaceOnUse">
<stop stop-color="#F0DDFC" stop-opacity="0"/>
<stop offset="0.289" stop-color="#C8B7E0" stop-opacity="0.289"/>
<stop offset="0.592" stop-color="#A595C8" stop-opacity="0.592"/>
<stop offset="0.84" stop-color="#8F81B8" stop-opacity="0.84"/>
<stop offset="1" stop-color="#8779B3"/>
</linearGradient>
<linearGradient id="paint13_linear_1761_14689" x1="21.5259" y1="16.838" x2="21.3081" y2="18.0555" gradientUnits="userSpaceOnUse">
<stop stop-color="#F0DDFC" stop-opacity="0"/>
<stop offset="0.289" stop-color="#C8B7E0" stop-opacity="0.289"/>
<stop offset="0.592" stop-color="#A595C8" stop-opacity="0.592"/>
<stop offset="0.84" stop-color="#8F81B8" stop-opacity="0.84"/>
<stop offset="1" stop-color="#8779B3"/>
</linearGradient>
<linearGradient id="paint14_linear_1761_14689" x1="32.1582" y1="30.1311" x2="29.7237" y2="30.1312" gradientUnits="userSpaceOnUse">
<stop stop-color="#F9F7FC"/>
<stop offset="1" stop-color="#F0DDFC"/>
</linearGradient>
<linearGradient id="paint15_linear_1761_14689" x1="30.8407" y1="30.1311" x2="32.5418" y2="30.1311" gradientUnits="userSpaceOnUse">
<stop stop-color="#E9EDF5" stop-opacity="0"/>
<stop offset="1" stop-color="white"/>
</linearGradient>
<linearGradient id="paint16_linear_1761_14689" x1="31.0621" y1="30.4587" x2="32.173" y2="26.7641" gradientUnits="userSpaceOnUse">
<stop stop-color="#F0DDFC" stop-opacity="0"/>
<stop offset="0.289" stop-color="#C8B7E0" stop-opacity="0.289"/>
<stop offset="0.592" stop-color="#A595C8" stop-opacity="0.592"/>
<stop offset="0.84" stop-color="#8F81B8" stop-opacity="0.84"/>
<stop offset="1" stop-color="#8779B3"/>
</linearGradient>
<linearGradient id="paint17_linear_1761_14689" x1="32.1273" y1="30.0109" x2="30.9098" y2="30.2287" gradientUnits="userSpaceOnUse">
<stop stop-color="#F0DDFC" stop-opacity="0"/>
<stop offset="0.289" stop-color="#C8B7E0" stop-opacity="0.289"/>
<stop offset="0.592" stop-color="#A595C8" stop-opacity="0.592"/>
<stop offset="0.84" stop-color="#8F81B8" stop-opacity="0.84"/>
<stop offset="1" stop-color="#8779B3"/>
</linearGradient>
<linearGradient id="paint18_linear_1761_14689" x1="31.7989" y1="27.1966" x2="29.3643" y2="27.1966" gradientUnits="userSpaceOnUse">
<stop stop-color="#F9F7FC"/>
<stop offset="1" stop-color="#F0DDFC"/>
</linearGradient>
<linearGradient id="paint19_linear_1761_14689" x1="30.4814" y1="27.1965" x2="32.1824" y2="27.1965" gradientUnits="userSpaceOnUse">
<stop stop-color="#E9EDF5" stop-opacity="0"/>
<stop offset="1" stop-color="white"/>
</linearGradient>
<linearGradient id="paint20_linear_1761_14689" x1="30.7028" y1="27.5241" x2="31.8136" y2="23.8295" gradientUnits="userSpaceOnUse">
<stop stop-color="#F0DDFC" stop-opacity="0"/>
<stop offset="0.289" stop-color="#C8B7E0" stop-opacity="0.289"/>
<stop offset="0.592" stop-color="#A595C8" stop-opacity="0.592"/>
<stop offset="0.84" stop-color="#8F81B8" stop-opacity="0.84"/>
<stop offset="1" stop-color="#8779B3"/>
</linearGradient>
<linearGradient id="paint21_linear_1761_14689" x1="31.768" y1="27.0763" x2="30.5503" y2="27.2941" gradientUnits="userSpaceOnUse">
<stop stop-color="#F0DDFC" stop-opacity="0"/>
<stop offset="0.289" stop-color="#C8B7E0" stop-opacity="0.289"/>
<stop offset="0.592" stop-color="#A595C8" stop-opacity="0.592"/>
<stop offset="0.84" stop-color="#8F81B8" stop-opacity="0.84"/>
<stop offset="1" stop-color="#8779B3"/>
</linearGradient>
<linearGradient id="paint22_linear_1761_14689" x1="13.1413" y1="31.5781" x2="12.8291" y2="33.6651" gradientUnits="userSpaceOnUse">
<stop stop-color="#FFDA45"/>
<stop offset="0.304" stop-color="#FFCE3E"/>
<stop offset="0.856" stop-color="#FFAE2B"/>
<stop offset="1" stop-color="#FFA425"/>
</linearGradient>
<linearGradient id="paint23_linear_1761_14689" x1="12.4224" y1="32.4204" x2="15.5201" y2="29.2557" gradientUnits="userSpaceOnUse">
<stop stop-color="#FFDA45" stop-opacity="0"/>
<stop offset="1" stop-color="#B53759"/>
</linearGradient>
<linearGradient id="paint24_linear_1761_14689" x1="17.0289" y1="35.4623" x2="14.9419" y2="35.7746" gradientUnits="userSpaceOnUse">
<stop stop-color="#FFDA45"/>
<stop offset="0.304" stop-color="#FFCE3E"/>
<stop offset="0.856" stop-color="#FFAE2B"/>
<stop offset="1" stop-color="#FFA425"/>
</linearGradient>
<linearGradient id="paint25_linear_1761_14689" x1="16.187" y1="36.1815" x2="19.3517" y2="33.0838" gradientUnits="userSpaceOnUse">
<stop stop-color="#FFDA45" stop-opacity="0"/>
<stop offset="1" stop-color="#B53759"/>
</linearGradient>
<linearGradient id="paint26_linear_1761_14689" x1="20.8192" y1="17.8838" x2="17.5807" y2="23.2971" gradientUnits="userSpaceOnUse">
<stop stop-color="#FFDA45"/>
<stop offset="0.304" stop-color="#FFCE3E"/>
<stop offset="0.856" stop-color="#FFAE2B"/>
<stop offset="1" stop-color="#FFA425"/>
</linearGradient>
<linearGradient id="paint27_linear_1761_14689" x1="18.2904" y1="21.4165" x2="24.9479" y2="11.4948" gradientUnits="userSpaceOnUse">
<stop stop-color="#FFDA45" stop-opacity="0"/>
<stop offset="1" stop-color="#B53759"/>
</linearGradient>
<linearGradient id="paint28_linear_1761_14689" x1="16.6404" y1="19.6964" x2="19.8575" y2="23.7309" gradientUnits="userSpaceOnUse">
<stop stop-color="#F0DDFC" stop-opacity="0"/>
<stop offset="0.289" stop-color="#C8B7E0" stop-opacity="0.289"/>
<stop offset="0.592" stop-color="#A595C8" stop-opacity="0.592"/>
<stop offset="0.84" stop-color="#8F81B8" stop-opacity="0.84"/>
<stop offset="1" stop-color="#8779B3"/>
</linearGradient>
<linearGradient id="paint29_linear_1761_14689" x1="18.4367" y1="20.7094" x2="17.0918" y2="23.207" gradientUnits="userSpaceOnUse">
<stop stop-color="#FFDA45" stop-opacity="0"/>
<stop offset="1" stop-color="#B53759"/>
</linearGradient>
<linearGradient id="paint30_linear_1761_14689" x1="30.7216" y1="27.7822" x2="25.3083" y2="31.0208" gradientUnits="userSpaceOnUse">
<stop stop-color="#FFDA45"/>
<stop offset="0.304" stop-color="#FFCE3E"/>
<stop offset="0.856" stop-color="#FFAE2B"/>
<stop offset="1" stop-color="#FFA425"/>
</linearGradient>
<linearGradient id="paint31_linear_1761_14689" x1="27.8404" y1="29.8747" x2="37.7621" y2="23.2173" gradientUnits="userSpaceOnUse">
<stop stop-color="#FFDA45" stop-opacity="0"/>
<stop offset="1" stop-color="#B53759"/>
</linearGradient>
<linearGradient id="paint32_linear_1761_14689" x1="29.2876" y1="32.2632" x2="25.2531" y2="29.0462" gradientUnits="userSpaceOnUse">
<stop stop-color="#FFDA45" stop-opacity="0"/>
<stop offset="1" stop-color="#B53759"/>
</linearGradient>
<linearGradient id="paint33_linear_1761_14689" x1="27.8962" y1="30.165" x2="25.3987" y2="31.5099" gradientUnits="userSpaceOnUse">
<stop stop-color="#FFDA45" stop-opacity="0"/>
<stop offset="1" stop-color="#B53759"/>
</linearGradient>
<linearGradient id="paint34_linear_1761_14689" x1="22.9105" y1="23.9362" x2="25.6484" y2="26.6741" gradientUnits="userSpaceOnUse">
<stop stop-color="#E5F3FF"/>
<stop offset="1" stop-color="#B3CCFF"/>
</linearGradient>
<linearGradient id="paint35_linear_1761_14689" x1="24.8078" y1="25.7237" x2="20.912" y2="22.2451" gradientUnits="userSpaceOnUse">
<stop stop-color="#E5F3FF" stop-opacity="0"/>
<stop offset="1" stop-color="white"/>
</linearGradient>
<linearGradient id="paint36_linear_1761_14689" x1="23.5822" y1="28.3277" x2="29.6446" y2="-13.9915" gradientUnits="userSpaceOnUse">
<stop stop-color="#B3CCFF" stop-opacity="0"/>
<stop offset="1" stop-color="#9FB0CB"/>
</linearGradient>
<linearGradient id="paint37_linear_1761_14689" x1="30.0733" y1="16.0166" x2="32.4577" y2="19.7634" gradientUnits="userSpaceOnUse">
<stop stop-color="#8B788A"/>
<stop offset="1" stop-color="#6E566E"/>
</linearGradient>
<linearGradient id="paint38_linear_1761_14689" x1="31.293" y1="17.9154" x2="30.6616" y2="15.7282" gradientUnits="userSpaceOnUse">
<stop stop-color="#8B788A" stop-opacity="0"/>
<stop offset="1" stop-color="#9E8C92"/>
</linearGradient>
<linearGradient id="paint39_linear_1761_14689" x1="31.7665" y1="18.3966" x2="33.265" y2="14.5404" gradientUnits="userSpaceOnUse">
<stop stop-color="#555A66" stop-opacity="0"/>
<stop offset="1" stop-color="#555A66"/>
</linearGradient>
<linearGradient id="paint40_linear_1761_14689" x1="16.1659" y1="32.3049" x2="16.4905" y2="32.6295" gradientUnits="userSpaceOnUse">
<stop stop-color="#E5F3FF"/>
<stop offset="1" stop-color="#B3CCFF"/>
</linearGradient>
<linearGradient id="paint41_linear_1761_14689" x1="0" y1="20.5441" x2="40.979" y2="20.5441" gradientUnits="userSpaceOnUse">
<stop stop-color="#FF7044"/>
<stop offset="1" stop-color="#F92814"/>
</linearGradient>
<linearGradient id="paint42_linear_1761_14689" x1="14.8336" y1="5.99386" x2="16.2219" y2="7.38207" gradientUnits="userSpaceOnUse">
<stop stop-color="#FF7044"/>
<stop offset="1" stop-color="#F92814"/>
</linearGradient>
<linearGradient id="paint43_linear_1761_14689" x1="7.68331" y1="14.8884" x2="9.19734" y2="16.4025" gradientUnits="userSpaceOnUse">
<stop stop-color="#92F37F"/>
<stop offset="1" stop-color="#4AB272"/>
</linearGradient>
<linearGradient id="paint44_linear_1761_14689" x1="41.8047" y1="17.8672" x2="43.9769" y2="20.0394" gradientUnits="userSpaceOnUse">
<stop stop-color="#92F37F"/>
<stop offset="1" stop-color="#4AB272"/>
</linearGradient>
</defs>
</svg>
