<svg width="24" height="24" viewBox="0 0 24 24" fill="none" xmlns="http://www.w3.org/2000/svg">
<g clip-path="url(#clip0_1117_1394)">
<circle cx="12" cy="12" r="11.5" fill="#F6F7F9" stroke="#D49836"/>
<path d="M12.0003 12.5007C9.88699 12.5007 8.16699 10.7807 8.16699 8.66732C8.16699 6.55398 9.88699 4.83398 12.0003 4.83398C14.1137 4.83398 15.8337 6.55398 15.8337 8.66732C15.8337 10.7807 14.1137 12.5007 12.0003 12.5007ZM12.0003 5.83398C10.4403 5.83398 9.16699 7.10732 9.16699 8.66732C9.16699 10.2273 10.4403 11.5007 12.0003 11.5007C13.5603 11.5007 14.8337 10.2273 14.8337 8.66732C14.8337 7.10732 13.5603 5.83398 12.0003 5.83398Z" fill="#A1AECB"/>
<path d="M17.7268 19.1667C17.4534 19.1667 17.2268 18.94 17.2268 18.6667C17.2268 16.3667 14.8801 14.5 12.0001 14.5C9.1201 14.5 6.77344 16.3667 6.77344 18.6667C6.77344 18.94 6.54677 19.1667 6.27344 19.1667C6.0001 19.1667 5.77344 18.94 5.77344 18.6667C5.77344 15.82 8.56677 13.5 12.0001 13.5C15.4334 13.5 18.2268 15.82 18.2268 18.6667C18.2268 18.94 18.0001 19.1667 17.7268 19.1667Z" fill="#A1AECB"/>
<rect x="15.25" y="15.25" width="8.5" height="8.5" rx="4.25" fill="white"/>
<rect x="15.25" y="15.25" width="8.5" height="8.5" rx="4.25" stroke="#D49836" stroke-width="0.5"/>
<path d="M22.1251 18.0534H16.875C16.7554 18.0534 16.6562 17.9377 16.6562 17.7982C16.6562 17.6587 16.7554 17.543 16.875 17.543H22.1251C22.2446 17.543 22.3438 17.6587 22.3438 17.7982C22.3438 17.9377 22.2446 18.0534 22.1251 18.0534Z" fill="#D49836"/>
<path d="M22.1251 19.7546H16.875C16.7554 19.7546 16.6562 19.6389 16.6562 19.4994C16.6562 19.3598 16.7554 19.2441 16.875 19.2441H22.1251C22.2446 19.2441 22.3438 19.3598 22.3438 19.4994C22.3438 19.6389 22.2446 19.7546 22.1251 19.7546Z" fill="#D49836"/>
<path d="M22.1251 21.4557H16.875C16.7554 21.4557 16.6562 21.34 16.6562 21.2005C16.6562 21.061 16.7554 20.9453 16.875 20.9453H22.1251C22.2446 20.9453 22.3438 21.061 22.3438 21.2005C22.3438 21.34 22.2446 21.4557 22.1251 21.4557Z" fill="#D49836"/>
</g>
<defs>
<clipPath id="clip0_1117_1394">
<rect width="24" height="24" fill="white"/>
</clipPath>
</defs>
</svg>
