<svg width="65" height="43" viewBox="0 0 65 43" fill="none" xmlns="http://www.w3.org/2000/svg">
<g id="&#217;&#136;&#216;&#179;&#217;&#132; 1">
<g id="Group">
<path id="Vector" d="M34.1189 0.797233L41.2217 13.4912C41.2342 13.5041 41.2217 13.5299 41.2091 13.5427H41.1966H38.4483C38.4358 13.5427 38.4232 13.5299 38.4107 13.517L31.3079 0.822981C31.2954 0.810107 31.3079 0.784359 31.3205 0.771484C31.3205 0.771484 31.333 0.771484 31.3456 0.771484H34.0938C34.1064 0.771484 34.1189 0.784359 34.1189 0.797233Z" fill="#D49836"/>
<path id="Vector_2" d="M38.5984 2.04528L45.0235 13.4776C45.036 13.5034 45.0235 13.5291 45.011 13.542C44.9984 13.542 44.9984 13.542 44.9859 13.542H42.2502C42.2376 13.542 42.2251 13.5291 42.2125 13.5162L35.7874 2.0839C35.7749 2.05815 35.7874 2.03241 35.8 2.01953C35.8125 2.01953 35.8125 2.01953 35.8251 2.01953H38.5608C38.5733 2.03241 38.5859 2.03241 38.5984 2.04528Z" fill="#D49836"/>
<path id="Vector_3" d="M22.4733 20.3405L31.6843 4.05453C31.6969 4.02879 31.722 4.02879 31.7345 4.04166L31.7471 4.05453L33.1526 6.4234C33.1651 6.43627 33.1651 6.44915 33.1526 6.46202L25.2341 20.3791C25.2216 20.392 25.209 20.4048 25.1965 20.4048H22.4859C22.4608 20.4048 22.4482 20.392 22.4482 20.3662C22.4733 20.3533 22.4733 20.3405 22.4733 20.3405Z" fill="#D49836"/>
<path id="Vector_4" d="M26.6523 20.3394L33.8931 7.50375C33.9057 7.478 33.9308 7.478 33.9433 7.49088L33.9559 7.50375L35.3865 9.87261C35.399 9.88549 35.399 9.89836 35.3865 9.91124L29.4382 20.378C29.4257 20.3909 29.4131 20.4038 29.4006 20.4038H26.69C26.6649 20.4038 26.6523 20.378 26.6523 20.3651C26.6523 20.3523 26.6523 20.3394 26.6523 20.3394Z" fill="#D49836"/>
<path id="Vector_5" d="M33.8554 14.3789H49.755C49.7801 14.3789 49.7926 14.3918 49.7926 14.4175C49.7926 14.4304 49.7926 14.4304 49.7926 14.4304L48.4374 16.9538C48.4248 16.9666 48.4123 16.9795 48.3997 16.9795H32.4625C32.4374 16.9795 32.4248 16.9666 32.4248 16.9409C32.4248 16.928 32.4248 16.928 32.4248 16.9151L33.8177 14.3918C33.8303 14.3918 33.8428 14.3789 33.8554 14.3789Z" fill="#D49836"/>
<path id="Vector_6" d="M31.7722 17.791H46.693C46.7181 17.791 46.7307 17.8039 46.7307 17.8296C46.7307 17.8425 46.7307 17.8425 46.7307 17.8425L45.3754 20.3659C45.3628 20.3787 45.3503 20.3916 45.3377 20.3916H30.3667C30.3417 20.3916 30.3291 20.3787 30.3291 20.353C30.3291 20.3401 30.3291 20.3401 30.3291 20.3272L31.7346 17.8039C31.7471 17.8039 31.7597 17.791 31.7722 17.791Z" fill="#D49836"/>
<path id="Vector_7" d="M45.1238 24.5892C44.9983 24.3832 44.8477 24.1772 44.7724 23.9583C44.1198 21.8469 47.6085 20.6496 48.0853 23.07C48.2736 24.0356 47.6838 24.5248 46.8932 25.0398C45.9645 25.632 45.2869 26.0568 44.8351 26.3272C44.2704 26.6748 43.8814 25.7607 43.8438 25.3487C43.8438 25.3101 43.8563 25.2844 43.8939 25.2844C44.3332 25.1814 44.7347 24.9883 45.0987 24.705C45.1488 24.6664 45.1614 24.6278 45.1238 24.5892ZM46.09 23.9841C46.1151 24.0227 46.1779 24.0356 46.2155 24.0098C46.5292 23.8167 47.3951 23.379 46.8806 22.8769C46.6798 22.6838 46.479 22.7481 46.2657 22.8769C45.6508 23.2374 45.7387 23.4434 46.09 23.9841Z" fill="#D49836"/>
<path id="Vector_8" d="M58.7401 24.576C57.3221 22.7993 59.8946 20.7266 61.3127 22.2457C62.0154 23.0053 61.8397 24.1897 60.9613 24.7562C59.7691 25.5286 58.966 26.0436 58.5393 26.3011C57.9119 26.6873 57.5354 25.8505 57.4727 25.3484C57.4727 25.3098 57.4852 25.2969 57.5103 25.284C57.9621 25.181 58.3636 24.9879 58.7401 24.6918C58.7527 24.6661 58.7652 24.6146 58.7401 24.576ZM59.9197 22.8379C59.6813 22.9667 59.5056 23.1212 59.3927 23.3143C59.3676 23.3658 59.3676 23.4173 59.3927 23.4688L59.6687 23.958C59.6938 23.9966 59.7189 24.0095 59.7691 23.9966C60.1079 23.8421 60.3464 23.7005 60.4844 23.546C60.8734 23.1083 60.4593 22.5676 59.9197 22.8379Z" fill="#D49836"/>
<path id="Vector_9" d="M23.8911 35.1715C27.2919 35.1843 30.7052 35.1843 34.106 35.1715C34.4825 35.1715 34.7585 35.1071 34.9468 35.0041C36.1389 34.296 35.8754 31.4637 35.8754 30.2921C35.8628 28.2837 37.9585 28.6828 39.1507 28.9918C39.2134 29.0047 39.2511 29.0691 39.226 29.1334C38.9248 30.408 38.8244 31.7212 38.9248 33.0601C38.9625 33.6394 39.113 34.1415 39.364 34.5792C39.7781 35.2873 40.506 35.1972 41.1962 35.1843C41.4974 35.1843 41.7358 35.12 41.8989 35.0298C43.0785 34.3604 42.8401 31.5409 42.8401 30.2921C42.8401 28.2966 44.8856 28.6828 46.1279 28.9918C46.1907 29.0047 46.2283 29.0691 46.2158 29.1463C46.0275 29.8673 45.9146 30.6268 45.9021 31.425C45.8644 32.7768 45.7389 35.1586 47.5334 35.1972C48.186 35.2101 48.7256 35.3002 49.1899 34.7337C49.466 34.3861 49.6542 33.9226 49.7295 33.3562C49.9177 32.0044 49.8048 30.511 49.8048 29.1463C49.8048 28.6313 49.855 28.2709 49.9428 28.0777C50.4448 26.9577 52.2393 27.2924 53.1428 27.5885C53.193 27.6014 53.2056 27.64 53.193 27.6786C52.9923 28.3996 52.9672 29.0562 52.8793 29.79C52.7287 31.1289 52.9923 32.5709 52.6534 33.8068C52.1389 35.7508 50.5703 37.0768 48.6001 37.1798C47.044 37.2571 45.6636 37.167 44.4087 36.1113C44.3711 36.0855 44.346 36.0855 44.3083 36.1113C43.5177 36.7807 42.6017 37.1283 41.5601 37.1927C40.004 37.27 38.6613 37.1541 37.4189 36.1113C37.3813 36.0855 37.3562 36.0855 37.3185 36.1113C36.5279 36.8065 35.5366 37.1541 34.5076 37.1927C34.2691 37.2056 34.0558 37.2828 33.8299 37.2828C31.2574 37.2828 28.6974 37.2828 26.1248 37.2828C25.9868 37.2828 25.8236 37.2056 25.6605 37.2056C24.9828 37.1927 24.3177 37.1927 23.6401 37.2056C23.6025 37.2056 23.5648 37.2313 23.5523 37.27C22.6864 40.3212 20.2644 42.1364 17.1523 42.1107C14.015 42.0849 11.4048 39.8319 10.9028 36.652C10.7523 35.7379 10.815 34.4891 10.8025 33.4334C10.7899 31.4765 13.0236 31.8628 14.1405 32.2104C14.1781 32.2232 14.2032 32.249 14.1907 32.3005C13.8644 33.6394 13.8017 34.9912 13.8895 36.3688C14.0527 38.8792 15.5083 40.5658 18.0809 40.0508C20.2895 39.6131 20.7538 37.3987 20.7538 35.4418C20.7538 32.0173 20.7538 28.5927 20.7413 25.1682C20.7413 23.1726 22.8495 23.546 24.0542 23.8679C24.1044 23.8807 24.1295 23.9194 24.117 23.9709C23.8911 24.8978 23.8032 25.7346 23.7907 26.7646C23.7781 29.5454 23.7781 32.3391 23.7907 35.12C23.8283 35.1457 23.8534 35.1715 23.8911 35.1715Z" fill="black"/>
<path id="Vector_10" d="M8.68214 26.8284C9.02867 26.8284 9.30959 26.5402 9.30959 26.1847C9.30959 25.8292 9.02867 25.541 8.68214 25.541C8.33561 25.541 8.05469 25.8292 8.05469 26.1847C8.05469 26.5402 8.33561 26.8284 8.68214 26.8284Z" fill="#D49836"/>
<path id="Vector_11" d="M10.1997 26.8284C10.5462 26.8284 10.8272 26.5402 10.8272 26.1847C10.8272 25.8292 10.5462 25.541 10.1997 25.541C9.85318 25.541 9.57227 25.8292 9.57227 26.1847C9.57227 26.5402 9.85318 26.8284 10.1997 26.8284Z" fill="#D49836"/>
<path id="Vector_12" d="M13.3999 26.8284C13.7464 26.8284 14.0274 26.5402 14.0274 26.1847C14.0274 25.8292 13.7464 25.541 13.3999 25.541C13.0534 25.541 12.7725 25.8292 12.7725 26.1847C12.7725 26.5402 13.0534 26.8284 13.3999 26.8284Z" fill="#D49836"/>
<path id="Vector_13" d="M11.0158 30.3052C11.4049 30.3181 11.8064 30.3181 12.208 30.3052C13.237 30.2924 12.4464 27.8205 12.9233 27.3956C13.1743 27.1768 13.7139 27.2669 14.0025 27.3442C14.0401 27.357 14.0527 27.3699 14.0401 27.4085C13.9649 27.9235 13.9398 28.6058 13.9649 29.4555C13.9774 29.9705 14.1907 30.3439 14.7429 30.3181C15.3076 30.2795 15.408 29.7001 15.3954 29.1723C15.3954 28.2067 15.3954 27.2412 15.408 26.2756C15.408 25.6834 16.3366 25.8121 16.6629 25.928C16.7005 25.9409 16.7256 25.9795 16.7131 26.0181C16.6503 26.2627 16.6001 26.4945 16.6001 26.7519C16.5876 27.563 16.5876 28.3741 16.6001 29.1852C16.6127 29.8933 16.7382 30.4468 17.5664 30.2666C17.9554 30.1894 18.0307 29.61 18.0307 29.301C18.0307 28.3355 18.0182 27.3828 18.0307 26.4172C18.0307 25.6834 18.8464 25.7606 19.2982 25.9151C19.3358 25.928 19.3609 25.9666 19.3484 26.0052C19.2982 26.2241 19.248 26.4301 19.248 26.6489C19.2103 27.5244 19.2103 28.3998 19.2229 29.2753C19.2354 30.2151 18.5452 30.8974 17.6668 31.0391C17.1021 31.1292 16.575 31.0133 16.0605 30.6786C16.0229 30.6528 15.9852 30.6528 15.9476 30.6786C15.0943 31.2064 14.2535 31.2064 13.4001 30.6786C13.3625 30.6528 13.3249 30.6528 13.2872 30.6786C12.9233 30.9361 12.5594 31.0648 12.1829 31.0648C10.1249 31.0519 8.07936 31.0519 6.02132 31.0648C5.97113 31.0648 5.94603 31.0906 5.92093 31.1292C5.84564 31.348 5.78289 31.5669 5.66995 31.7471C4.86681 33.0474 3.04721 33.3436 1.8927 32.3394C1.00172 31.554 0.95152 30.4983 1.03936 29.4813C1.08956 28.8633 1.93034 28.9921 2.30681 29.1208C2.34446 29.1337 2.36956 29.1594 2.35701 29.2109C2.10603 30.1121 2.03074 31.9016 3.19779 32.1334C4.57819 32.3909 4.84172 31.3738 4.84172 30.2151C4.84172 28.9406 4.84172 27.666 4.84172 26.4043C4.84172 25.6834 5.66995 25.7735 6.10917 25.928C6.14681 25.9409 6.17191 25.9795 6.15936 26.0181C6.10917 26.2498 6.05897 26.4687 6.05897 26.7133C6.05897 27.8977 6.05897 29.0693 6.04642 30.2537C6.04642 30.2795 6.07152 30.3052 6.09662 30.3052H7.6276C7.66524 30.3052 7.67779 30.2924 7.69034 30.2537C7.71544 29.1465 7.53975 27.8849 8.76956 27.3828C9.04564 27.2669 9.34681 27.2412 9.68564 27.2798C11.1539 27.4471 11.6558 29.0564 10.9907 30.2537C10.9782 30.2666 10.9907 30.2924 11.0033 30.3052H11.0158ZM9.86132 30.1507C10.175 29.7516 10.2503 28.3226 9.64799 28.078C8.71936 27.6918 8.86995 29.8031 8.89505 30.2537C8.89505 30.2924 8.92015 30.3181 8.95779 30.3181C9.20877 30.3181 9.67309 30.3825 9.86132 30.1507Z" fill="#D49836"/>
<path id="Vector_14" d="M60.8608 37.1661C60.0451 37.1661 59.0914 37.2176 58.3761 37.0889C56.3055 36.7413 54.8874 34.9518 54.7243 32.8533C54.6867 32.3383 54.6992 31.8233 54.7619 31.3084C55.0255 29.2356 56.4937 27.6135 58.489 27.3431C61.6388 26.9054 63.9729 28.9009 63.9729 32.2224C63.9729 33.9733 63.9729 35.7114 63.9729 37.4623C63.9729 38.1961 63.7972 38.9042 63.4459 39.5865C62.8561 40.7452 61.9149 41.5691 60.6851 41.9039C60.3463 41.994 59.8318 42.0455 59.1667 42.0584C58.1878 42.0841 55.9541 42.2386 56.0921 40.6293C56.1298 40.1916 56.4561 39.7796 56.7447 39.4578C56.7698 39.432 56.8074 39.432 56.82 39.4578C57.3219 39.9599 57.987 40.1144 58.6898 40.1272C59.5808 40.1401 60.2961 40.05 60.6349 39.1102C60.8357 38.5437 60.9235 37.9257 60.911 37.2434C60.9235 37.1919 60.8984 37.1661 60.8608 37.1661ZM60.9235 31.7332C60.8482 30.9093 60.5972 29.6733 59.769 29.3257C58.8655 28.9652 58.1502 29.7892 57.9369 30.6003C57.6608 31.6302 57.6482 32.6988 57.8992 33.7802C58.0372 34.3724 58.489 35.1578 59.0537 35.1578C59.6686 35.1578 60.2835 35.1578 60.8984 35.1578C60.9361 35.1578 60.9486 35.1449 60.9486 35.1063C60.9486 34.012 60.9988 32.6215 60.9235 31.7332Z" fill="black"/>
<path id="Vector_15" d="M50.934 39.844C51.0519 39.844 51.1474 39.746 51.1474 39.6251C51.1474 39.5042 51.0519 39.4062 50.934 39.4062C50.8162 39.4062 50.7207 39.5042 50.7207 39.6251C50.7207 39.746 50.8162 39.844 50.934 39.844Z" fill="#D49836"/>
<path id="Vector_16" d="M35.8505 39.8195V41.5446C35.8505 41.5704 35.8254 41.5961 35.8003 41.5961H35.4991C35.474 41.5961 35.4489 41.5704 35.4489 41.5446V39.8323C35.4489 39.8066 35.4238 39.7808 35.3987 39.7808L34.8842 39.7937C34.8591 39.7937 34.834 39.768 34.834 39.7422L34.8465 39.5105C34.8465 39.4847 34.8716 39.459 34.8967 39.459H36.365C36.3901 39.459 36.4152 39.4847 36.4152 39.5105V39.7422C36.4152 39.768 36.3901 39.7937 36.365 39.7937L35.8881 39.7808C35.863 39.7808 35.8505 39.7937 35.8505 39.8195Z" fill="#D49836"/>
<path id="Vector_17" d="M27.744 41.6473C27.2169 41.6087 26.8154 41.0937 26.8656 40.5015C26.9158 39.9093 27.3801 39.4716 27.9197 39.5102C28.4467 39.5488 28.8483 40.0638 28.7981 40.656C28.7479 41.2482 28.2711 41.6988 27.744 41.6473ZM27.8193 41.2611C28.0828 41.2611 28.2962 40.9521 28.2962 40.5787C28.2962 40.2054 28.0828 39.8964 27.8193 39.8964C27.5558 39.8964 27.3424 40.2054 27.3424 40.5787C27.3424 40.9521 27.5558 41.2611 27.8193 41.2611Z" fill="#D49836"/>
<path id="Vector_18" d="M29.651 39.9348C29.5883 39.9477 29.5381 39.9992 29.5255 40.0635C29.513 40.1536 29.5506 40.218 29.651 40.2566C29.7891 40.3081 29.9146 40.3725 30.0401 40.4369C30.5546 40.733 30.5295 41.3896 29.9397 41.5569C29.6636 41.6471 29.375 41.6342 29.0863 41.5183C29.0487 41.5054 29.0361 41.4668 29.0361 41.4282L29.0989 41.1707C29.1114 41.1063 29.1491 41.0935 29.1993 41.1192C29.3875 41.2351 29.7263 41.2737 29.8769 41.1063C29.9397 41.0291 29.9397 40.9132 29.8644 40.8488C29.8393 40.836 29.8267 40.8231 29.8016 40.8102C29.513 40.7201 29.1867 40.5785 29.0738 40.2695C28.9985 40.0635 29.0361 39.8833 29.2118 39.7159C29.4879 39.4584 29.8393 39.4069 30.2534 39.5872C30.3036 39.6129 30.3287 39.6644 30.3036 39.7159L30.2283 39.9219C30.2032 39.9863 30.1655 39.9992 30.1153 39.9734C29.9773 39.909 29.8267 39.8962 29.651 39.9348Z" fill="#D49836"/>
<path id="Vector_19" d="M31.5337 41.648C30.994 41.5965 30.605 41.0815 30.6678 40.4893C30.718 39.8971 31.1948 39.4723 31.7344 39.5238C32.274 39.5753 32.6631 40.0902 32.6003 40.6824C32.5376 41.2618 32.0607 41.6995 31.5337 41.648ZM31.6215 41.2618C31.885 41.2618 32.0984 40.9528 32.0984 40.5794C32.0984 40.2061 31.885 39.8971 31.6215 39.8842C31.358 39.8842 31.1446 40.1932 31.1446 40.5666C31.1446 40.9528 31.358 41.2618 31.6215 41.2618Z" fill="#D49836"/>
<path id="Vector_20" d="M24.8573 40.7461C24.895 41.0036 24.9452 41.0036 24.9828 40.7461L25.1962 39.6132C25.2087 39.5746 25.2213 39.5617 25.2589 39.5617H25.6228C25.673 39.5617 25.7107 39.5874 25.7232 39.6389L25.9366 40.9006C25.9491 40.9907 25.9616 40.9907 25.9867 40.9006L26.2252 39.6132C26.2377 39.5746 26.2628 39.5488 26.3005 39.5488H26.6518C26.702 39.5488 26.7146 39.5746 26.702 39.6132L26.2126 41.5315C26.2001 41.5701 26.175 41.5958 26.1373 41.5958H25.7483C25.7232 41.5958 25.7107 41.583 25.6981 41.5572L25.4597 40.2698C25.4471 40.2054 25.4346 40.2054 25.422 40.2698L25.1711 41.5315C25.1585 41.583 25.1334 41.6087 25.0832 41.6087H24.6816C24.6566 41.6087 24.644 41.5958 24.6315 41.5701L24.1797 39.6389C24.1797 39.6132 24.1922 39.5874 24.2173 39.5874H24.2299H24.6064C24.644 39.5874 24.6816 39.6132 24.6816 39.6518L24.8573 40.7461Z" fill="#D49836"/>
<path id="Vector_21" d="M33.4162 41.2096L34.1315 41.1967C34.1566 41.1967 34.1691 41.2225 34.1691 41.2354V41.5315C34.1691 41.5572 34.144 41.5701 34.1315 41.5701H32.9644C32.9393 41.5701 32.9268 41.5443 32.9268 41.5315V39.5874C32.9268 39.5617 32.9519 39.5488 32.9644 39.5488H33.3283C33.3534 39.5488 33.366 39.5746 33.366 39.5874V41.1581C33.3785 41.1967 33.3911 41.2096 33.4162 41.2096Z" fill="#D49836"/>
<path id="Vector_22" d="M47.5582 40.05L47.7464 40.0371C47.8091 40.0371 47.8468 40.0628 47.8468 40.1272V40.2688C47.8468 40.3332 47.8091 40.3718 47.7464 40.3589L47.5833 40.3461C47.5205 40.3461 47.4954 40.3718 47.4954 40.4233L47.508 41.1958C47.508 41.2601 47.5331 41.2859 47.5958 41.2859H47.7338C47.7966 41.2859 47.8217 41.3116 47.8091 41.376L47.7966 41.5434C47.7966 41.582 47.7715 41.6077 47.7464 41.6077C46.9307 41.8395 47.0938 40.8482 47.1064 40.4233C47.1064 40.3847 47.0813 40.3589 47.0436 40.3589H46.9809C46.9182 40.3589 46.8931 40.3332 46.8805 40.2688C46.868 40.2045 46.868 40.153 46.8805 40.0886C46.8931 40.05 46.9056 40.0242 46.9558 40.0242H47.0562C47.1064 40.0242 47.1189 39.9985 47.1189 39.9598L47.0938 39.7667C47.0938 39.7281 47.1064 39.6895 47.1566 39.6895L47.4076 39.638C47.4703 39.6251 47.4954 39.6509 47.4954 39.7152L47.4829 39.9985C47.508 40.0242 47.5331 40.05 47.5582 40.05Z" fill="#D49836"/>
<path id="Vector_23" d="M49.6664 40.359C49.6288 40.359 49.6037 40.359 49.5786 40.3461C49.5033 40.3075 49.4531 40.2045 49.4782 40.1273C49.4908 40.0758 49.5284 40.05 49.5786 40.05L49.6664 40.0371C49.7041 40.0371 49.7417 39.9985 49.7417 39.947L49.7292 39.7797C49.7292 39.7282 49.7543 39.7024 49.8045 39.6895L50.0555 39.638C50.1057 39.6252 50.1308 39.6509 50.1308 39.7024L50.1182 39.9728C50.1182 40.0114 50.1433 40.05 50.181 40.05H50.1935L50.3692 40.0371C50.4445 40.0243 50.4696 40.0629 50.4696 40.1273V40.2689C50.4696 40.3333 50.4319 40.3719 50.3692 40.359L50.181 40.3333C50.1433 40.3333 50.1182 40.3461 50.1182 40.3848C50.1182 40.3848 50.1182 40.3848 50.1182 40.3976L50.1308 41.2345C50.1308 41.2859 50.1684 41.3117 50.2186 41.3117C50.2186 41.3117 50.2186 41.3117 50.2311 41.3117L50.3692 41.2988C50.4068 41.2988 50.457 41.3246 50.457 41.3761C50.4696 41.4404 50.457 41.5048 50.4445 41.5563C50.4319 41.5949 50.4194 41.6078 50.3817 41.6207C49.5786 41.8267 49.7543 40.8611 49.7417 40.4363C49.7292 40.3719 49.7166 40.359 49.6664 40.359Z" fill="#D49836"/>
<path id="Vector_24" d="M37.0672 40.2705C37.1676 40.1289 37.3056 40.0387 37.4688 40.013C37.5315 40.0001 37.5566 40.0259 37.5692 40.0902L37.5817 40.2962C37.5817 40.3606 37.5566 40.3992 37.4939 40.3863C36.9542 40.3606 37.1048 41.2103 37.1174 41.5193C37.1174 41.5579 37.1048 41.5708 37.0672 41.5836L36.7786 41.5965C36.7535 41.5965 36.7284 41.5836 36.7284 41.545L36.7158 40.0902C36.7158 40.0516 36.7409 40.0259 36.7786 40.0259C36.7786 40.0259 36.7786 40.0259 36.7911 40.0259L36.9919 40.0387C37.0295 40.0387 37.0546 40.0774 37.0546 40.116C37.0546 40.1289 37.0546 40.1289 37.0546 40.1289L37.017 40.2318C36.9793 40.3606 36.9919 40.3735 37.0672 40.2705Z" fill="#D49836"/>
<path id="Vector_25" d="M46.2537 40.2448C46.3792 40.116 46.5172 40.0388 46.6427 40.013C46.7055 40.0002 46.7306 40.0259 46.7431 40.0774L46.7682 40.2963C46.7682 40.3607 46.7431 40.3993 46.6804 40.3993C46.1533 40.3864 46.2914 41.2104 46.3039 41.5708C46.3039 41.5966 46.2914 41.6095 46.2663 41.6095L45.9274 41.5966C45.9149 41.5966 45.9023 41.5837 45.9023 41.5708V40.116C45.9023 40.0774 45.9274 40.0517 45.9651 40.0517H46.1784C46.2161 40.0517 46.2412 40.0774 46.2412 40.116C46.2412 40.1547 46.2412 40.1933 46.2286 40.2319C46.1659 40.2963 46.191 40.3092 46.2537 40.2448Z" fill="#D49836"/>
<path id="Vector_26" d="M38.4977 40.578C38.5856 40.578 38.6107 40.5393 38.5605 40.4621L38.5354 40.4363C38.4977 40.3848 38.4601 40.3591 38.4099 40.3333C38.2467 40.2818 38.0962 40.2947 37.9581 40.3848C37.9079 40.4106 37.8703 40.3977 37.8452 40.3591L37.795 40.2561C37.7699 40.2046 37.7824 40.166 37.8326 40.1274C37.9456 40.063 38.1087 40.0372 38.3471 40.0372C39.1628 40.0244 38.9495 41.0028 38.9495 41.5306C38.9495 41.5693 38.9244 41.595 38.8867 41.6079C38.7738 41.6208 38.6734 41.595 38.573 41.5306C38.5354 41.5049 38.5103 41.5049 38.4726 41.5306C37.7071 42.0842 37.155 40.6037 38.4977 40.578ZM38.573 41.0414C38.5856 40.9513 38.5103 40.8612 38.4224 40.8612C38.4099 40.8612 38.4099 40.8612 38.3973 40.8612C38.2342 40.8612 38.1213 40.9384 38.0585 41.0801C38.0083 41.1702 38.0585 41.286 38.1464 41.3375C38.1715 41.3504 38.1965 41.3504 38.2216 41.3504C38.435 41.3504 38.5605 41.2474 38.573 41.0414Z" fill="#D49836"/>
<path id="Vector_27" d="M39.7407 40.2186L39.8662 40.1156C39.9039 40.0899 39.9415 40.0641 39.9792 40.0512C40.9203 39.8066 40.6945 41.0425 40.707 41.5318C40.707 41.5704 40.6945 41.5833 40.6568 41.5833L40.3682 41.5704C40.3431 41.5704 40.3305 41.5575 40.3305 41.5318V40.5662C40.3305 40.4375 40.2427 40.3345 40.1172 40.3345H40.0294C39.8788 40.3216 39.7533 40.4375 39.7407 40.6048V40.6177V41.5446C39.7407 41.5704 39.7282 41.5833 39.7031 41.5833L39.4019 41.5961C39.3768 41.5961 39.3643 41.5833 39.3643 41.5575V40.1156C39.3643 40.0641 39.3894 40.0384 39.4521 40.0384C39.6403 40.0512 39.7282 40.1027 39.7282 40.2057C39.7031 40.2315 39.7156 40.2315 39.7407 40.2186Z" fill="#D49836"/>
<path id="Vector_28" d="M41.5351 41.352C41.8112 41.1975 41.7987 41.0688 41.4849 40.9915C40.983 40.8628 40.8449 40.1933 41.4222 40.0388C41.4975 40.0131 41.6481 40.0131 41.8614 40.0388C41.9618 40.0517 41.9995 40.1032 41.9995 40.1933V40.2448C41.9995 40.335 41.9493 40.3736 41.8614 40.3349C41.7359 40.2835 41.6481 40.2706 41.5853 40.2963C41.3093 40.3864 41.3093 40.4894 41.5728 40.6182C41.6355 40.6439 41.7234 40.6954 41.8238 40.7469C42.1751 40.9272 42.15 41.3906 41.8112 41.5709C41.6104 41.6739 41.3595 41.6739 41.0708 41.558C41.0206 41.5323 40.9955 41.5065 41.0081 41.4421L41.0457 41.2876C41.0583 41.2619 41.0834 41.2361 41.121 41.249C41.121 41.249 41.1336 41.249 41.1336 41.2619C41.3218 41.3649 41.4598 41.4035 41.5351 41.352Z" fill="#D49836"/>
<path id="Vector_29" d="M42.7523 40.2185C43.1037 39.9095 43.5554 39.9739 43.7813 40.3987C44.1076 41.0296 43.5931 41.9694 42.8025 41.5059C42.7523 41.4802 42.7272 41.4931 42.7398 41.5446L42.7523 42.1625C42.7523 42.2011 42.7397 42.2269 42.7021 42.2269H42.426C42.3884 42.2269 42.3633 42.2011 42.3633 42.1625V40.0898C42.3633 40.0511 42.3884 40.0254 42.426 40.0254L42.6519 40.0383C42.677 40.0383 42.7021 40.064 42.7021 40.0898V40.1928C42.7147 40.2314 42.7272 40.2443 42.7523 40.2185ZM43.0911 41.3257C43.2919 41.3386 43.4676 41.1197 43.4801 40.8365C43.4927 40.5661 43.3296 40.3344 43.1288 40.3215C42.928 40.3086 42.7523 40.5275 42.7398 40.8107C42.7272 41.094 42.8903 41.3257 43.0911 41.3257Z" fill="#D49836"/>
<path id="Vector_30" d="M45.6261 40.8228C45.6261 41.2734 45.2747 41.6339 44.8355 41.6339C44.3963 41.6339 44.0449 41.2734 44.0449 40.8228C44.0449 40.3722 44.3963 40.0117 44.8355 40.0117C45.2747 40.0117 45.6261 40.3851 45.6261 40.8228ZM44.8355 41.3506C45.0363 41.3506 45.1994 41.1189 45.1994 40.8357C45.1994 40.5524 45.0363 40.3207 44.8355 40.3207C44.6347 40.3207 44.4716 40.5524 44.4716 40.8357C44.4716 41.1189 44.6347 41.3506 44.8355 41.3506Z" fill="#D49836"/>
<path id="Vector_31" d="M48.9139 40.5142C48.9013 40.2438 48.4621 40.2824 48.2864 40.3725C48.2362 40.3983 48.186 40.3725 48.1609 40.321C48.1609 40.321 48.1609 40.321 48.1609 40.3082L48.1484 40.2438C48.1233 40.1666 48.1484 40.1151 48.2237 40.0893C48.7131 39.9091 49.2903 39.9606 49.3029 40.63C49.3029 40.9261 49.3029 41.2222 49.3154 41.5184C49.3154 41.557 49.3029 41.5827 49.2527 41.5827C49.1398 41.5956 49.0268 41.5698 48.9264 41.5184C48.8888 41.5055 48.8637 41.5055 48.826 41.5184C48.0731 42.0591 47.4958 40.5785 48.8637 40.5785C48.9013 40.5914 48.9139 40.5657 48.9139 40.5142ZM48.4245 41.042C48.3617 41.1192 48.3743 41.248 48.4621 41.2995C48.4872 41.3252 48.5249 41.3381 48.5625 41.3381C48.7382 41.351 48.8511 41.2866 48.9264 41.1192C48.9515 41.042 48.939 40.9519 48.8637 40.9133C48.7131 40.7974 48.575 40.8489 48.4245 41.042Z" fill="#D49836"/>
<path id="Vector_32" d="M50.7963 40.0371H51.0975C51.1226 40.0371 51.1477 40.0629 51.1477 40.0886V41.5434C51.1477 41.5691 51.1226 41.5949 51.0975 41.5949H50.7963C50.7712 41.5949 50.7461 41.5691 50.7461 41.5434V40.0886C50.7461 40.0629 50.7712 40.0371 50.7963 40.0371Z" fill="#D49836"/>
<path id="Vector_33" d="M52.955 40.9254C52.955 41.3117 52.6538 41.6335 52.2648 41.6335H52.1267C51.7502 41.6335 51.4365 41.3245 51.4365 40.9254V40.7452C51.4365 40.359 51.7377 40.0371 52.1267 40.0371H52.2648C52.6412 40.0371 52.955 40.3461 52.955 40.7452V40.9254ZM52.1895 41.3503C52.3902 41.3503 52.5659 41.1185 52.5659 40.8353C52.5659 40.5521 52.4028 40.3203 52.202 40.3075C52.0012 40.3075 51.8255 40.5392 51.8255 40.8224C51.8255 41.1057 51.9887 41.3503 52.1895 41.3503Z" fill="#D49836"/>
<path id="Vector_34" d="M53.6698 40.1915C54.7867 39.4835 54.6236 40.9897 54.6236 41.5433C54.6236 41.582 54.5985 41.5948 54.5734 41.5948L54.2722 41.582C54.2596 41.582 54.2471 41.5691 54.2471 41.5562L54.2345 40.5649C54.2345 40.4233 54.1216 40.3203 53.9836 40.3203C53.9459 40.3203 53.9208 40.3332 53.8832 40.346C53.5318 40.5134 53.6573 41.2472 53.6573 41.5562C53.6573 41.582 53.6447 41.5948 53.6196 41.5948H53.2808C53.2557 41.5948 53.2432 41.582 53.2432 41.5562V40.1272C53.2432 40.0885 53.2557 40.0757 53.2934 40.0628C53.444 39.9984 53.5443 40.037 53.5945 40.1787C53.6071 40.2044 53.6322 40.2044 53.6698 40.1915Z" fill="#D49836"/>
</g>
</g>
</svg>
